<svg version="1.1" id="Layer_1" xmlns="http://www.w3.org/2000/svg" xmlns:xlink="http://www.w3.org/1999/xlink" x="0px" y="0px"
	 width="100%" viewBox="0 0 2048 1267" enable-background="new 0 0 2048 1267" xml:space="preserve">
<path fill="#1E1C5B" opacity="1.000000" stroke="none" 
	d="
M1153.000000,1268.000000 
	C768.666809,1268.000000 384.833557,1268.000000 1.000257,1268.000000 
	C1.000172,845.666931 1.000172,423.333801 1.000086,1.000541 
	C683.666260,1.000360 1366.332520,1.000360 2048.999023,1.000180 
	C2048.999512,423.332764 2048.999512,845.665527 2048.999756,1267.999146 
	C1750.500000,1268.000000 1452.000000,1268.000000 1153.000000,1268.000000 
M886.424805,428.645477 
	C885.766785,429.079285 885.108704,429.513092 883.811890,430.507690 
	C883.457520,430.946198 883.103149,431.384705 882.332214,431.840973 
	C881.736084,432.213715 881.139893,432.586456 879.937012,433.341309 
	C878.938538,434.363190 877.940063,435.385040 876.307678,436.508209 
	C862.721130,447.136383 849.056885,457.667267 835.575073,468.426697 
	C826.514893,475.657410 817.713135,483.211823 808.159058,490.853607 
	C804.912231,493.942322 801.522095,496.895020 798.442383,500.142212 
	C780.705750,518.843018 777.006470,542.646362 788.116028,563.913147 
	C793.686401,574.576172 802.113220,582.871948 811.332947,590.336731 
	C829.150146,604.762573 847.107910,619.014893 864.586243,633.938599 
	C850.509827,645.100098 836.162537,655.940979 822.445984,667.528503 
	C812.192505,676.190491 801.689880,684.935425 793.183411,695.204956 
	C777.946960,713.599426 777.903503,737.711914 791.266235,757.399109 
	C799.922729,770.152649 812.071716,779.325867 823.825745,788.847656 
	C831.423035,795.002319 839.450928,800.625244 847.663940,806.736938 
	C847.663940,806.736938 848.054993,806.966614 848.267212,807.569153 
	C849.620300,808.466492 850.973328,809.363770 852.789307,810.668823 
	C853.258301,811.069458 853.727234,811.470093 854.420776,812.479614 
	C856.696838,814.162476 858.972900,815.845398 861.727783,817.877808 
	C862.213989,818.216919 862.700195,818.556030 863.385254,819.470398 
	C864.356445,820.124756 865.327576,820.779053 866.753601,821.831482 
	C867.249939,822.175659 867.746277,822.519836 868.463196,823.445984 
	C869.751892,824.387329 871.040588,825.328674 872.760925,826.598145 
	C872.911926,826.697327 873.062988,826.796570 873.443298,827.496582 
	C876.062744,829.448792 878.682190,831.401001 881.470703,833.510681 
	C881.470703,833.510681 881.665344,833.635010 881.915039,834.195190 
	C883.376953,835.253174 884.838867,836.311096 886.768982,837.760071 
	C887.258606,838.123657 887.748291,838.487244 888.503479,839.414307 
	C889.695496,840.180969 890.887451,840.947632 892.466187,842.113281 
	C892.747620,842.353699 893.029114,842.594116 893.535339,843.305115 
	C894.117188,843.637634 894.699036,843.970093 895.747803,844.706177 
	C896.220459,845.102844 896.693176,845.499573 897.390564,846.447327 
	C898.358154,847.060425 899.325684,847.673584 900.747437,848.707520 
	C901.222656,849.103455 901.697937,849.499390 902.424011,850.391235 
	C903.029297,850.777222 903.634644,851.163147 904.618530,851.795227 
	C904.618530,851.795227 905.012634,852.015503 905.275696,852.587891 
	C906.607544,853.536804 907.939392,854.485718 909.819824,855.860535 
	C929.149841,870.543518 947.647461,886.520813 968.002136,899.610535 
	C999.664429,919.971985 1033.572876,921.169067 1067.317627,904.279724 
	C1089.648560,893.103027 1107.728760,875.752747 1127.779419,860.111633 
	C1128.274414,859.637634 1128.769287,859.163574 1129.668335,858.581421 
	C1130.023926,858.186157 1130.379517,857.790833 1131.438965,857.163025 
	C1144.741699,846.799805 1158.084229,836.487000 1171.332642,826.054749 
	C1179.645996,819.508423 1187.818115,812.782593 1196.698608,805.871338 
	C1211.994141,793.299011 1228.051514,781.533752 1242.414795,767.973877 
	C1266.779297,744.972290 1267.777954,714.660583 1245.565308,689.640625 
	C1238.216919,681.363525 1229.322021,674.382996 1220.723022,667.309570 
	C1206.582886,655.678223 1192.107422,644.454468 1178.436279,632.607910 
	C1193.308105,620.813416 1208.492554,609.386475 1222.943359,597.096802 
	C1232.780151,588.731140 1242.526489,579.916260 1250.614502,569.926758 
	C1260.051514,558.271057 1263.421997,544.168579 1260.418823,528.985168 
	C1258.625244,519.917053 1254.683960,511.662506 1248.574829,505.095917 
	C1240.618530,496.543854 1231.471191,489.099884 1222.440063,480.829468 
	C1222.024536,480.503418 1221.609009,480.177338 1220.936646,479.240417 
	C1219.555054,478.248108 1218.173584,477.255798 1216.283325,475.832520 
	C1196.907471,460.357574 1177.573364,444.829956 1158.126099,429.445221 
	C1153.334961,425.654907 1148.175415,422.330017 1142.831299,418.301697 
	C1142.659546,418.196472 1142.487915,418.091248 1142.003052,417.507050 
	C1138.770020,414.679474 1135.675293,411.672607 1132.281006,409.054138 
	C1113.842041,394.829987 1096.146484,379.439758 1076.660645,366.820068 
	C1042.822754,344.905457 1006.870239,343.675476 971.787048,363.737122 
	C955.442627,373.083435 940.929993,385.677795 925.794006,397.074738 
	C917.453613,403.354767 909.542297,410.204529 900.784912,417.283905 
	C900.182617,417.829803 899.580383,418.375702 898.591492,418.853912 
	C898.255981,419.207520 897.920410,419.561127 896.860962,420.340546 
	C896.244263,420.907349 895.627563,421.474121 894.526733,422.008759 
	C893.835083,422.645477 893.143494,423.282196 891.792786,424.331818 
	C891.213623,424.849213 890.634521,425.366608 889.545959,425.853271 
	C888.810181,426.533447 888.074341,427.213623 887.055176,428.180847 
	C887.055176,428.180847 886.890686,428.549103 886.424805,428.645477 
z"/>
<path fill="#A66589" opacity="1.000000" stroke="none" 
	d="
M1143.185303,418.791199 
	C1148.175415,422.330017 1153.334961,425.654907 1158.126099,429.445221 
	C1177.573364,444.829956 1196.907471,460.357574 1216.628662,476.368286 
	C1218.380615,477.886475 1219.786987,478.868866 1221.193481,479.851257 
	C1221.609009,480.177338 1222.024536,480.503418 1222.705566,481.334717 
	C1227.204712,488.652710 1227.457764,487.158325 1221.422119,492.517700 
	C1220.427734,493.400543 1219.448730,494.303101 1218.419312,495.143585 
	C1206.985474,504.478546 1195.278687,513.504456 1184.236816,523.281555 
	C1179.980347,527.050537 1176.127808,529.198364 1170.523926,527.895874 
	C1162.666260,526.069519 1156.575684,529.171753 1151.567627,535.044312 
	C1150.165649,536.688110 1148.758179,538.329712 1147.291870,539.915649 
	C1136.042236,552.083008 1124.800293,564.257812 1113.496826,576.375122 
	C1111.370239,578.654785 1111.891846,580.556091 1113.918091,582.353271 
	C1116.902588,585.000244 1119.984497,587.537170 1123.004272,590.144775 
	C1127.648926,594.155457 1132.276245,598.186279 1136.850342,602.607300 
	C1135.612305,605.362549 1134.726196,607.928650 1133.208252,610.040771 
	C1125.449097,620.837341 1117.486572,631.487549 1109.684814,642.253967 
	C1107.155518,645.744324 1105.338135,649.842590 1102.434204,652.952209 
	C1093.365845,662.662842 1083.929077,672.029114 1074.653442,681.546875 
	C1073.963013,682.255371 1073.254395,683.027283 1072.832397,683.903687 
	C1069.438477,690.951172 1065.432617,697.800415 1062.934814,705.158691 
	C1059.782227,714.445435 1056.101929,722.414978 1045.048584,723.921570 
	C1041.651855,724.384583 1038.363525,725.677246 1034.964966,726.089844 
	C1015.449402,728.458862 996.456848,726.857178 978.145264,717.944580 
	C972.340942,714.562134 966.586243,711.775208 961.480103,708.089600 
	C953.157104,702.082092 945.257507,695.487854 937.510498,689.197754 
	C942.692627,692.743713 947.563965,696.205200 952.388367,699.730896 
	C956.717163,702.894287 957.221252,702.534485 959.539001,697.932678 
	C962.814880,691.428528 966.021667,684.724915 970.421448,679.000854 
	C974.281067,673.979614 979.745972,670.193115 984.497559,665.856506 
	C990.121826,660.723511 995.487671,655.266296 1001.432495,650.536621 
	C1007.751770,645.509155 1011.004211,638.715271 1013.687622,631.579956 
	C1019.642456,615.746033 1016.448364,597.824890 1024.865601,582.451477 
	C1027.547241,577.553650 1028.795898,571.874146 1031.453857,566.959961 
	C1036.253174,558.086975 1036.711914,546.122070 1048.557007,542.063721 
	C1048.825439,541.971741 1048.999146,541.585510 1049.202759,541.325500 
	C1054.105591,535.062622 1059.235718,528.958313 1063.781372,522.445984 
	C1065.336670,520.217712 1066.238525,516.898193 1066.012573,514.196594 
	C1065.571289,508.920288 1064.125488,503.728027 1063.303833,498.219727 
	C1066.230591,495.518280 1068.936157,493.083496 1071.669922,490.680878 
	C1077.703247,485.378632 1083.738281,480.077972 1089.812256,474.822632 
	C1090.416870,474.299438 1091.264038,473.987915 1092.051147,473.755371 
	C1097.757690,472.068939 1103.386841,469.865692 1109.217896,468.923248 
	C1115.674805,467.879669 1120.620728,464.854004 1125.183960,460.490448 
	C1130.457764,455.447357 1135.865845,450.527710 1141.446411,445.828522 
	C1145.367676,442.526520 1149.726196,439.749481 1153.795776,436.616241 
	C1158.270386,433.171143 1158.100342,431.911469 1153.795044,428.403076 
	C1150.100708,425.392609 1146.710205,422.009521 1143.185303,418.791199 
z"/>
<path fill="#EA59B2" opacity="1.000000" stroke="none" 
	d="
M1143.008301,418.546448 
	C1146.710205,422.009521 1150.100708,425.392609 1153.795044,428.403076 
	C1158.100342,431.911469 1158.270386,433.171143 1153.795776,436.616241 
	C1149.726196,439.749481 1145.367676,442.526520 1141.446411,445.828522 
	C1135.865845,450.527710 1130.457764,455.447357 1125.183960,460.490448 
	C1120.620728,464.854004 1115.674805,467.879669 1109.217896,468.923248 
	C1103.386841,469.865692 1097.757690,472.068939 1092.051147,473.755371 
	C1091.264038,473.987915 1090.416870,474.299438 1089.812256,474.822632 
	C1083.738281,480.077972 1077.703247,485.378632 1071.669922,490.680878 
	C1068.936157,493.083496 1066.230591,495.518280 1062.843140,498.124176 
	C1055.316528,497.318390 1048.487671,495.956146 1041.594604,495.423309 
	C1031.565186,494.648071 1022.008606,495.565796 1015.019592,504.498871 
	C1010.829285,509.854889 1009.468262,509.545319 1004.847778,504.877899 
	C1003.524292,503.540863 1001.604004,502.442993 999.774536,502.011963 
	C977.440186,496.750397 956.825500,486.954681 935.930115,477.916901 
	C927.838318,474.416931 919.813049,470.735596 911.918823,466.812256 
	C899.406738,460.593811 887.010559,454.140533 874.609436,447.701508 
	C871.217468,445.940247 870.447449,443.590790 873.546265,440.632477 
	C874.841858,439.395569 875.819458,437.825531 876.941589,436.406921 
	C877.940063,435.385040 878.938538,434.363190 880.460449,433.216766 
	C881.572205,432.669250 882.160522,432.246246 882.748840,431.823212 
	C883.103149,431.384705 883.457520,430.946198 884.387451,430.288727 
	C885.605530,429.562866 886.248108,429.056000 886.890686,428.549133 
	C886.890686,428.549103 887.055176,428.180847 887.455444,428.045166 
	C888.588928,427.234314 889.322144,426.559143 890.055420,425.883972 
	C890.634521,425.366608 891.213623,424.849213 892.365967,424.137024 
	C893.629639,423.308472 894.320251,422.674683 895.010803,422.040894 
	C895.627563,421.474121 896.244263,420.907349 897.413452,420.164734 
	C898.303345,419.633148 898.640747,419.277374 898.978149,418.921570 
	C899.580383,418.375702 900.182617,417.829803 901.410095,417.022278 
	C902.751526,416.347351 903.528198,416.011902 904.175171,415.509369 
	C920.992798,402.445374 937.828064,389.403809 954.596558,376.276825 
	C984.591187,352.795990 1017.654236,344.982605 1054.389282,357.086090 
	C1072.105103,362.923065 1086.508667,374.370270 1100.582031,386.138031 
	C1101.741455,387.107483 1101.501953,389.596741 1102.499634,390.945709 
	C1104.343262,393.438507 1106.821289,397.722443 1108.684814,397.546631 
	C1116.520386,396.807587 1120.852295,401.856598 1126.020752,405.916565 
	C1131.334229,410.090424 1136.875000,413.974945 1142.316284,417.986053 
	C1142.487915,418.091248 1142.659546,418.196472 1143.008301,418.546448 
z"/>
<path fill="#E25F79" opacity="1.000000" stroke="none" 
	d="
M876.624634,436.457581 
	C875.819458,437.825531 874.841858,439.395569 873.546265,440.632477 
	C870.447449,443.590790 871.217468,445.940247 874.609436,447.701508 
	C887.010559,454.140533 899.406738,460.593811 911.918823,466.812256 
	C919.813049,470.735596 927.838318,474.416931 935.930115,477.916901 
	C956.825500,486.954681 977.440186,496.750397 999.774536,502.011963 
	C1001.604004,502.442993 1003.524292,503.540863 1004.847778,504.877899 
	C1009.468262,509.545319 1010.829285,509.854889 1015.019592,504.498871 
	C1022.008606,495.565796 1031.565186,494.648071 1041.594604,495.423309 
	C1048.487671,495.956146 1055.316528,497.318390 1062.634766,498.405457 
	C1064.125488,503.728027 1065.571289,508.920288 1066.012573,514.196594 
	C1066.238525,516.898193 1065.336670,520.217712 1063.781372,522.445984 
	C1059.235718,528.958313 1054.105591,535.062622 1049.202759,541.325500 
	C1048.999146,541.585510 1048.825439,541.971741 1048.557007,542.063721 
	C1036.711914,546.122070 1036.253174,558.086975 1031.453857,566.959961 
	C1028.795898,571.874146 1027.547241,577.553650 1024.865601,582.451477 
	C1016.448364,597.824890 1019.642456,615.746033 1013.687622,631.579956 
	C1011.004211,638.715271 1007.751770,645.509155 1001.432495,650.536621 
	C995.487671,655.266296 990.121826,660.723511 984.497559,665.856506 
	C979.745972,670.193115 974.281067,673.979614 970.421448,679.000854 
	C966.021667,684.724915 962.814880,691.428528 959.539001,697.932678 
	C957.221252,702.534485 956.717163,702.894287 952.388367,699.730896 
	C947.563965,696.205200 942.692627,692.743713 937.403015,689.132324 
	C936.964294,689.010376 936.793518,688.832825 936.720459,688.575928 
	C935.861694,687.378235 935.075989,686.437500 934.599304,685.323608 
	C938.280151,678.966125 942.467224,673.074341 944.818115,666.523621 
	C947.775757,658.282104 949.707764,649.580444 951.138977,640.921387 
	C951.877991,636.449890 950.787903,631.609436 950.099976,626.998962 
	C949.793762,624.946655 948.444275,623.048889 947.561462,621.083984 
	C943.321655,611.647095 948.537720,603.905945 952.485657,596.198975 
	C954.527893,592.212219 953.945984,590.039246 950.770996,587.293274 
	C945.875671,583.059448 939.729553,579.769470 938.796326,572.143494 
	C938.609253,570.614929 936.318726,569.085083 934.687805,568.040161 
	C929.647034,564.810608 924.452026,561.822205 919.324768,558.727051 
	C900.566650,547.403442 881.899658,535.925598 863.029175,524.792480 
	C846.551575,515.071167 829.802368,505.810669 813.300720,496.129150 
	C811.382263,495.003601 810.277649,492.490967 808.795776,490.621399 
	C817.713135,483.211823 826.514893,475.657410 835.575073,468.426697 
	C849.056885,457.667267 862.721130,447.136383 876.624634,436.457581 
z"/>
<path fill="#50B1A2" opacity="1.000000" stroke="none" 
	d="
M893.310547,842.834534 
	C893.029114,842.594116 892.747620,842.353699 892.134033,841.639648 
	C890.613892,840.394287 889.425964,839.622559 888.237976,838.850830 
	C887.748291,838.487244 887.258606,838.123657 886.427124,837.278015 
	C884.611938,835.742310 883.138611,834.688660 881.665344,833.635010 
	C881.665344,833.635010 881.470703,833.510681 881.271545,833.137085 
	C878.452942,830.807556 875.833496,828.851685 873.214111,826.895813 
	C873.062988,826.796570 872.911926,826.697327 872.435303,826.152710 
	C870.820618,824.759521 869.531616,823.811829 868.242554,822.864075 
	C867.746277,822.519836 867.249939,822.175659 866.403320,821.359985 
	C865.097534,820.224060 864.141968,819.559570 863.186462,818.895081 
	C862.700195,818.556030 862.213989,818.216919 861.381836,817.398193 
	C858.755981,815.236023 856.476074,813.553345 854.196228,811.870728 
	C853.727234,811.470093 853.258301,811.069458 852.428284,810.189880 
	C850.729858,808.796143 849.392395,807.881409 848.054993,806.966614 
	C848.054993,806.966614 847.663940,806.736938 847.371704,806.302856 
	C840.690002,800.233093 834.300476,794.597351 827.910950,788.961609 
	C828.066772,788.479919 828.222656,787.998230 828.378540,787.516541 
	C830.739624,787.321594 833.097961,787.079407 835.462402,786.939331 
	C851.713562,785.975647 867.968079,785.067139 884.217407,784.072754 
	C895.971069,783.353638 907.710083,782.321899 919.472473,781.851379 
	C924.414368,781.653687 925.825256,778.724243 926.281555,774.887512 
	C926.804993,770.486633 926.660828,766.008484 927.117126,761.596069 
	C927.245667,760.353333 928.187866,758.621216 929.229248,758.143677 
	C934.278992,755.827881 939.510620,753.912476 944.630737,751.744080 
	C946.284851,751.043640 947.776672,749.968750 949.376648,749.129822 
	C951.400330,748.068604 953.458740,747.073547 955.739563,746.270508 
	C959.366577,747.689209 962.720154,749.006226 966.157104,750.048401 
	C968.999451,750.910278 971.982178,751.307434 974.827637,752.160950 
	C979.242126,753.485168 980.575867,757.097839 979.161133,760.833069 
	C977.678101,764.748840 974.927856,768.193115 972.664490,771.801514 
	C971.432434,773.765991 968.562988,776.295105 969.055847,777.427673 
	C970.178589,780.007568 972.545044,782.778503 975.088013,783.843323 
	C979.317749,785.614563 984.173706,785.822388 988.592712,787.231812 
	C991.962036,788.306335 996.271973,789.379211 998.048767,791.927307 
	C1002.701477,798.600098 1008.040039,803.812683 1016.008545,805.889526 
	C1024.662964,808.144958 1033.247925,811.200684 1042.055542,812.186157 
	C1051.049561,813.192505 1059.885376,813.343994 1067.476685,819.216370 
	C1070.481079,821.540527 1073.938721,823.309448 1077.289795,825.149292 
	C1087.202881,830.592285 1096.659424,836.472656 1105.031738,844.353333 
	C1111.599243,850.535156 1119.700562,855.087708 1127.120361,860.364136 
	C1107.728760,875.752747 1089.648560,893.103027 1067.317627,904.279724 
	C1033.572876,921.169067 999.664429,919.971985 968.002136,899.610535 
	C947.647461,886.520813 929.149841,870.543518 909.411987,855.367920 
	C907.673645,853.921997 906.343140,852.968750 905.012634,852.015503 
	C905.012634,852.015503 904.618530,851.795227 904.310486,851.420288 
	C903.392700,850.662048 902.782898,850.278687 902.173157,849.895325 
	C901.697937,849.499390 901.222656,849.103455 900.397827,848.234924 
	C899.087463,847.140320 898.126648,846.518250 897.165833,845.896240 
	C896.693176,845.499573 896.220459,845.102844 895.398376,844.274048 
	C894.469482,843.506104 893.890015,843.170349 893.310547,842.834534 
z"/>
<path fill="#4192C7" opacity="1.000000" stroke="none" 
	d="
M1127.449951,860.237915 
	C1119.700562,855.087708 1111.599243,850.535156 1105.031738,844.353333 
	C1096.659424,836.472656 1087.202881,830.592285 1077.289795,825.149292 
	C1073.938721,823.309448 1070.481079,821.540527 1067.476685,819.216370 
	C1059.885376,813.343994 1051.049561,813.192505 1042.055542,812.186157 
	C1033.247925,811.200684 1024.662964,808.144958 1016.008545,805.889526 
	C1008.040039,803.812683 1002.701477,798.600098 998.048767,791.927307 
	C996.271973,789.379211 991.962036,788.306335 988.592712,787.231812 
	C984.173706,785.822388 979.317749,785.614563 975.088013,783.843323 
	C972.545044,782.778503 970.178589,780.007568 969.055847,777.427673 
	C968.562988,776.295105 971.432434,773.765991 972.664490,771.801514 
	C974.927856,768.193115 977.678101,764.748840 979.161133,760.833069 
	C980.575867,757.097839 979.242126,753.485168 974.827637,752.160950 
	C971.982178,751.307434 968.999451,750.910278 966.157104,750.048401 
	C962.720154,749.006226 959.366577,747.689209 955.705505,745.873596 
	C956.696411,740.168274 957.865845,735.053894 959.306274,730.016907 
	C959.567444,729.103516 960.849854,728.356812 961.812012,727.789795 
	C967.344849,724.529236 972.923218,721.345947 978.486084,718.136475 
	C996.456848,726.857178 1015.449402,728.458862 1034.964966,726.089844 
	C1038.363525,725.677246 1041.651855,724.384583 1045.048584,723.921570 
	C1056.101929,722.414978 1059.782227,714.445435 1062.934814,705.158691 
	C1065.432617,697.800415 1069.438477,690.951172 1072.832397,683.903687 
	C1073.254395,683.027283 1073.963013,682.255371 1074.653442,681.546875 
	C1083.929077,672.029114 1093.365845,662.662842 1102.434204,652.952209 
	C1105.338135,649.842590 1107.155518,645.744324 1109.684814,642.253967 
	C1117.486572,631.487549 1125.449097,620.837341 1133.208252,610.040771 
	C1134.726196,607.928650 1135.612305,605.362549 1137.129639,602.896118 
	C1138.537720,603.579407 1139.629272,604.343201 1140.670776,605.170227 
	C1152.372803,614.463379 1164.067261,623.766296 1175.579468,633.328857 
	C1168.723877,639.084473 1162.093140,644.628174 1155.372437,650.060425 
	C1142.294434,660.631165 1129.131714,671.097107 1116.069336,681.687012 
	C1105.601074,690.173706 1095.177856,698.718872 1084.892334,707.424438 
	C1083.848389,708.308044 1083.016113,710.976501 1083.579956,711.960022 
	C1086.046631,716.263245 1088.831177,720.445312 1092.006836,724.248474 
	C1093.136353,725.601074 1095.734131,726.427673 1097.605347,726.336426 
	C1104.655762,725.992981 1111.674805,724.969482 1118.725098,724.691772 
	C1120.249878,724.631775 1123.103638,726.510315 1123.198730,727.671570 
	C1123.541016,731.854614 1122.928101,736.111267 1122.757324,740.343445 
	C1122.698486,741.804932 1122.625366,743.342590 1122.992188,744.731018 
	C1124.466309,750.311584 1125.971191,755.892334 1127.745483,761.382202 
	C1128.757690,764.513794 1130.030518,767.632629 1131.673218,770.475708 
	C1137.015015,779.720642 1143.164307,788.190674 1151.698853,795.037598 
	C1159.191040,801.048279 1165.625610,808.366821 1172.640503,814.987793 
	C1175.689209,817.865295 1178.839600,818.112244 1182.453857,815.301025 
	C1186.758667,811.952698 1191.500977,809.166870 1196.053711,806.137207 
	C1187.818115,812.782593 1179.645996,819.508423 1171.332642,826.054749 
	C1158.084229,836.487000 1144.741699,846.799805 1130.947876,857.396851 
	C1130.059326,857.983582 1129.661865,858.336548 1129.264282,858.689575 
	C1128.769287,859.163574 1128.274414,859.637634 1127.449951,860.237915 
z"/>
<path fill="#357189" opacity="1.000000" stroke="none" 
	d="
M978.145264,717.944519 
	C972.923218,721.345947 967.344849,724.529236 961.812012,727.789795 
	C960.849854,728.356812 959.567444,729.103516 959.306274,730.016907 
	C957.865845,735.053894 956.696411,740.168274 955.468140,745.653076 
	C953.458740,747.073547 951.400330,748.068604 949.376648,749.129822 
	C947.776672,749.968750 946.284851,751.043640 944.630737,751.744080 
	C939.510620,753.912476 934.278992,755.827881 929.229248,758.143677 
	C928.187866,758.621216 927.245667,760.353333 927.117126,761.596069 
	C926.660828,766.008484 926.804993,770.486633 926.281555,774.887512 
	C925.825256,778.724243 924.414368,781.653687 919.472473,781.851379 
	C907.710083,782.321899 895.971069,783.353638 884.217407,784.072754 
	C867.968079,785.067139 851.713562,785.975647 835.462402,786.939331 
	C833.097961,787.079407 830.739624,787.321594 828.378540,787.516541 
	C828.222656,787.998230 828.066772,788.479919 827.910950,788.961609 
	C834.300476,794.597351 840.690002,800.233093 847.182739,806.177612 
	C839.450928,800.625244 831.423035,795.002319 823.825745,788.847656 
	C812.071716,779.325867 799.922729,770.152649 791.266235,757.399109 
	C777.903503,737.711914 777.946960,713.599426 793.183411,695.204956 
	C801.689880,684.935425 812.192505,676.190491 822.445984,667.528503 
	C836.162537,655.940979 850.509827,645.100098 865.034790,633.666992 
	C878.346313,643.413330 891.209351,653.431152 904.103149,663.583008 
	C904.133850,663.716980 904.357788,663.874512 904.357788,663.874512 
	C904.357788,663.874512 904.630676,663.848694 904.784912,663.992798 
	C904.939209,664.136841 905.266418,664.403625 905.249146,664.670410 
	C906.012695,665.551880 906.793518,666.166443 907.942383,666.915283 
	C909.363770,667.816345 910.417114,668.583008 911.510254,669.535339 
	C911.998047,669.942017 912.446106,670.163025 913.214600,670.646118 
	C913.773804,671.046509 914.012634,671.184814 914.314209,671.530334 
	C914.845764,672.026978 915.314636,672.316467 916.082092,672.826904 
	C917.353760,673.810486 918.326904,674.573059 919.395325,675.598145 
	C921.667847,677.364502 923.845093,678.868408 926.274780,680.621094 
	C926.706116,681.024353 926.884949,681.178772 927.147278,681.607300 
	C928.499451,682.746033 929.768127,683.610657 931.311340,684.683899 
	C931.783386,685.010071 931.980896,685.127563 932.281250,685.520752 
	C933.853821,686.808594 935.323669,687.820740 936.793518,688.832825 
	C936.793518,688.832825 936.964294,689.010376 937.071777,689.075806 
	C945.257507,695.487854 953.157104,702.082092 961.480103,708.089600 
	C966.586243,711.775208 972.340942,714.562134 978.145264,717.944519 
z"/>
<path fill="#377DF6" opacity="1.000000" stroke="none" 
	d="
M1196.376221,806.004272 
	C1191.500977,809.166870 1186.758667,811.952698 1182.453857,815.301025 
	C1178.839600,818.112244 1175.689209,817.865295 1172.640503,814.987793 
	C1165.625610,808.366821 1159.191040,801.048279 1151.698853,795.037598 
	C1143.164307,788.190674 1137.015015,779.720642 1131.673218,770.475708 
	C1130.030518,767.632629 1128.757690,764.513794 1127.745483,761.382202 
	C1125.971191,755.892334 1124.466309,750.311584 1122.992188,744.731018 
	C1122.625366,743.342590 1122.698486,741.804932 1122.757324,740.343445 
	C1122.928101,736.111267 1123.541016,731.854614 1123.198730,727.671570 
	C1123.103638,726.510315 1120.249878,724.631775 1118.725098,724.691772 
	C1111.674805,724.969482 1104.655762,725.992981 1097.605347,726.336426 
	C1095.734131,726.427673 1093.136353,725.601074 1092.006836,724.248474 
	C1088.831177,720.445312 1086.046631,716.263245 1083.579956,711.960022 
	C1083.016113,710.976501 1083.848389,708.308044 1084.892334,707.424438 
	C1095.177856,698.718872 1105.601074,690.173706 1116.069336,681.687012 
	C1129.131714,671.097107 1142.294434,660.631165 1155.372437,650.060425 
	C1162.093140,644.628174 1168.723877,639.084473 1175.840576,633.347168 
	C1176.781616,633.088440 1177.277588,633.073669 1177.773438,633.058838 
	C1192.107422,644.454468 1206.582886,655.678223 1220.723022,667.309570 
	C1229.322021,674.382996 1238.216919,681.363525 1245.565308,689.640625 
	C1267.777954,714.660583 1266.779297,744.972290 1242.414795,767.973877 
	C1228.051514,781.533752 1211.994141,793.299011 1196.376221,806.004272 
z"/>
<path fill="#EB6156" opacity="1.000000" stroke="none" 
	d="
M919.300049,675.335693 
	C918.326904,674.573059 917.353760,673.810486 916.031128,672.614136 
	C915.204895,671.894714 914.728210,671.608948 914.251526,671.323181 
	C914.012634,671.184814 913.773804,671.046509 913.165527,670.460083 
	C912.354187,669.791260 911.912292,669.570496 911.470459,669.349670 
	C910.417114,668.583008 909.363770,667.816345 907.916992,666.646851 
	C906.771179,665.630615 906.018799,665.017151 905.266357,664.403687 
	C905.266418,664.403625 904.939209,664.136841 904.749634,663.865967 
	C904.431030,663.435547 904.268433,663.386841 904.072388,663.448975 
	C891.209351,653.431152 878.346313,643.413330 865.245361,633.367310 
	C847.107910,619.014893 829.150146,604.762573 811.332947,590.336731 
	C802.113220,582.871948 793.686401,574.576172 788.116028,563.913147 
	C777.006470,542.646362 780.705750,518.843018 798.442383,500.142212 
	C801.522095,496.895020 804.912231,493.942322 808.477417,490.737518 
	C810.277649,492.490967 811.382263,495.003601 813.300720,496.129150 
	C829.802368,505.810669 846.551575,515.071167 863.029175,524.792480 
	C881.899658,535.925598 900.566650,547.403442 919.324768,558.727051 
	C924.452026,561.822205 929.647034,564.810608 934.687805,568.040161 
	C936.318726,569.085083 938.609253,570.614929 938.796326,572.143494 
	C939.729553,579.769470 945.875671,583.059448 950.770996,587.293274 
	C953.945984,590.039246 954.527893,592.212219 952.485657,596.198975 
	C948.537720,603.905945 943.321655,611.647095 947.561462,621.083984 
	C948.444275,623.048889 949.793762,624.946655 950.099976,626.998962 
	C950.787903,631.609436 951.877991,636.449890 951.138977,640.921387 
	C949.707764,649.580444 947.775757,658.282104 944.818115,666.523621 
	C942.467224,673.074341 938.280151,678.966125 934.244751,685.235107 
	C933.113647,685.294861 932.646057,685.269897 932.178467,685.244995 
	C931.980896,685.127563 931.783386,685.010071 931.220642,684.412109 
	C929.591614,683.065552 928.327698,682.199341 927.063843,681.333191 
	C926.884949,681.178772 926.706116,681.024353 926.174683,680.352783 
	C923.648071,678.335632 921.474060,676.835632 919.300049,675.335693 
z"/>
<path fill="#643A77" opacity="1.000000" stroke="none" 
	d="
M1178.104858,632.833374 
	C1177.277588,633.073669 1176.781616,633.088440 1176.024658,633.084839 
	C1164.067261,623.766296 1152.372803,614.463379 1140.670776,605.170227 
	C1139.629272,604.343201 1138.537720,603.579407 1137.190186,602.497437 
	C1132.276245,598.186279 1127.648926,594.155457 1123.004272,590.144775 
	C1119.984497,587.537170 1116.902588,585.000244 1113.918091,582.353271 
	C1111.891846,580.556091 1111.370239,578.654785 1113.496826,576.375122 
	C1124.800293,564.257812 1136.042236,552.083008 1147.291870,539.915649 
	C1148.758179,538.329712 1150.165649,536.688110 1151.567627,535.044312 
	C1156.575684,529.171753 1162.666260,526.069519 1170.523926,527.895874 
	C1176.127808,529.198364 1179.980347,527.050537 1184.236816,523.281555 
	C1195.278687,513.504456 1206.985474,504.478546 1218.419312,495.143585 
	C1219.448730,494.303101 1220.427734,493.400543 1221.422119,492.517700 
	C1227.457764,487.158325 1227.204712,488.652710 1222.903809,481.509491 
	C1231.471191,489.099884 1240.618530,496.543854 1248.574829,505.095917 
	C1254.683960,511.662506 1258.625244,519.917053 1260.418823,528.985168 
	C1263.421997,544.168579 1260.051514,558.271057 1250.614502,569.926758 
	C1242.526489,579.916260 1232.780151,588.731140 1222.943359,597.096802 
	C1208.492554,609.386475 1193.308105,620.813416 1178.104858,632.833374 
z"/>
<path fill="#A66589" opacity="1.000000" stroke="none" 
	d="
M1142.159668,417.746552 
	C1136.875000,413.974945 1131.334229,410.090424 1126.020752,405.916565 
	C1120.852295,401.856598 1116.520386,396.807587 1108.684814,397.546631 
	C1106.821289,397.722443 1104.343262,393.438507 1102.499634,390.945709 
	C1101.501953,389.596741 1101.741455,387.107483 1100.582031,386.138031 
	C1086.508667,374.370270 1072.105103,362.923065 1054.389282,357.086090 
	C1017.654236,344.982605 984.591187,352.795990 954.596558,376.276825 
	C937.828064,389.403809 920.992798,402.445374 904.175171,415.509369 
	C903.528198,416.011902 902.751526,416.347351 901.736389,416.778992 
	C909.542297,410.204529 917.453613,403.354767 925.794006,397.074738 
	C940.929993,385.677795 955.442627,373.083435 971.787048,363.737122 
	C1006.870239,343.675476 1042.822754,344.905457 1076.660645,366.820068 
	C1096.146484,379.439758 1113.842041,394.829987 1132.281006,409.054138 
	C1135.675293,411.672607 1138.770020,414.679474 1142.159668,417.746552 
z"/>
<path fill="#357189" opacity="1.000000" stroke="none" 
	d="
M873.328735,827.196167 
	C875.833496,828.851685 878.452942,830.807556 881.187012,833.058350 
	C878.682190,831.401001 876.062744,829.448792 873.328735,827.196167 
z"/>
<path fill="#357189" opacity="1.000000" stroke="none" 
	d="
M854.308472,812.175171 
	C856.476074,813.553345 858.755981,815.236023 861.142395,817.223511 
	C858.972900,815.845398 856.696838,814.162476 854.308472,812.175171 
z"/>
<path fill="#357189" opacity="1.000000" stroke="none" 
	d="
M881.790161,833.915100 
	C883.138611,834.688660 884.611938,835.742310 886.192993,837.082520 
	C884.838867,836.311096 883.376953,835.253174 881.790161,833.915100 
z"/>
<path fill="#357189" opacity="1.000000" stroke="none" 
	d="
M868.352905,823.155029 
	C869.531616,823.811829 870.820618,824.759521 872.219482,825.988647 
	C871.040588,825.328674 869.751892,824.387329 868.352905,823.155029 
z"/>
<path fill="#357189" opacity="1.000000" stroke="none" 
	d="
M848.161133,807.267883 
	C849.392395,807.881409 850.729858,808.796143 852.196838,809.985962 
	C850.973328,809.363770 849.620300,808.466492 848.161133,807.267883 
z"/>
<path fill="#357189" opacity="1.000000" stroke="none" 
	d="
M905.144165,852.301697 
	C906.343140,852.968750 907.673645,853.921997 909.137695,855.154907 
	C907.939392,854.485718 906.607544,853.536804 905.144165,852.301697 
z"/>
<path fill="#643A77" opacity="1.000000" stroke="none" 
	d="
M1221.065063,479.545837 
	C1219.786987,478.868866 1218.380615,477.886475 1216.883057,476.583801 
	C1218.173584,477.255798 1219.555054,478.248108 1221.065063,479.545837 
z"/>
<path fill="#357189" opacity="1.000000" stroke="none" 
	d="
M888.370728,839.132568 
	C889.425964,839.622559 890.613892,840.394287 891.940674,841.440186 
	C890.887451,840.947632 889.695496,840.180969 888.370728,839.132568 
z"/>
<path fill="#357189" opacity="1.000000" stroke="none" 
	d="
M897.278198,846.171753 
	C898.126648,846.518250 899.087463,847.140320 900.170776,848.024536 
	C899.325684,847.673584 898.358154,847.060425 897.278198,846.171753 
z"/>
<path fill="#357189" opacity="1.000000" stroke="none" 
	d="
M863.285889,819.182739 
	C864.141968,819.559570 865.097534,820.224060 866.175903,821.160950 
	C865.327576,820.779053 864.356445,820.124756 863.285889,819.182739 
z"/>
<path fill="#A66589" opacity="1.000000" stroke="none" 
	d="
M889.800659,425.868591 
	C889.322144,426.559143 888.588928,427.234314 887.597168,427.901672 
	C888.074341,427.213623 888.810181,426.533447 889.800659,425.868591 
z"/>
<path fill="#A66589" opacity="1.000000" stroke="none" 
	d="
M894.768799,422.024841 
	C894.320251,422.674683 893.629639,423.308472 892.695496,423.930603 
	C893.143494,423.282196 893.835083,422.645477 894.768799,422.024841 
z"/>
<path fill="#A66589" opacity="1.000000" stroke="none" 
	d="
M882.540527,431.832092 
	C882.160522,432.246246 881.572205,432.669250 880.763794,433.025696 
	C881.139893,432.586456 881.736084,432.213715 882.540527,431.832092 
z"/>
<path fill="#A66589" opacity="1.000000" stroke="none" 
	d="
M886.657715,428.597290 
	C886.248108,429.056000 885.605530,429.562866 884.706787,430.008331 
	C885.108704,429.513092 885.766785,429.079285 886.657715,428.597290 
z"/>
<path fill="#357189" opacity="1.000000" stroke="none" 
	d="
M902.298584,850.143311 
	C902.782898,850.278687 903.392700,850.662048 904.121216,851.297241 
	C903.634644,851.163147 903.029297,850.777222 902.298584,850.143311 
z"/>
<path fill="#50B1A2" opacity="1.000000" stroke="none" 
	d="
M1129.466309,858.635498 
	C1129.661865,858.336548 1130.059326,857.983582 1130.595947,857.513062 
	C1130.379517,857.790833 1130.023926,858.186157 1129.466309,858.635498 
z"/>
<path fill="#357189" opacity="1.000000" stroke="none" 
	d="
M893.422974,843.069824 
	C893.890015,843.170349 894.469482,843.506104 895.164917,844.072205 
	C894.699036,843.970093 894.117188,843.637634 893.422974,843.069824 
z"/>
<path fill="#A66589" opacity="1.000000" stroke="none" 
	d="
M898.784790,418.887756 
	C898.640747,419.277374 898.303345,419.633148 897.775391,419.951843 
	C897.920410,419.561127 898.255981,419.207520 898.784790,418.887756 
z"/>
<path fill="#A66589" opacity="1.000000" stroke="none" 
	d="
M932.281250,685.520752 
	C932.646057,685.269897 933.113647,685.294861 933.935791,685.408264 
	C935.075989,686.437500 935.861694,687.378235 936.720459,688.575928 
	C935.323669,687.820740 933.853821,686.808594 932.281250,685.520752 
z"/>
<path fill="#A66589" opacity="1.000000" stroke="none" 
	d="
M919.395325,675.598145 
	C921.474060,676.835632 923.648071,678.335632 925.922241,680.104004 
	C923.845093,678.868408 921.667847,677.364502 919.395325,675.598145 
z"/>
<path fill="#A66589" opacity="1.000000" stroke="none" 
	d="
M927.147278,681.607300 
	C928.327698,682.199341 929.591614,683.065552 930.946167,684.203491 
	C929.768127,683.610657 928.499451,682.746033 927.147278,681.607300 
z"/>
<path fill="#A66589" opacity="1.000000" stroke="none" 
	d="
M905.249146,664.670471 
	C906.018799,665.017151 906.771179,665.630615 907.548950,666.512573 
	C906.793518,666.166443 906.012695,665.551880 905.249146,664.670471 
z"/>
<path fill="#A66589" opacity="1.000000" stroke="none" 
	d="
M914.314209,671.530334 
	C914.728210,671.608948 915.204895,671.894714 915.732605,672.393188 
	C915.314636,672.316467 914.845764,672.026978 914.314209,671.530334 
z"/>
<path fill="#A66589" opacity="1.000000" stroke="none" 
	d="
M911.510254,669.535339 
	C911.912292,669.570496 912.354187,669.791260 912.845093,670.197998 
	C912.446106,670.163025 911.998047,669.942017 911.510254,669.535339 
z"/>
<path fill="#A66589" opacity="1.000000" stroke="none" 
	d="
M904.103149,663.583008 
	C904.268433,663.386841 904.431030,663.435547 904.595398,663.721924 
	C904.630676,663.848694 904.357788,663.874512 904.357788,663.874512 
	C904.357788,663.874512 904.133850,663.716980 904.103149,663.583008 
z"/>
</svg>