<svg version="1.1" id="Layer_1" xmlns="http://www.w3.org/2000/svg" xmlns:xlink="http://www.w3.org/1999/xlink" x="0px" y="0px"
	 width="100%" viewBox="0 0 196 196" enable-background="new 0 0 196 196" xml:space="preserve">
<path fill="#71E9D8" opacity="1.000000" stroke="none" 
	d="
M10.000000,1.000000 
	C69.020897,1.000000 128.041794,1.000000 187.786041,1.205688 
	C190.129044,2.539348 191.748718,3.667320 193.057129,4.973212 
	C188.152664,9.622549 183.464615,14.002099 179.006149,18.604073 
	C176.771484,20.910652 174.955170,23.622505 172.494171,26.047466 
	C171.045822,25.876295 170.052994,25.749834 169.060120,25.749615 
	C122.540298,25.739288 76.020485,25.735989 29.500671,25.757305 
	C28.018112,25.757984 26.535677,26.024382 24.996796,25.816925 
	C18.174982,18.575886 11.409554,11.684826 4.846394,4.522331 
	C6.699109,3.167264 8.349554,2.083632 10.000000,1.000000 
z"/>
<path fill="#71E9D8" opacity="1.000000" stroke="none" 
	d="
M188.000000,197.000000 
	C128.979111,197.000000 69.958206,197.000000 10.214102,196.794403 
	C7.875532,195.460938 6.260174,194.333054 4.954013,193.025101 
	C9.855610,188.370956 14.543017,183.988831 19.000387,179.384048 
	C21.234173,177.076370 23.048754,174.362930 25.506947,171.942383 
	C26.953625,172.120789 27.946270,172.249939 28.938942,172.250168 
	C75.458916,172.260727 121.978897,172.263870 168.498871,172.243393 
	C169.982452,172.242737 171.465927,171.986267 173.006042,172.198059 
	C179.831375,179.433456 186.600098,186.319839 193.163574,193.476425 
	C191.305557,194.831085 189.652786,195.915543 188.000000,197.000000 
z"/>
<path fill="#5ED5C4" opacity="1.000000" stroke="none" 
	d="
M25.052921,171.832993 
	C23.048754,174.362930 21.234173,177.076370 19.000387,179.384048 
	C14.543017,183.988831 9.855610,188.370956 4.695246,192.836823 
	C3.084854,191.219086 2.042427,189.609543 1.000000,188.000000 
	C1.000000,128.979111 1.000000,69.958206 1.209664,10.223381 
	C2.494260,7.937553 3.569193,6.365659 4.644125,4.793766 
	C11.409554,11.684826 18.174982,18.575886 25.035748,26.267803 
	C25.105028,75.323441 25.078976,123.578217 25.052921,171.832993 
z"/>
<path fill="#60D5C4" opacity="1.000000" stroke="none" 
	d="
M193.368820,193.206238 
	C186.600098,186.319839 179.831375,179.433456 172.967896,171.745529 
	C172.898636,122.679680 172.924149,74.415375 172.949646,26.151070 
	C174.955170,23.622505 176.771484,20.910652 179.006149,18.604073 
	C183.464615,14.002099 188.152664,9.622549 193.314117,5.163611 
	C194.921555,6.784060 195.960770,8.392031 197.000000,10.000001 
	C197.000000,69.020897 197.000000,128.041794 196.796555,187.781433 
	C195.518356,190.068878 194.443588,191.637558 193.368820,193.206238 
z"/>
<path fill="#F5FDFC" opacity="1.000000" stroke="none" 
	d="
M4.846394,4.522331 
	C3.569193,6.365659 2.494260,7.937553 1.209664,9.754724 
	C1.000000,7.082645 1.000000,4.165290 1.000000,1.000000 
	C3.670005,1.000000 6.343954,1.000000 9.508951,1.000000 
	C8.349554,2.083632 6.699109,3.167264 4.846394,4.522331 
z"/>
<path fill="#F5FDFC" opacity="1.000000" stroke="none" 
	d="
M197.000000,9.508953 
	C195.960770,8.392031 194.921555,6.784060 193.625366,4.985691 
	C191.748718,3.667320 190.129044,2.539348 188.254700,1.205688 
	C190.917358,1.000000 193.834702,1.000000 197.000000,1.000000 
	C197.000000,3.670005 197.000000,6.343954 197.000000,9.508953 
z"/>
<path fill="#F5FDFC" opacity="1.000000" stroke="none" 
	d="
M193.163574,193.476425 
	C194.443588,191.637558 195.518356,190.068878 196.796555,188.250092 
	C197.000000,190.917358 197.000000,193.834702 197.000000,197.000000 
	C194.330002,197.000000 191.656052,197.000000 188.491058,197.000000 
	C189.652786,195.915543 191.305557,194.831085 193.163574,193.476425 
z"/>
<path fill="#F5FDFC" opacity="1.000000" stroke="none" 
	d="
M1.000000,188.491058 
	C2.042427,189.609543 3.084854,191.219086 4.386049,193.016907 
	C6.260174,194.333054 7.875532,195.460938 9.745445,196.794403 
	C7.082646,197.000000 4.165292,197.000000 1.000000,197.000000 
	C1.000000,194.330002 1.000000,191.656052 1.000000,188.491058 
z"/>
<path fill="#0BB7A3" opacity="1.000000" stroke="none" 
	d="
M172.494171,26.047466 
	C172.924149,74.415375 172.898636,122.679680 172.911301,171.396515 
	C171.465927,171.986267 169.982452,172.242737 168.498871,172.243393 
	C121.978897,172.263870 75.458916,172.260727 28.938942,172.250168 
	C27.946270,172.249939 26.953625,172.120789 25.506945,171.942383 
	C25.078976,123.578217 25.105028,75.323441 25.092133,26.617783 
	C26.535677,26.024382 28.018112,25.757984 29.500671,25.757305 
	C76.020485,25.735989 122.540298,25.739288 169.060120,25.749615 
	C170.052994,25.749834 171.045822,25.876295 172.494171,26.047466 
M54.921589,109.682205 
	C53.545055,102.488007 53.261871,95.423866 54.700020,88.056366 
	C55.794800,82.447906 55.086994,76.448929 54.869495,70.635353 
	C54.699501,66.091461 55.424004,62.876965 60.965942,62.366356 
	C62.306381,62.242855 64.609932,59.138073 64.313148,57.937599 
	C63.903568,56.280895 61.561150,54.130287 59.846958,53.933899 
	C51.874645,53.020538 46.282932,57.946423 45.964699,65.986336 
	C45.688591,72.961899 45.826916,79.956421 45.885670,86.941689 
	C45.919395,90.951744 44.758076,93.526627 40.181713,94.165321 
	C38.659645,94.377739 36.223351,96.946396 36.381016,98.153687 
	C36.605053,99.869232 38.692268,102.473358 40.243118,102.672188 
	C44.959206,103.276848 45.884003,106.016685 45.874733,109.925468 
	C45.858551,116.744865 45.745670,123.569450 45.963264,130.382599 
	C46.221352,138.463684 51.022327,143.239471 58.932259,142.905365 
	C60.862312,142.823837 63.795151,140.977722 64.342163,139.311157 
	C65.291786,136.417938 63.226124,134.342789 59.959126,134.108948 
	C56.198486,133.839798 54.841793,131.678589 54.899239,128.104523 
	C54.992790,122.284256 54.923233,116.461357 54.921589,109.682205 
M152.160889,106.274292 
	C153.807541,105.155495 155.539490,104.141479 157.077606,102.889359 
	C158.719131,101.553062 160.177597,99.991852 161.715973,98.528824 
	C160.270248,97.010216 159.010681,94.478371 157.342285,94.171875 
	C153.126694,93.397438 151.826462,91.230560 151.898560,87.301094 
	C152.023636,80.483955 152.100815,73.656891 151.875504,66.844650 
	C151.594635,58.353035 146.268311,53.231770 138.196030,53.925007 
	C136.424423,54.077152 134.827957,56.268879 133.150833,57.521347 
	C134.549026,59.245392 135.734070,62.165821 137.386948,62.460266 
	C141.667023,63.222736 142.992065,65.462761 142.874741,69.312187 
	C142.849426,70.143013 142.823517,70.979004 142.883270,71.806450 
	C143.523376,80.668945 141.107315,89.804306 145.243378,98.355194 
	C141.179489,106.905998 143.484009,116.025322 142.882858,124.884933 
	C142.826691,125.712852 142.853760,126.548241 142.875229,127.379303 
	C142.972977,131.163528 141.813507,133.541702 137.491714,134.334961 
	C135.802765,134.644974 134.577896,137.483444 133.141663,139.170288 
	C134.940781,140.474991 136.676132,142.790955 138.550064,142.909119 
	C146.609482,143.417328 151.696655,138.174301 151.896561,129.602219 
	C152.071014,122.121490 151.993088,114.634865 152.160889,106.274292 
M74.899239,112.435814 
	C71.864296,114.448456 70.526878,117.406837 72.508530,120.431412 
	C73.636826,122.153542 76.526566,123.832893 78.418922,123.629723 
	C80.301064,123.427635 82.762360,121.164436 83.498184,119.241859 
	C85.203255,114.786743 81.379204,111.588249 74.899239,112.435814 
M113.896523,119.016594 
	C115.922226,120.647545 117.746445,122.972488 120.051369,123.641663 
	C121.373192,124.025421 124.330597,122.088463 125.000168,120.529778 
	C125.760483,118.759857 125.516541,115.667007 124.364738,114.217880 
	C123.212181,112.767838 119.761093,111.478462 118.461372,112.194595 
	C116.411789,113.323906 115.318718,116.189186 113.896523,119.016594 
M98.520203,111.767334 
	C95.074265,112.191849 92.642242,114.170883 93.000343,117.563683 
	C93.218781,119.633293 94.883492,122.181595 96.662819,123.312828 
	C99.614830,125.189598 103.469849,123.113754 104.626427,119.726288 
	C105.810852,116.257256 103.916283,113.420891 98.520203,111.767334 
z"/>
<path fill="#F6FCFC" opacity="1.000000" stroke="none" 
	d="
M54.922050,110.160889 
	C54.923233,116.461357 54.992790,122.284256 54.899239,128.104523 
	C54.841793,131.678589 56.198486,133.839798 59.959126,134.108948 
	C63.226124,134.342789 65.291786,136.417938 64.342163,139.311157 
	C63.795151,140.977722 60.862312,142.823837 58.932259,142.905365 
	C51.022327,143.239471 46.221352,138.463684 45.963264,130.382599 
	C45.745670,123.569450 45.858551,116.744865 45.874733,109.925468 
	C45.884003,106.016685 44.959206,103.276848 40.243118,102.672188 
	C38.692268,102.473358 36.605053,99.869232 36.381016,98.153687 
	C36.223351,96.946396 38.659645,94.377739 40.181713,94.165321 
	C44.758076,93.526627 45.919395,90.951744 45.885670,86.941689 
	C45.826916,79.956421 45.688591,72.961899 45.964699,65.986336 
	C46.282932,57.946423 51.874645,53.020538 59.846958,53.933899 
	C61.561150,54.130287 63.903568,56.280895 64.313148,57.937599 
	C64.609932,59.138073 62.306381,62.242855 60.965942,62.366356 
	C55.424004,62.876965 54.699501,66.091461 54.869495,70.635353 
	C55.086994,76.448929 55.794800,82.447906 54.700020,88.056366 
	C53.261871,95.423866 53.545055,102.488007 54.922050,110.160889 
z"/>
<path fill="#F7FDFC" opacity="1.000000" stroke="none" 
	d="
M152.093781,106.712570 
	C151.993088,114.634865 152.071014,122.121490 151.896561,129.602219 
	C151.696655,138.174301 146.609482,143.417328 138.550064,142.909119 
	C136.676132,142.790955 134.940781,140.474991 133.141663,139.170288 
	C134.577896,137.483444 135.802765,134.644974 137.491714,134.334961 
	C141.813507,133.541702 142.972977,131.163528 142.875229,127.379303 
	C142.853760,126.548241 142.826691,125.712852 142.882858,124.884933 
	C143.484009,116.025322 141.179489,106.905998 145.243378,98.355194 
	C141.107315,89.804306 143.523376,80.668945 142.883270,71.806450 
	C142.823517,70.979004 142.849426,70.143013 142.874741,69.312187 
	C142.992065,65.462761 141.667023,63.222736 137.386948,62.460266 
	C135.734070,62.165821 134.549026,59.245392 133.150833,57.521347 
	C134.827957,56.268879 136.424423,54.077152 138.196030,53.925007 
	C146.268311,53.231770 151.594635,58.353035 151.875504,66.844650 
	C152.100815,73.656891 152.023636,80.483955 151.898560,87.301094 
	C151.826462,91.230560 153.126694,93.397438 157.342285,94.171875 
	C159.010681,94.478371 160.270248,97.010216 161.715973,98.528824 
	C160.177597,99.991852 158.719131,101.553062 157.077606,102.889359 
	C155.539490,104.141479 153.807541,105.155495 152.093781,106.712570 
z"/>
<path fill="#EFFAF9" opacity="1.000000" stroke="none" 
	d="
M75.217224,112.278717 
	C81.379204,111.588249 85.203255,114.786743 83.498184,119.241859 
	C82.762360,121.164436 80.301064,123.427635 78.418922,123.629723 
	C76.526566,123.832893 73.636826,122.153542 72.508530,120.431412 
	C70.526878,117.406837 71.864296,114.448456 75.217224,112.278717 
z"/>
<path fill="#EEFAF9" opacity="1.000000" stroke="none" 
	d="
M113.858643,118.668114 
	C115.318718,116.189186 116.411789,113.323906 118.461372,112.194595 
	C119.761093,111.478462 123.212181,112.767838 124.364738,114.217880 
	C125.516541,115.667007 125.760483,118.759857 125.000168,120.529778 
	C124.330597,122.088463 121.373192,124.025421 120.051369,123.641663 
	C117.746445,122.972488 115.922226,120.647545 113.858643,118.668114 
z"/>
<path fill="#F2FBFA" opacity="1.000000" stroke="none" 
	d="
M98.925232,111.782349 
	C103.916283,113.420891 105.810852,116.257256 104.626427,119.726288 
	C103.469849,123.113754 99.614830,125.189598 96.662819,123.312828 
	C94.883492,122.181595 93.218781,119.633293 93.000343,117.563683 
	C92.642242,114.170883 95.074265,112.191849 98.925232,111.782349 
z"/>
</svg>