<?xml version="1.0" encoding="utf-8"?>
<!-- Generator: Adobe Illustrator 25.0.1, SVG Export Plug-In . SVG Version: 6.00 Build 0)  -->
<svg version="1.0" id="katman_1" xmlns="http://www.w3.org/2000/svg" xmlns:xlink="http://www.w3.org/1999/xlink" x="0px" y="0px"
	 viewBox="0 0 560 400" style="enable-background:new 0 0 560 400;" xml:space="preserve">
<style type="text/css">
	.st0{fill:none;}
	.st1{clip-path:url(#SVGID_2_);}
	.st2{fill:#3F51B5;}
	.st3{clip-path:url(#SVGID_4_);}
	.st4{fill:url(#SVGID_5_);}
	.st5{clip-path:url(#SVGID_7_);}
	.st6{fill:#9FA8DA;}
	.st7{clip-path:url(#SVGID_9_);}
	.st8{fill:#FFFFFF;fill-opacity:0.2;}
	.st9{clip-path:url(#SVGID_11_);}
	.st10{fill:#1A237E;fill-opacity:0.2;}
	.st11{clip-path:url(#SVGID_13_);}
	.st12{fill:#1A237E;fill-opacity:0.1;}
	.st13{clip-path:url(#SVGID_15_);}
	.st14{fill:#F1F1F1;}
	.st15{clip-path:url(#SVGID_17_);}
	.st16{clip-path:url(#SVGID_19_);}
	.st17{fill:url(#SVGID_20_);}
</style>
<g transform="matrix(11.25 0 0 11.25 145 65)">
	<path class="st0" d="M0,0h24v24H0V0z"/>
	<g>
		<defs>
			<path id="SVGID_1_" d="M14,1H5.5C4.7,1,4,1.7,4,2.5v19C4,22.3,4.7,23,5.5,23h13c0.8,0,1.5-0.7,1.5-1.5V7L14,1z"/>
		</defs>
		<clipPath id="SVGID_2_">
			<use xlink:href="#SVGID_1_"  style="overflow:visible;"/>
		</clipPath>
		<g class="st1">
			<path class="st2" d="M14,1H5.5C4.7,1,4,1.7,4,2.5v19C4,22.3,4.7,23,5.5,23h13c0.8,0,1.5-0.7,1.5-1.5V7l-3.5-2.5L14,1z"/>
		</g>
	</g>
	<g>
		<defs>
			<path id="SVGID_3_" d="M14,1H5.5C4.7,1,4,1.7,4,2.5v19C4,22.3,4.7,23,5.5,23h13c0.8,0,1.5-0.7,1.5-1.5V7L14,1z"/>
		</defs>
		<clipPath id="SVGID_4_">
			<use xlink:href="#SVGID_3_"  style="overflow:visible;"/>
		</clipPath>
		<g class="st3">
			
				<linearGradient id="SVGID_5_" gradientUnits="userSpaceOnUse" x1="-76.2735" y1="61.205" x2="-75.2735" y2="61.205" gradientTransform="matrix(0 57.2344 57.2344 0 -3485.8311 4372.5093)">
				<stop  offset="0" style="stop-color:#1A237E;stop-opacity:0.2"/>
				<stop  offset="1" style="stop-color:#1A237E;stop-opacity:2.000000e-02"/>
			</linearGradient>
			<path class="st4" d="M20,7l-5.6-0.4l5.6,5.5V7z"/>
		</g>
	</g>
	<g>
		<defs>
			<path id="SVGID_6_" d="M14,1H5.5C4.7,1,4,1.7,4,2.5v19C4,22.3,4.7,23,5.5,23h13c0.8,0,1.5-0.7,1.5-1.5V7L14,1z"/>
		</defs>
		<clipPath id="SVGID_7_">
			<use xlink:href="#SVGID_6_"  style="overflow:visible;"/>
		</clipPath>
		<g class="st5">
			<path class="st6" d="M14,1v4.5C14,6.3,14.7,7,15.5,7H20L14,1z"/>
		</g>
	</g>
	<g>
		<defs>
			<path id="SVGID_8_" d="M14,1H5.5C4.7,1,4,1.7,4,2.5v19C4,22.3,4.7,23,5.5,23h13c0.8,0,1.5-0.7,1.5-1.5V7L14,1z"/>
		</defs>
		<clipPath id="SVGID_9_">
			<use xlink:href="#SVGID_8_"  style="overflow:visible;"/>
		</clipPath>
		<g class="st7">
			<path class="st8" d="M5.5,1C4.7,1,4,1.7,4,2.5v0.1C4,1.8,4.7,1.1,5.5,1L14,1.1V1L5.5,1z"/>
		</g>
	</g>
	<g>
		<defs>
			<path id="SVGID_10_" d="M14,1H5.5C4.7,1,4,1.7,4,2.5v19C4,22.3,4.7,23,5.5,23h13c0.8,0,1.5-0.7,1.5-1.5V7L14,1z"/>
		</defs>
		<clipPath id="SVGID_11_">
			<use xlink:href="#SVGID_10_"  style="overflow:visible;"/>
		</clipPath>
		<g class="st9">
			<path class="st10" d="M18.5,22.9h-13c-0.8,0-1.5-0.7-1.5-1.5v0.1C4,22.3,4.7,23,5.5,23h13c0.8,0,1.5-0.7,1.5-1.5v-0.1
				C20,22.2,19.3,22.9,18.5,22.9z"/>
		</g>
	</g>
	<g>
		<defs>
			<path id="SVGID_12_" d="M14,1H5.5C4.7,1,4,1.7,4,2.5v19C4,22.3,4.7,23,5.5,23h13c0.8,0,1.5-0.7,1.5-1.5V7L14,1z"/>
		</defs>
		<clipPath id="SVGID_13_">
			<use xlink:href="#SVGID_12_"  style="overflow:visible;"/>
		</clipPath>
		<g class="st11">
			<path class="st12" d="M15.5,7C14.7,7,14,6.3,14,5.5v0.1C14,6.4,14.7,7.1,15.5,7L20,7.1V7H15.5z"/>
		</g>
	</g>
	<g>
		<defs>
			<path id="SVGID_14_" d="M14,1H5.5C4.7,1,4,1.7,4,2.5v19C4,22.3,4.7,23,5.5,23h13c0.8,0,1.5-0.7,1.5-1.5V7L14,1z"/>
		</defs>
		<clipPath id="SVGID_15_">
			<use xlink:href="#SVGID_14_"  style="overflow:visible;"/>
		</clipPath>
		<g class="st13">
			<path class="st14" d="M12.5,15.5H8V19h4.5V15.5z"/>
		</g>
	</g>
	<g>
		<defs>
			<path id="SVGID_16_" d="M14,1H5.5C4.7,1,4,1.7,4,2.5v19C4,22.3,4.7,23,5.5,23h13c0.8,0,1.5-0.7,1.5-1.5V7L14,1z"/>
		</defs>
		<clipPath id="SVGID_17_">
			<use xlink:href="#SVGID_16_"  style="overflow:visible;"/>
		</clipPath>
		<g class="st15">
			<path class="st14" d="M16,15.5h-2.5V19H16V15.5z"/>
		</g>
	</g>
	<g>
		<defs>
			<path id="SVGID_18_" d="M14,1H5.5C4.7,1,4,1.7,4,2.5v19C4,22.3,4.7,23,5.5,23h13c0.8,0,1.5-0.7,1.5-1.5V7L14,1z"/>
		</defs>
		<clipPath id="SVGID_19_">
			<use xlink:href="#SVGID_18_"  style="overflow:visible;"/>
		</clipPath>
		<g class="st16">
			<path class="st14" d="M16,12H8v2.5h8V12z"/>
		</g>
	</g>
	
		<radialGradient id="SVGID_20_" cx="-76.5798" cy="60.1927" r="1" gradientTransform="matrix(290.25 0 0 290.25 22231.8066 -17469.3281)" gradientUnits="userSpaceOnUse">
		<stop  offset="0" style="stop-color:#FFFFFF;stop-opacity:0.1"/>
		<stop  offset="1" style="stop-color:#FFFFFF;stop-opacity:0"/>
	</radialGradient>
	<path class="st17" d="M14,1H5.5C4.7,1,4,1.7,4,2.5v19C4,22.3,4.7,23,5.5,23h13c0.8,0,1.5-0.7,1.5-1.5V7L14,1z"/>
</g>
</svg>
