<?xml version="1.0" encoding="UTF-8" standalone="no"?>
<!-- Created with Inkscape (http://www.inkscape.org/) -->

<svg
   version="1.1"
   id="svg1"
   width="816"
   height="1056"
   viewBox="0 0 816 1056"
   sodipodi:docname="google-sheets-seeklogo.eps"
   xmlns:inkscape="http://www.inkscape.org/namespaces/inkscape"
   xmlns:sodipodi="http://sodipodi.sourceforge.net/DTD/sodipodi-0.dtd"
   xmlns="http://www.w3.org/2000/svg"
   xmlns:svg="http://www.w3.org/2000/svg">
  <defs
     id="defs1" />
  <sodipodi:namedview
     id="namedview1"
     pagecolor="#ffffff"
     bordercolor="#000000"
     borderopacity="0.25"
     inkscape:showpageshadow="2"
     inkscape:pageopacity="0.0"
     inkscape:pagecheckerboard="0"
     inkscape:deskcolor="#d1d1d1">
    <inkscape:page
       x="0"
       y="0"
       inkscape:label="1"
       id="page1"
       width="816"
       height="1056"
       margin="0"
       bleed="0" />
  </sodipodi:namedview>
  <g
     id="g1"
     inkscape:groupmode="layer"
     inkscape:label="1">
    <path
       id="path1"
       d="m 3960,2852.2 c 0,-79.95 -64.83,-144.77 -144.77,-144.77 H 2304.77 c -79.94,0 -144.77,64.82 -144.77,144.77 v 2215 c 0,79.94 64.83,144.77 144.77,144.77 h 971.18 L 3960,4511.33 V 2852.2"
       style="fill:#23a566;fill-opacity:1;fill-rule:nonzero;stroke:none"
       transform="matrix(0.13333333,0,0,-0.13333333,0,1056)" />
    <path
       id="path2"
       d="m 3351.35,4529.11 608.65,-581.48 -1.79,564.6 -1.03,0.03 h -537.67 c -24.5,0 -47.57,6.1 -67.8,16.84 l -0.36,0.01"
       style="fill:#1c8f5a;fill-opacity:1;fill-rule:nonzero;stroke:none"
       transform="matrix(0.13333333,0,0,-0.13333333,0,1056)" />
    <path
       id="path3"
       d="m 3960,4512.26 h -540.49 c -79.94,0 -144.77,64.83 -144.77,144.77 v 555.55 L 3960,4512.26"
       style="fill:#8ed1b1;fill-opacity:1;fill-rule:nonzero;stroke:none"
       transform="matrix(0.13333333,0,0,-0.13333333,0,1056)" />
    <path
       id="path4"
       d="m 3528.09,3170.69 h -936.18 v 810.72 h 936.18 z m -410.2,694.9 v -144.77 h 294.38 v 144.77 z m 0,-231.63 v -135.13 h 294.38 v 135.13 z m 0,-221.99 v -125.46 h 294.38 v 125.46 z m -115.81,-125.46 v 125.46 h -294.35 v -125.46 z m 0,212.32 v 135.13 h -294.35 v -135.13 z m 0,221.99 v 144.77 h -294.35 v -144.77 h 294.35"
       style="fill:#ffffff;fill-opacity:1;fill-rule:evenodd;stroke:none"
       transform="matrix(0.13333333,0,0,-0.13333333,0,1056)" />
  </g>
</svg>
