<?xml version="1.0" encoding="UTF-8"?>
<svg version="1.1" xmlns="http://www.w3.org/2000/svg" width="587" height="230">
<path d="M0 0 C0.79148438 -0.0033284 1.58296875 -0.0066568 2.3984375 -0.01008606 C4.07291075 -0.01515165 5.7473941 -0.0174945 7.421875 -0.01733398 C9.98975135 -0.01952252 12.55719959 -0.03768734 15.125 -0.05664062 C16.74999853 -0.05957416 18.3749991 -0.06155922 20 -0.0625 C21.15628906 -0.07327827 21.15628906 -0.07327827 22.3359375 -0.08427429 C27.7711728 -0.06085845 27.7711728 -0.06085845 30 2.16796875 C30.24050903 4.95205688 30.24050903 4.95205688 30.22705078 8.54541016 C30.22734283 9.19919144 30.22763489 9.85297272 30.22793579 10.52656555 C30.22654065 12.69102171 30.2109712 14.85513511 30.1953125 17.01953125 C30.19158302 18.51882743 30.18873574 20.01812605 30.18673706 21.51742554 C30.17909548 25.46633618 30.1594426 29.41510004 30.1373291 33.36395264 C30.1168819 37.39235447 30.10773776 41.42077999 30.09765625 45.44921875 C30.07619711 53.35553616 30.04205495 61.2617342 30 69.16796875 C30.66821777 68.69020996 31.33643555 68.21245117 32.02490234 67.72021484 C32.91129395 67.09195801 33.79768555 66.46370117 34.7109375 65.81640625 C35.58540527 65.19427246 36.45987305 64.57213867 37.36083984 63.93115234 C43.51487884 59.81973055 49.55618769 57.46939073 57 57.16796875 C57.9178125 57.12800781 58.835625 57.08804688 59.78125 57.046875 C72.95097469 56.75836299 84.29308807 59.25416428 95 67.16796875 C95.55300781 67.5753125 96.10601562 67.98265625 96.67578125 68.40234375 C111.19382053 79.86225946 116.32731307 98.22741656 118.43115234 115.83178711 C120.93685234 139.7992299 118.69374677 166.28045914 104 186.16796875 C103.51660156 186.83441406 103.03320312 187.50085938 102.53515625 188.1875 C95.64354873 196.94995942 84.00247566 203.33352853 73 204.98046875 C71.66852485 205.0745855 70.33435394 205.13356552 69 205.16796875 C68.06285156 205.20664063 67.12570313 205.2453125 66.16015625 205.28515625 C59.81250127 205.42923921 54.0766324 205.03190032 48 203.16796875 C47.21109375 202.93464844 46.4221875 202.70132813 45.609375 202.4609375 C38.19663893 199.90843876 32.80423369 195.33219188 27 190.16796875 C26.93941406 190.95042969 26.87882812 191.73289063 26.81640625 192.5390625 C26.73261719 193.55097656 26.64882812 194.56289062 26.5625 195.60546875 C26.48128906 196.61480469 26.40007812 197.62414062 26.31640625 198.6640625 C26 201.16796875 26 201.16796875 25 202.16796875 C13.45 202.16796875 1.9 202.16796875 -10 202.16796875 C-10 135.83796875 -10 69.50796875 -10 1.16796875 C-6.84665706 -0.40870272 -3.46237759 0.00499834 0 0 Z M31.47772217 97.60693359 C28.51000141 102.75028013 29.00670467 108.4405737 29.0703125 114.23046875 C29.06558679 115.58993375 29.05878458 116.94939294 29.05001831 118.30883789 C29.03974527 121.14689904 29.05453753 123.98340948 29.08740234 126.82128906 C29.12729277 130.44012378 29.10430243 134.05532481 29.0623951 137.67402649 C29.03696951 140.47801575 29.04520817 143.2811583 29.06328964 146.08517456 C29.07015947 148.06144603 29.04908442 150.03775185 29.02737427 152.01391602 C29.15777168 159.19333185 29.877099 163.50438946 35.04367065 168.66821289 C42.23061679 174.17784991 50.1727983 175.1663557 59 174.16796875 C65.2837976 172.81773125 69.52804699 169.8457525 73.12109375 164.5 C79.42730468 154.03584779 79.18126071 143.13514568 79.1875 131.29296875 C79.20586914 129.46958984 79.20586914 129.46958984 79.22460938 127.609375 C79.24362505 115.85768672 77.96976292 104.5547462 70.75 94.85546875 C65.26116176 89.49137683 60.78023381 87.91746445 53.0625 87.66796875 C43.78826371 87.98503666 37.51498678 90.46187884 31.47772217 97.60693359 Z " fill="#040202" transform="translate(165,9.83203125)"/>
<path d="M0 0 C4.31248609 -0.02886537 8.62494762 -0.04675255 12.9375 -0.0625 C14.16919922 -0.07087891 15.40089844 -0.07925781 16.66992188 -0.08789062 C17.83974609 -0.09111328 19.00957031 -0.09433594 20.21484375 -0.09765625 C21.84087524 -0.10551147 21.84087524 -0.10551147 23.49975586 -0.11352539 C26 0 26 0 27 1 C27.096937 3.15159726 27.12186783 5.30644111 27.12025452 7.46022034 C27.12110894 8.14302801 27.12196337 8.82583568 27.12284368 9.52933449 C27.12450043 11.83411691 27.11897397 14.13882772 27.11352539 16.44360352 C27.11324353 18.08905028 27.11340122 19.73449716 27.1139679 21.37994385 C27.11425593 25.86115759 27.10835821 30.34234481 27.10139394 34.82355237 C27.09516142 39.50142105 27.09455668 44.17929028 27.09336853 48.85716248 C27.09025491 57.72175168 27.08204111 66.58632862 27.07201904 75.45091242 C27.06085885 85.54022202 27.05534769 95.6295322 27.05032361 105.71884644 C27.03985852 126.47923782 27.02225849 147.23961814 27 168 C28.09802948 167.99777939 29.19605896 167.99555878 30.32736206 167.99327087 C40.65747139 167.97303014 50.98757671 167.95802335 61.31770134 167.94818783 C66.62896422 167.94296138 71.94021115 167.93586802 77.25146484 167.92456055 C82.37372114 167.91372325 87.49596204 167.90772136 92.61822891 167.90512276 C94.5759213 167.90327004 96.53361281 167.89965233 98.49129868 167.89426994 C101.22582595 167.88704836 103.960289 167.88600954 106.69482422 167.88647461 C107.91833588 167.8810817 107.91833588 167.8810817 109.16656494 167.87557983 C114.77189568 167.88594784 114.77189568 167.88594784 117 169 C117.02888146 172.31248187 117.04675799 175.62493167 117.0625 178.9375 C117.07087891 179.88302734 117.07925781 180.82855469 117.08789062 181.80273438 C117.09111328 182.70185547 117.09433594 183.60097656 117.09765625 184.52734375 C117.10551147 185.77632446 117.10551147 185.77632446 117.11352539 187.05053711 C117 189 117 189 116 190 C114.49448826 190.09575309 112.9844897 190.12188187 111.47593689 190.12025452 C110.00981209 190.12231651 110.00981209 190.12231651 108.5140686 190.12442017 C107.43297821 190.12082489 106.35188782 190.11722961 105.23803711 190.11352539 C103.54069679 190.11374443 103.54069679 190.11374443 101.80906677 190.1139679 C98.04847329 190.11326819 94.28792863 190.10547311 90.52734375 190.09765625 C87.92802457 190.09579227 85.32870503 190.09436828 82.72938538 190.09336853 C76.57411423 190.08993341 70.4188634 190.08204256 64.26359993 190.07201904 C57.25766654 190.06085694 50.25173233 190.05534721 43.24579227 190.05032361 C28.83051867 190.03985992 14.41525996 190.02226108 0 190 C-1.17154585 186.48536244 -1.13854818 183.32971732 -1.12698364 179.67407227 C-1.12854363 178.92225205 -1.13010362 178.17043184 -1.13171089 177.3958292 C-1.13570872 174.86933512 -1.13253593 172.34290081 -1.12939453 169.81640625 C-1.13074911 168.00804611 -1.13252936 166.19968624 -1.13470459 164.3913269 C-1.13927217 159.47409771 -1.13749212 154.55688945 -1.1343255 149.63965988 C-1.13179844 144.50008842 -1.13414041 139.36051879 -1.13571167 134.22094727 C-1.13753235 125.58902667 -1.13512972 116.95711462 -1.13037109 108.32519531 C-1.12492867 98.33738679 -1.1266914 88.34959868 -1.1321975 78.36179066 C-1.13673152 69.79529807 -1.13737776 61.22881163 -1.13475883 52.66231823 C-1.13319765 47.54205681 -1.13299795 42.421805 -1.13629532 37.30154419 C-1.13917821 32.48845588 -1.13719059 27.67539395 -1.13140106 22.8623085 C-1.13007572 21.09297861 -1.13046377 19.3236465 -1.13266373 17.55431747 C-1.13538404 15.14482397 -1.13198321 12.73541576 -1.12698364 10.32592773 C-1.12921436 9.62077813 -1.13144509 8.91562853 -1.13374341 8.18911076 C-1.1215547 5.17404078 -0.96218469 2.88655407 0 0 Z " fill="#060405" transform="translate(452,22)"/>
<path d="M0 0 C1.27689697 0.56944336 1.27689697 0.56944336 2.57958984 1.15039062 C4.01818359 1.78460938 4.01818359 1.78460938 5.48583984 2.43164062 C6.99791016 3.11226563 6.99791016 3.11226563 8.54052734 3.80664062 C9.49443359 4.22945313 10.44833984 4.65226562 11.43115234 5.08789062 C13.47126802 5.99221631 15.5100947 6.8994536 17.54785156 7.80908203 C21.17982073 9.42416822 24.81982272 11.02037261 28.46240234 12.61132812 C34.44225076 15.22368111 40.41854035 17.84397753 46.39208984 20.47070312 C49.77487178 21.95775183 53.15769997 23.4446953 56.54052734 24.93164062 C57.42329346 25.31971893 58.30605957 25.70779724 59.21557617 26.1076355 C68.54056311 30.20606345 77.86840822 34.29705916 87.22021484 38.33398438 C88.28219589 38.79260864 88.28219589 38.79260864 89.3656311 39.26049805 C92.65623434 40.68079806 95.94820322 42.09781345 99.2421875 43.51025391 C100.38220215 44.00122559 101.5222168 44.49219727 102.69677734 44.99804688 C103.68742187 45.42287354 104.67806641 45.8477002 105.69873047 46.28540039 C107.91552734 47.30664062 107.91552734 47.30664062 108.91552734 48.30664062 C109.00222166 49.79535922 109.02256228 51.28808562 109.01318359 52.77929688 C109.00834961 54.12797852 109.00834961 54.12797852 109.00341797 55.50390625 C108.99084961 56.92219727 108.99084961 56.92219727 108.97802734 58.36914062 C108.97351563 59.31853516 108.96900391 60.26792969 108.96435547 61.24609375 C108.95252845 63.59967128 108.9360476 65.9531254 108.91552734 68.30664062 C96.05103794 74.29151971 83.13262336 80.1287301 70.10302734 85.74414062 C55.99291774 91.82613494 41.94601748 98.04292202 27.91552734 104.30664062 C23.52055059 106.26818387 19.12494568 108.22830747 14.72836304 110.18624878 C12.95340413 110.9772608 11.1792081 111.76998395 9.4050293 112.56274414 C7.80147583 113.27708618 7.80147583 113.27708618 6.16552734 114.00585938 C5.22193359 114.42697998 4.27833984 114.84810059 3.30615234 115.28198242 C0.91552734 116.30664062 0.91552734 116.30664062 -2.08447266 117.30664062 C-2.74447266 116.97664063 -3.40447266 116.64664063 -4.08447266 116.30664062 C-4.22939985 112.36952625 -4.31841802 108.43309438 -4.39697266 104.49414062 C-4.43886719 103.37458984 -4.48076172 102.25503906 -4.52392578 101.1015625 C-4.54003906 100.02841797 -4.55615234 98.95527344 -4.57275391 97.84960938 C-4.59893799 96.85985107 -4.62512207 95.87009277 -4.65209961 94.8503418 C-4.08447266 92.30664062 -4.08447266 92.30664062 -1.93310547 90.6184082 C1.01652833 89.26013066 3.96251879 87.97178433 6.98193359 86.77539062 C8.77268311 86.06237793 8.77268311 86.06237793 10.59960938 85.33496094 C11.89237162 84.82540983 13.18517875 84.31597261 14.47802734 83.80664062 C15.82044692 83.27410173 17.16273008 82.74121887 18.50488281 82.20800781 C22.63912806 80.56751039 26.77683067 78.93587032 30.91552734 77.30664062 C31.55532532 77.05470947 32.19512329 76.80277832 32.85430908 76.54321289 C38.23879367 74.42350447 43.62469608 72.30742662 49.01245117 70.19604492 C58.99971706 66.28142737 68.96287537 62.30834055 78.91552734 58.30664062 C73.25792937 55.36936024 67.58704452 52.92240459 61.61474609 50.70507812 C59.74925644 50.00317552 57.8838642 49.301014 56.01855469 48.59863281 C55.03111267 48.22830933 54.04367065 47.85798584 53.02630615 47.47644043 C44.07804066 44.11146983 35.15282089 40.68516859 26.22436523 37.26806641 C23.86020939 36.36440122 21.49527806 35.46276265 19.12963867 34.56298828 C15.66700465 33.2455766 12.20703694 31.92137552 8.74755859 30.59570312 C7.68632278 30.19364655 6.62508698 29.79158997 5.5316925 29.37734985 C4.55854599 29.00290741 3.58539948 28.62846497 2.58276367 28.24267578 C1.72677078 27.91594879 0.87077789 27.5892218 -0.01115417 27.25259399 C-2.08447266 26.30664062 -2.08447266 26.30664062 -4.08447266 24.30664062 C-4.31152344 21.87646484 -4.31152344 21.87646484 -4.27978516 18.86132812 C-4.27333984 17.78496094 -4.26689453 16.70859375 -4.26025391 15.59960938 C-4.24349609 14.47167969 -4.22673828 13.34375 -4.20947266 12.18164062 C-4.20044922 11.04597656 -4.19142578 9.9103125 -4.18212891 8.74023438 C-4.15850364 5.92882764 -4.12556279 3.11783764 -4.08447266 0.30664062 C-2.08447266 -0.69335938 -2.08447266 -0.69335938 0 0 Z " fill="#040303" transform="translate(312.08447265625,68.693359375)"/>
<path d="M0 0 C0 8.25 0 16.5 0 25 C-8.48554115 28.99040144 -17.01646291 32.72115234 -25.71899414 36.21060181 C-29.17345869 37.59589007 -32.62353603 38.99204318 -36.07421875 40.38671875 C-36.79213593 40.6765715 -37.5100531 40.96642426 -38.24972534 41.26506042 C-46.84967018 44.74064917 -55.42498339 48.27595952 -64 51.8125 C-64.7576767 52.12485596 -65.51535339 52.43721191 -66.29598999 52.7590332 C-70.53109033 54.5049805 -74.76576542 56.25195417 -79 58 C-70.70866682 61.90845465 -62.26900735 65.35990847 -53.75106812 68.73324585 C-49.89022277 70.26270861 -46.03328691 71.80198198 -42.17578125 73.33984375 C-41.40224808 73.64797501 -40.6287149 73.95610626 -39.83174133 74.27357483 C-32.43991527 77.21935411 -25.05981924 80.19326411 -17.6875 83.1875 C-16.03621094 83.85483154 -16.03621094 83.85483154 -14.3515625 84.53564453 C-13.33191406 84.95056152 -12.31226562 85.36547852 -11.26171875 85.79296875 C-10.38475342 86.1489917 -9.50778809 86.50501465 -8.60424805 86.87182617 C-5.68527016 88.13634261 -2.84526747 89.57736626 0 91 C0 99.25 0 107.5 0 116 C-3.82075618 117.27358539 -5.30805192 116.14765543 -8.79907227 114.44702148 C-9.58725342 114.05200439 -10.37543457 113.6569873 -11.1875 113.25 C-12.90807946 112.4111695 -14.62947333 111.574008 -16.3515625 110.73828125 C-17.26711914 110.29178223 -18.18267578 109.8452832 -19.12597656 109.38525391 C-24.07323446 107.0007193 -29.06741893 104.71972501 -34.0625 102.4375 C-35.58846802 101.73838501 -35.58846802 101.73838501 -37.14526367 101.02514648 C-43.24244337 98.23824132 -49.36195887 95.50793868 -55.5 92.8125 C-61.80261893 90.04285888 -67.96215639 87.05968341 -74.09472656 83.93334961 C-78.74646314 81.57908881 -83.46046402 79.4331242 -88.25 77.375 C-107.44325875 69.11348249 -107.44325875 69.11348249 -109 66 C-109.17704592 63.35882311 -109.27741548 60.76803404 -109.3125 58.125 C-109.34150391 57.40441406 -109.37050781 56.68382812 -109.40039062 55.94140625 C-109.43819249 52.78349634 -109.44586306 50.59038067 -107.50561523 48.02124023 C-104.10099508 45.27478693 -100.45796551 43.62816958 -96.484375 41.83984375 C-95.64525574 41.45367386 -94.80613647 41.06750397 -93.94158936 40.66963196 C-91.21483339 39.41715578 -88.48255598 38.17726415 -85.75 36.9375 C-83.86096014 36.07274352 -81.97228952 35.20717997 -80.08398438 34.34082031 C-76.37522543 32.6408523 -72.66435343 30.94565693 -68.95117188 29.25537109 C-64.99969215 27.45660632 -61.05266889 25.6486668 -57.109375 23.83203125 C-48.53874632 19.88480307 -39.95070153 15.97613969 -31.359375 12.07421875 C-30.60696533 11.73244598 -29.85455566 11.39067322 -29.0793457 11.0385437 C-25.34061085 9.34044006 -21.60141815 7.64335906 -17.86132812 5.94824219 C-16.49608804 5.32878863 -15.1308534 4.70932306 -13.765625 4.08984375 C-13.14073181 3.80703049 -12.51583862 3.52421722 -11.87200928 3.23283386 C-9.4560919 2.13593771 -7.07923118 1.0445048 -4.76464844 -0.25561523 C-3 -1 -3 -1 0 0 Z " fill="#060404" transform="translate(123,69)"/>
<path d="M0 0 C7.17387237 6.01486235 7.04964262 20.08788752 7.83886719 28.85839844 C9.55108763 51.61536469 6.87582829 76.21951652 -7 95 C-7.48339844 95.66644531 -7.96679688 96.33289063 -8.46484375 97.01953125 C-12.85049503 102.59574714 -18.90736721 107.61998548 -26 109 C-23.96142719 106.8104218 -22.17986686 105.10146336 -19.5625 103.625 C-16.88736744 101.92857447 -15.20119848 100.01743443 -13.25390625 97.5390625 C-12 96 -12 96 -9.4375 93.5 C-4.35467977 88.28685104 -2.5237338 84.09091592 -1.58984375 76.9765625 C-1.09306679 74.46964829 -0.45233378 72.47749107 0.484375 70.125 C8.57605957 49.29817705 4.54260728 21.21353497 0 0 Z " fill="#081229" transform="translate(276,101)"/>
<path d="M0 0 C0.99 0.495 0.99 0.495 2 1 C2 23.11 2 45.22 2 68 C5.3 65.69 8.6 63.38 12 61 C12.66 61.33 13.32 61.66 14 62 C12.54634731 63.17249353 11.08692581 64.33783816 9.625 65.5 C8.40683594 66.47453125 8.40683594 66.47453125 7.1640625 67.46875 C5 69 5 69 3 69 C3 69.66 3 70.32 3 71 C2.01 71 1.02 71 0 71 C0 47.57 0 24.14 0 0 Z " fill="#17314D" transform="translate(193,11)"/>
<path d="M0 0 C1.35639482 2.71278964 1.07564358 4.77147881 1.01831055 7.80737305 C0.99886887 9.02591476 0.97942719 10.24445648 0.95939636 11.49992371 C0.94105271 12.47988847 0.94105271 12.47988847 0.92233849 13.4796505 C0.86161436 16.94389767 0.83098789 20.4084712 0.79492188 23.87304688 C0.74708391 28.27995263 0.69053596 32.6862294 0.60229492 37.0925293 C0.53174715 40.65453656 0.49101114 44.21582358 0.46967506 47.77845192 C0.44958352 49.78773919 0.39801599 51.79663262 0.34587097 53.80534363 C0.23828047 61.65457468 0.23828047 61.65457468 3.90942383 68.32348633 C5.58601563 69.9413159 6.91367416 70.95683708 9 72 C8.505 72.99 8.505 72.99 8 74 C7.236875 73.360625 6.47375 72.72125 5.6875 72.0625 C3.11753287 69.85767219 3.11753287 69.85767219 0 69 C-0.3721042 67.67696283 -0.70630173 66.34262065 -1 65 C-1.66 64.67 -2.32 64.34 -3 64 C-2.91564858 56.09822586 -2.82078592 48.19667794 -2.71247292 40.29519939 C-2.66251059 36.62628148 -2.61618073 32.95739235 -2.578125 29.28833008 C-2.54127109 25.74798255 -2.49491123 22.20787587 -2.44193649 18.66773415 C-2.41436377 16.65867083 -2.39665674 14.64948001 -2.37905884 12.64030457 C-2.35918915 11.41926529 -2.33931946 10.19822601 -2.31884766 8.94018555 C-2.30552399 7.86318893 -2.29220032 6.78619232 -2.2784729 5.67655945 C-2 3 -2 3 0 0 Z " fill="#122841" transform="translate(195,108)"/>
<path d="M0 0 C0.99 0.33 1.98 0.66 3 1 C3 9.25 3 17.5 3 26 C-0.96 27.98 -0.96 27.98 -5 30 C-5.99 29.67 -6.98 29.34 -8 29 C-6.68 28.67 -5.36 28.34 -4 28 C-4 27.34 -4 26.68 -4 26 C-3.01 26 -2.02 26 -1 26 C-1 18.41 -1 10.82 -1 3 C-2.65 3.33 -4.3 3.66 -6 4 C-4.03617993 2.49440461 -2.21736634 1.10868317 0 0 Z " fill="#0B132C" transform="translate(120,68)"/>
<path d="M0 0 C7.15530563 5.99929525 7.05071773 20.03564367 7.84326172 28.78808594 C8.12572232 32.77421214 8.2196286 36.75474373 8.25 40.75 C8.25926514 41.5126416 8.26853027 42.2752832 8.27807617 43.06103516 C8.25453371 47.17034893 7.88554005 49.2289199 6 53 C6 44.42 6 35.84 6 27 C5.34 27 4.68 27 4 27 C3.91435791 26.35973877 3.82871582 25.71947754 3.74047852 25.05981445 C3.34947885 22.14381763 2.95601325 19.22815863 2.5625 16.3125 C2.42779297 15.30509766 2.29308594 14.29769531 2.15429688 13.25976562 C2.02216797 12.28330078 1.89003906 11.30683594 1.75390625 10.30078125 C1.63345947 9.40528564 1.5130127 8.50979004 1.38891602 7.5871582 C1.00562829 5.03744067 0.5269857 2.52356549 0 0 Z " fill="#0B1E4B" transform="translate(276,101)"/>
<path d="M0 0 C0 0.66 0 1.32 0 2 C-1.546875 2.8353125 -1.546875 2.8353125 -3.125 3.6875 C-7.19802358 6.0137594 -11.85371001 8.70742002 -14 13 C-14.11982257 14.87844908 -14.17729161 16.76100831 -14.20532227 18.64306641 C-14.22526749 19.82413971 -14.24521271 21.00521301 -14.26576233 22.22207642 C-14.28247482 23.50230682 -14.29918732 24.78253723 -14.31640625 26.1015625 C-14.33718735 27.40829926 -14.35796844 28.71503601 -14.37937927 30.06137085 C-14.43459294 33.536689 -14.48400525 37.01206653 -14.53222656 40.48748779 C-14.58244677 44.033379 -14.63813012 47.5791839 -14.69335938 51.125 C-14.80093228 58.0832585 -14.90237917 65.04159496 -15 72 C-15.33 72 -15.66 72 -16 72 C-16.04635853 64.11568572 -16.08188702 56.23142848 -16.10362434 48.34701157 C-16.11405763 44.68588188 -16.12820844 41.02484551 -16.15087891 37.36376953 C-16.17262364 33.83004083 -16.18457205 30.29640184 -16.18975449 26.76261139 C-16.19524344 24.75957783 -16.21085381 22.75658031 -16.22659302 20.75360107 C-16.22674408 19.53263733 -16.22689514 18.31167358 -16.22705078 17.05371094 C-16.231492 15.97893494 -16.23593323 14.90415894 -16.24050903 13.79681396 C-15.99752635 10.9712346 -15.58413772 9.33605601 -14 7 C-12.33333333 6.33333333 -10.66666667 5.66666667 -9 5 C-7.86649466 2.98330173 -7.86649466 2.98330173 -7 1 C-4 0 -4 0 0 0 Z " fill="#00031D" transform="translate(208,98)"/>
<path d="M0 0 C0.99 0.33 1.98 0.66 3 1 C2.67 1.66 2.34 2.32 2 3 C1.90496029 4.41286385 1.86927147 5.8300385 1.8671875 7.24609375 C1.86525391 8.50196289 1.86525391 8.50196289 1.86328125 9.78320312 C1.86714844 10.65912109 1.87101562 11.53503906 1.875 12.4375 C1.87113281 13.30955078 1.86726563 14.18160156 1.86328125 15.08007812 C1.86457031 15.91861328 1.86585938 16.75714844 1.8671875 17.62109375 C1.86831543 18.3886499 1.86944336 19.15620605 1.87060547 19.94702148 C1.92473656 22.20075403 1.92473656 22.20075403 3 25 C5.01508358 25.73323796 5.01508358 25.73323796 7 26 C7 26.66 7 27.32 7 28 C8.32 28.66 9.64 29.32 11 30 C6.33939297 29.44516583 1.45003386 28.45003386 -2 25 C-2.08726223 23.21928754 -2.10699041 21.4351686 -2.09765625 19.65234375 C-2.09443359 18.57275391 -2.09121094 17.49316406 -2.08789062 16.38085938 C-2.07951172 15.24455078 -2.07113281 14.10824219 -2.0625 12.9375 C-2.05798828 11.79732422 -2.05347656 10.65714844 -2.04882812 9.48242188 C-2.03699747 6.65489649 -2.0205141 3.8274736 -2 1 C-1.34 0.67 -0.68 0.34 0 0 Z " fill="#543014" transform="translate(310,68)"/>
<path d="M0 0 C1.32 0 2.64 0 4 0 C4 6.6 4 13.2 4 20 C2.68 20.33 1.36 20.66 0 21 C0 14.07 0 7.14 0 0 Z " fill="#091030" transform="translate(565,191)"/>
<path d="M0 0 C1.32 0.33 2.64 0.66 4 1 C4 7.6 4 14.2 4 21 C3.34 21 2.68 21 2 21 C1.97494385 20.43490723 1.9498877 19.86981445 1.92407227 19.28759766 C1.80820044 16.73316258 1.68543463 14.1791045 1.5625 11.625 C1.52318359 10.73554687 1.48386719 9.84609375 1.44335938 8.9296875 C1.38051758 7.65351562 1.38051758 7.65351562 1.31640625 6.3515625 C1.27974854 5.56604004 1.24309082 4.78051758 1.20532227 3.97119141 C1.109109 1.92476504 1.109109 1.92476504 0 0 Z " fill="#101634" transform="translate(417,116)"/>
<path d="M0 0 C1.44839346 4.47240412 0.05234254 6.82201697 -2 11 C-2.45375 11.94875 -2.9075 12.8975 -3.375 13.875 C-5 16 -5 16 -7.5 16.6875 C-8.325 16.790625 -9.15 16.89375 -10 17 C-10.99 17.66 -11.98 18.32 -13 19 C-15.1875 18.625 -15.1875 18.625 -17 18 C-15.73308493 17.32591692 -14.46129251 16.66099503 -13.1875 16 C-12.47980469 15.62875 -11.77210938 15.2575 -11.04296875 14.875 C-9 14 -9 14 -6 14 C-5.7525 13.360625 -5.505 12.72125 -5.25 12.0625 C-3.59188428 8.00011649 -1.7964416 4.00275094 0 0 Z " fill="#200C07" transform="translate(243,165)"/>
<path d="M0 0 C0.33 0 0.66 0 1 0 C1 4.62 1 9.24 1 14 C4.3 11.69 7.6 9.38 11 7 C11.66 7.33 12.32 7.66 13 8 C11.54634731 9.17249353 10.08692581 10.33783816 8.625 11.5 C7.81289062 12.1496875 7.00078125 12.799375 6.1640625 13.46875 C4 15 4 15 2 15 C2 15.66 2 16.32 2 17 C1.01 17 0.02 17 -1 17 C-0.67 11.39 -0.34 5.78 0 0 Z " fill="#1C141E" transform="translate(194,65)"/>
<path d="M0 0 C7.10575085 2.94514674 11.77655423 11.28448798 15 18 C14.67 18.99 14.34 19.98 14 21 C13.51789063 20.14535156 13.03578125 19.29070312 12.5390625 18.41015625 C11.90742188 17.30542969 11.27578125 16.20070313 10.625 15.0625 C9.99851562 13.96035156 9.37203125 12.85820313 8.7265625 11.72265625 C7.28101386 8.92556953 7.28101386 8.92556953 5 8 C4.690625 7.360625 4.38125 6.72125 4.0625 6.0625 C3.04654078 3.68028507 3.04654078 3.68028507 0 2 C0 1.34 0 0.68 0 0 Z " fill="#0C1535" transform="translate(261,79)"/>
<path d="M0 0 C5.1692853 0.66326879 9.62251365 2.91924657 14.3125 5.0625 C15.56643555 5.62807617 15.56643555 5.62807617 16.84570312 6.20507812 C18.89927262 7.13211807 20.95056287 8.06386878 23 9 C17.99942116 10.66685961 14.05669511 8.51723061 9.47265625 6.2734375 C8.34730469 5.64695312 7.22195313 5.02046875 6.0625 4.375 C4.91910156 3.74335937 3.77570313 3.11171875 2.59765625 2.4609375 C1.74042969 1.97882813 0.88320313 1.49671875 0 1 C0 0.67 0 0.34 0 0 Z " fill="#070914" transform="translate(360,91)"/>
<path d="M0 0 C3.83736322 0.95934081 4.59660228 1.23609263 7 4 C4 4 4 4 2 3 C1.67 6.63 1.34 10.26 1 14 C-0.65 14.33 -2.3 14.66 -4 15 C-3.01 14.67 -2.02 14.34 -1 14 C-0.67 9.38 -0.34 4.76 0 0 Z " fill="#191822" transform="translate(190,197)"/>
<path d="M0 0 C0 0.66 0 1.32 0 2 C-1.051875 2.5775 -2.10375 3.155 -3.1875 3.75 C-6.3786482 5.5661006 -9.19489535 7.61991121 -12 10 C-10.49946106 6.88349604 -8.93818042 3.86850702 -7 1 C-4 0 -4 0 0 0 Z " fill="#090D1F" transform="translate(208,98)"/>
<path d="M0 0 C-10.37357631 5.55580866 -10.37357631 5.55580866 -16 6 C-16 5.34 -16 4.68 -16 4 C-13.90049414 3.13444052 -11.7952093 2.28288723 -9.6875 1.4375 C-8.51574219 0.96183594 -7.34398437 0.48617187 -6.13671875 -0.00390625 C-3 -1 -3 -1 0 0 Z " fill="#2A1C12" transform="translate(326,155)"/>
<path d="M0 0 C-5.53846154 4.76923077 -5.53846154 4.76923077 -9 5 C-9.99 4.34 -10.98 3.68 -12 3 C-10.5682384 2.30062798 -9.12932968 1.61587282 -7.6875 0.9375 C-6.48673828 0.36322266 -6.48673828 0.36322266 -5.26171875 -0.22265625 C-3 -1 -3 -1 0 0 Z " fill="#1F110A" transform="translate(376,135)"/>
<path d="M0 0 C-4.79813482 3.69087294 -9.05925113 4.99667352 -15 6 C-10.83385363 2.52821136 -5.41664933 -1.80554978 0 0 Z " fill="#2C2015" transform="translate(40,107)"/>
<path d="M0 0 C0.99 0.33 1.98 0.66 3 1 C1.68 1.33 0.36 1.66 -1 2 C-1 2.99 -1 3.98 -1 5 C-2.32 5.33 -3.64 5.66 -5 6 C-5 7.65 -5 9.3 -5 11 C-5.33 11 -5.66 11 -6 11 C-6.49046322 5.60490463 -6.49046322 5.60490463 -4.125 2.6875 C-2 1 -2 1 0 0 Z " fill="#23130C" transform="translate(22,113)"/>
<path d="M0 0 C3.65316671 1.24976756 4.78065836 1.67098753 7 5 C5.35 5.33 3.7 5.66 2 6 C1.34 4.02 0.68 2.04 0 0 Z " fill="#060815" transform="translate(254,74)"/>
<path d="M0 0 C-1.65519326 3.31038651 -4.65442221 3.78867011 -8 5 C-8.99 4.67 -9.98 4.34 -11 4 C-9.73760288 3.13341385 -8.46472499 2.28207941 -7.1875 1.4375 C-6.47980469 0.96183594 -5.77210938 0.48617187 -5.04296875 -0.00390625 C-3 -1 -3 -1 0 0 Z " fill="#06070E" transform="translate(364,161)"/>
<path d="M0 0 C2.17175481 3.25763222 2.46043998 4.22439213 2 8 C0.5 10.3125 0.5 10.3125 -1 12 C-1.02712066 10.56260487 -1.04645067 9.12506137 -1.0625 7.6875 C-1.07410156 6.88699219 -1.08570313 6.08648437 -1.09765625 5.26171875 C-1 3 -1 3 0 0 Z " fill="#040F25" transform="translate(281,151)"/>
<path d="M0 0 C2.31 0.33 4.62 0.66 7 1 C7 1.66 7 2.32 7 3 C8.32 3.66 9.64 4.32 11 5 C7.0507432 4.44894091 3.65079826 3.61064629 0 2 C0 1.34 0 0.68 0 0 Z " fill="#2D1A0F" transform="translate(310,93)"/>
<path d="M0 0 C0.33 0.99 0.66 1.98 1 3 C-0.875 6.1875 -0.875 6.1875 -3 9 C-3.33 9 -3.66 9 -4 9 C-4 7.35 -4 5.7 -4 4 C-3.34 4 -2.68 4 -2 4 C-2 3.34 -2 2.68 -2 2 C-1.34 2 -0.68 2 0 2 C0 1.34 0 0.68 0 0 Z " fill="#000214" transform="translate(273,183)"/>
<path d="M0 0 C1.32 0.33 2.64 0.66 4 1 C4 4.3 4 7.6 4 11 C3.67 11 3.34 11 3 11 C2.86722656 10.37351562 2.73445313 9.74703125 2.59765625 9.1015625 C2.42105469 8.28429687 2.24445313 7.46703125 2.0625 6.625 C1.80146484 5.40683594 1.80146484 5.40683594 1.53515625 4.1640625 C1.07669307 1.970537 1.07669307 1.970537 0 0 Z " fill="#08132B" transform="translate(417,116)"/>
<path d="M0 0 C2.97 0.99 5.94 1.98 9 3 C9 3.33 9 3.66 9 4 C6.1875 4.25 6.1875 4.25 3 4 C1.125 2 1.125 2 0 0 Z " fill="#060812" transform="translate(333,79)"/>
<path d="M0 0 C4.95 1.98 4.95 1.98 10 4 C9.01 4.66 8.02 5.32 7 6 C3.535 4.02 3.535 4.02 0 2 C0 1.34 0 0.68 0 0 Z " fill="#060B12" transform="translate(314,70)"/>
</svg>
