<svg xmlns="http://www.w3.org/2000/svg" width="587" height="230">
    <path d="m165 9.832 2.398-.01c1.675-.005 3.35-.007 5.024-.007 2.568-.002 5.135-.02 7.703-.04 1.625-.003 3.25-.005 4.875-.005l2.336-.022C192.77 9.77 192.77 9.77 195 12c.24 2.784.24 2.784.227 6.377v1.982a985.248 985.248 0 0 1-.032 6.493l-.008 4.497c-.008 3.95-.028 7.898-.05 11.847-.02 4.028-.03 8.057-.04 12.085-.02 7.907-.055 15.813-.097 23.719l2.025-1.448 2.686-1.904 2.65-1.885C208.515 69.652 214.556 67.301 222 67l2.781-.121C237.951 66.59 249.293 69.086 260 77l1.676 1.234c14.518 11.46 19.651 29.825 21.755 47.43 2.506 23.967.263 50.448-14.431 70.336l-1.465 2.02c-6.891 8.762-18.533 15.146-29.535 16.792a89.419 89.419 0 0 1-4 .188l-2.84.117c-6.347.144-12.083-.253-18.16-2.117l-2.39-.707c-7.413-2.553-12.806-7.129-18.61-12.293l-.184 2.371-.254 3.066c-.08 1.01-.162 2.02-.246 3.06C191 211 191 211 190 212h-35V11c3.153-1.577 6.538-1.163 10-1.168Zm31.478 97.607c-2.968 5.143-2.471 10.834-2.408 16.624-.004 1.359-.011 2.718-.02 4.078-.01 2.838.005 5.674.037 8.512.04 3.62.017 7.234-.025 10.853a542.046 542.046 0 0 0 .001 8.411c.007 1.976-.014 3.953-.036 5.929.13 7.18.85 11.49 6.017 16.654 7.187 5.51 15.129 6.498 23.956 5.5 6.284-1.35 10.528-4.322 14.121-9.668 6.306-10.464 6.06-21.365 6.066-33.207l.038-3.684c.019-11.751-1.255-23.054-8.475-32.754-5.489-5.364-9.97-6.938-17.688-7.187-9.274.317-15.547 2.794-21.584 9.939Z" fill="currentColor"/>
    <path d="M452 22c4.312-.029 8.625-.047 12.938-.063l3.732-.025 3.545-.01 3.285-.016C478 22 478 22 479 23c.097 2.152.122 4.306.12 6.46l.003 2.07c.002 2.304-.004 4.609-.01 6.914l.001 4.936c0 4.481-.006 8.962-.013 13.444-.006 4.677-.006 9.355-.008 14.033-.003 8.865-.011 17.73-.021 26.594-.011 10.09-.017 20.179-.022 30.268-.01 20.76-.028 41.52-.05 62.281l3.327-.007c10.33-.02 20.66-.035 30.99-.045 5.312-.005 10.623-.012 15.934-.023 5.123-.011 10.245-.017 15.367-.02 1.958-.002 3.916-.005 5.873-.01 2.735-.008 5.47-.009 8.204-.009l2.472-.01c5.605.01 5.605.01 7.833 1.124.029 3.312.047 6.625.063 9.938l.025 2.865.01 2.724.016 2.524C569 211 569 211 568 212a70.093 70.093 0 0 1-4.524.12l-2.962.004-3.276-.01h-3.429c-3.76 0-7.521-.009-11.282-.016l-7.798-.005c-6.155-.003-12.31-.011-18.465-.021-7.006-.011-14.012-.017-21.018-.022-14.415-.01-28.83-.028-43.246-.05-1.172-3.515-1.139-6.67-1.127-10.326l-.005-2.278c-.004-2.527 0-5.053.003-7.58l-.006-5.425c-.004-4.917-.002-9.834 0-14.751.003-5.14 0-10.28 0-15.42-.003-8.631 0-17.263.005-25.895.005-9.988.003-19.975-.002-29.963-.005-8.567-.005-17.133-.003-25.7.002-5.12.002-10.24-.001-15.36-.003-4.814-.001-9.627.005-14.44 0-1.769 0-3.538-.002-5.308-.002-2.41.001-4.819.006-7.228l-.007-2.137c.012-3.015.172-5.302 1.134-8.189Z" fill="currentColor"/>
    <path d="m312.084 68.693 2.58 1.15 2.906 1.282 3.055 1.375 2.89 1.281c2.04.905 4.08 1.812 6.117 2.721 3.632 1.616 7.272 3.212 10.915 4.803 5.98 2.612 11.956 5.232 17.93 7.86l10.148 4.46 2.675 1.176c9.325 4.098 18.653 8.19 28.005 12.226l2.145.927c3.29 1.42 6.583 2.837 9.877 4.25l3.454 1.487 3.002 1.288C420 116 420 116 421 117c.087 1.489.107 2.981.098 4.473l-.01 2.724-.026 2.865-.013 2.877c-.012 2.354-.028 4.707-.049 7.061-12.864 5.985-25.783 11.822-38.813 17.437-14.11 6.082-28.157 12.3-42.187 18.563-4.395 1.962-8.79 3.922-13.187 5.88-1.775.79-3.55 1.583-5.323 2.376l-3.24 1.443-2.86 1.276C313 185 313 185 310 186l-2-1a701.002 701.002 0 0 1-.313-11.813l-.126-3.392-.05-3.252c-.025-.99-.052-1.98-.079-3 .568-2.543.568-2.543 2.72-4.231a178.244 178.244 0 0 1 8.914-3.843l3.618-1.44 3.878-1.529c1.343-.533 2.685-1.065 4.027-1.599a4898.762 4898.762 0 0 1 14.35-5.664c5.384-2.12 10.77-4.236 16.158-6.348 9.987-3.914 19.95-7.887 29.903-11.889-5.658-2.937-11.328-5.384-17.3-7.602-1.866-.701-3.732-1.404-5.597-2.106l-2.992-1.122c-8.948-3.365-17.874-6.791-26.802-10.209-2.364-.903-4.73-1.805-7.095-2.705a4656.327 4656.327 0 0 1-10.382-3.967l-3.216-1.218-2.949-1.135-2.594-.99C310 95 310 95 308 93c-.227-2.43-.227-2.43-.195-5.445l.02-3.262.05-3.418.027-3.441c.024-2.812.057-5.623.098-8.434 2-1 2-1 4.084-.307Z" fill="currentColor"/>
    <path d="M123 69v25a480.719 480.719 0 0 1-25.719 11.21c-3.454 1.386-6.905 2.782-10.355 4.177l-2.176.878c-8.6 3.476-17.175 7.011-25.75 10.547l-2.296.947c-4.235 1.746-8.47 3.493-12.704 5.241 8.291 3.908 16.731 7.36 25.249 10.733 3.86 1.53 7.718 3.069 11.575 4.607l2.344.934c7.392 2.945 14.772 5.92 22.144 8.913l3.336 1.349 3.09 1.257 2.658 1.079c2.919 1.264 5.759 2.705 8.604 4.128v25c-3.82 1.274-5.308.148-8.8-1.553l-2.388-1.197c-1.72-.839-3.441-1.676-5.164-2.512l-2.774-1.353c-4.947-2.384-9.941-4.665-14.936-6.947l-3.083-1.413a1345.428 1345.428 0 0 0-18.355-8.213c-6.303-2.77-12.462-5.752-18.595-8.879-4.651-2.354-9.365-4.5-14.155-6.558C15.557 138.113 15.557 138.113 14 135a145.911 145.911 0 0 1-.313-7.875l-.087-2.184c-.038-3.158-.046-5.35 1.894-7.92 3.405-2.746 7.048-4.393 11.022-6.181l2.542-1.17c2.727-1.253 5.46-2.493 8.192-3.733 1.889-.864 3.778-1.73 5.666-2.596 3.709-1.7 7.42-3.395 11.133-5.086C58 96.457 61.947 94.65 65.89 92.832c8.57-3.947 17.158-7.856 25.75-11.758l2.28-1.035a15423.049 15423.049 0 0 1 15.313-6.95l1.894-.856c2.416-1.097 4.793-2.188 7.107-3.489C120 68 120 68 123 69Z" fill="currentColor"/>
    <path d="M276 101c7.174 6.015 7.05 20.088 7.839 28.858C285.55 152.615 282.876 177.22 269 196l-1.465 2.02c-4.385 5.576-10.442 10.6-17.535 11.98 2.039-2.19 3.82-3.899 6.438-5.375 2.675-1.696 4.36-3.608 6.308-6.086C264 197 264 197 266.563 194.5c5.082-5.213 6.913-9.41 7.847-16.523.497-2.507 1.138-4.5 2.074-6.852 8.092-20.827 4.059-48.911-.484-70.125Z" fill="currentColor"/>
    <path d="m193 11 2 1v67l10-7 2 1a790.547 790.547 0 0 1-4.375 3.5l-2.46 1.969C198 80 198 80 196 80v2h-3V11Z" fill="currentColor"/>
    <path d="M195 108c1.356 2.713 1.076 4.771 1.018 7.807l-.059 3.693-.037 1.98c-.06 3.464-.091 6.928-.127 10.393-.048 4.407-.104 8.813-.193 13.22a773.52 773.52 0 0 0-.132 10.685c-.02 2.01-.072 4.019-.124 6.027-.108 7.85-.108 7.85 3.563 14.518 1.677 1.618 3.005 2.634 5.091 3.677l-1 2-2.313-1.938c-2.57-2.204-2.57-2.204-5.687-3.062a70.134 70.134 0 0 1-1-4l-2-1c.084-7.902.18-15.803.288-23.705.05-3.669.096-7.338.134-11.007.037-3.54.083-7.08.136-10.62.028-2.01.045-4.019.063-6.028l.06-3.7.04-3.263C193 111 193 111 195 108Z" fill="currentColor"/>
    <path d="m120 68 3 1v25l-8 4-3-1 4-1v-2h3V71l-5 1c1.964-1.506 3.783-2.891 6-4Z" fill="currentColor"/>
    <path d="M276 101c7.155 6 7.05 20.036 7.843 28.788.283 3.986.377 7.967.407 11.962l.028 2.311c-.023 4.11-.392 6.168-2.278 9.939v-26h-2l-.26-1.94c-.39-2.916-.784-5.832-1.178-8.748l-.408-3.052-.4-2.96-.365-2.713c-.383-2.55-.862-5.063-1.389-7.587Z" fill="currentColor"/>
    <path d="M208 98v2l-3.125 1.688c-4.073 2.326-8.729 5.02-10.875 9.312a115.72 115.72 0 0 0-.205 5.643l-.06 3.58-.051 3.879-.063 3.96c-.056 3.475-.105 6.95-.153 10.425-.05 3.546-.106 7.092-.161 10.638-.108 6.958-.21 13.917-.307 20.875h-1c-.046-7.884-.082-15.769-.104-23.653-.01-3.661-.024-7.322-.047-10.983-.022-3.534-.034-7.068-.039-10.601a1174.25 1174.25 0 0 0-.037-6.01v-3.7l-.014-3.256c.243-2.826.657-4.46 2.241-6.797l5-2c1.134-2.017 1.134-2.017 2-4 3-1 3-1 7-1Z" fill="currentColor"/>
    <path d="m310 68 3 1-1 2a64.695 64.695 0 0 0-.133 4.246l-.004 2.537.012 2.654-.012 2.643.004 2.541.004 2.326c.054 2.254.054 2.254 1.129 5.053 2.015.733 2.015.733 4 1v2l4 2c-4.66-.555-9.55-1.55-13-5a98.712 98.712 0 0 1-.098-5.348l.01-3.271.026-3.444.013-3.455c.012-2.827.028-5.655.049-8.482l2-1Z" fill="currentColor"/>
    <path d="M565 191h4v20l-4 1v-21Z" fill="currentColor"/>
    <path d="m417 116 4 1v20h-2l-.076-1.712c-.116-2.555-.239-5.109-.361-7.663l-.12-2.695-.127-2.578-.11-2.38c-.097-2.047-.097-2.047-1.206-3.972Z" fill="currentColor"/>
    <path d="M243 165c1.448 4.472.052 6.822-2 11l-1.375 2.875C238 181 238 181 235.5 181.688L233 182l-3 2c-2.188-.375-2.188-.375-4-1a417.885 417.885 0 0 1 3.813-2l2.144-1.125C234 179 234 179 237 179l.75-1.938c1.658-4.062 3.454-8.06 5.25-12.062Z" fill="currentColor"/>
    <path d="M194 65h1v14l10-7 2 1a790.547 790.547 0 0 1-4.375 3.5l-2.46 1.969C198 80 198 80 196 80v2h-3l1-17Z" fill="currentColor"/>
    <path d="M261 79c7.106 2.945 11.777 11.284 15 18l-1 3-1.46-2.59-1.915-3.347-1.898-3.34C268.28 87.926 268.28 87.926 266 87l-.938-1.938C264.048 82.68 264.048 82.68 261 81v-2Z" fill="currentColor"/>
    <path d="M360 91c5.17.663 9.623 2.92 14.313 5.063l2.533 1.142c2.053.927 4.105 1.859 6.154 2.795-5 1.667-8.943-.483-13.527-2.727l-3.41-1.898-3.465-1.914L360 92v-1Z" fill="currentColor"/>
    <path d="M190 197c3.837.96 4.597 1.236 7 4-3 0-3 0-5-1l-1 11-5 1 3-1 1-14Z" fill="currentColor"/>
    <path d="M208 98v2l-3.188 1.75c-3.19 1.816-6.007 3.87-8.812 6.25 1.5-3.117 3.062-6.131 5-9 3-1 3-1 7-1Z" fill="currentColor"/>
    <path d="M326 155c-10.374 5.556-10.374 5.556-16 6v-2c2.1-.866 4.205-1.717 6.313-2.563l3.55-1.44C323 154 323 154 326 155Z" fill="currentColor"/>
    <path d="M376 135c-5.538 4.77-5.538 4.77-9 5l-3-2c1.432-.7 2.87-1.384 4.313-2.063l2.425-1.16C373 134 373 134 376 135Z" fill="currentColor"/>
    <path d="M40 107c-4.798 3.69-9.06 4.997-15 6 4.166-3.472 9.583-7.806 15-6Z" fill="currentColor"/>
    <path d="m22 113 3 1-4 1v3l-4 1v5h-1c-.49-5.395-.49-5.395 1.875-8.313C20 114 20 114 22 113Z" fill="currentColor"/>
    <path d="M254 74c3.653 1.25 4.78 1.671 7 5l-5 1-2-6Z" fill="currentColor"/>
    <path d="M364 161c-1.655 3.31-4.654 3.789-8 5l-3-1a265.073 265.073 0 0 1 3.813-2.563l2.144-1.44C361 160 361 160 364 161Z" fill="currentColor"/>
    <path d="M281 151c2.172 3.258 2.46 4.224 2 8-1.5 2.313-1.5 2.313-3 4a559.991 559.991 0 0 1-.063-4.313l-.035-2.425C280 154 280 154 281 151Z" fill="currentColor"/>
    <path d="m310 93 7 1v2l4 2c-3.95-.551-7.35-1.39-11-3v-2Z" fill="currentColor"/>
    <path d="m273 183 1 3c-1.875 3.188-1.875 3.188-4 6h-1v-5h2v-2h2v-2Z" fill="currentColor"/>
    <path d="m417 116 4 1v10h-1l-.402-1.898-.536-2.477-.527-2.46c-.458-2.194-.458-2.194-1.535-4.165Z" fill="currentColor"/>
    <path d="m333 79 9 3v1c-2.813.25-2.813.25-6 0-1.875-2-1.875-2-3-4Z" fill="currentColor"/>
    <path d="m314 70 10 4-3 2-7-4v-2Z" fill="currentColor"/>
</svg>
