<svg version="1.1" id="Layer_1" xmlns="http://www.w3.org/2000/svg" xmlns:xlink="http://www.w3.org/1999/xlink" x="0px" y="0px"
	 width="100%" viewBox="0 0 436 437" enable-background="new 0 0 436 437" xml:space="preserve">
<path fill="#FEFEFF" opacity="1.000000" stroke="none" 
	d="
M1.000000,355.000000 
	C1.000000,237.044510 1.000000,119.089027 1.000000,1.066771 
	C146.233978,1.066771 291.467987,1.066771 437.000000,1.066771 
	C437.000000,119.022476 437.000000,237.045212 436.610413,355.527405 
	C433.981476,355.444183 431.740112,354.426880 429.503113,354.436462 
	C415.810852,354.494995 402.113525,354.604401 388.430084,355.061768 
	C378.762543,355.384888 369.115570,356.305664 359.455688,356.898773 
	C358.326447,356.968140 357.071533,356.893646 356.050262,356.466522 
	C352.816803,355.114288 349.766907,352.628326 346.464264,352.273743 
	C338.343994,351.401978 330.123962,351.409424 321.940643,351.192963 
	C316.762726,351.055969 311.610107,353.862854 306.380890,351.319855 
	C305.857971,351.065582 305.092285,351.309174 304.439301,351.324036 
	C295.235352,351.533722 286.030182,351.700897 276.827881,351.968018 
	C269.961182,352.167358 263.100159,352.578308 256.232910,352.735626 
	C252.183502,352.828430 247.878265,354.220703 243.366409,350.957733 
	C245.777817,348.899384 247.730957,347.424713 249.456177,345.719452 
	C253.028275,342.188782 256.479156,338.535431 260.112549,334.677917 
	C260.617889,333.994995 260.990540,333.566681 261.558228,333.084839 
	C261.753235,333.031281 261.990448,332.703674 262.240265,332.623779 
	C262.790710,332.134949 263.091339,331.726013 263.316406,331.283325 
	C263.240875,331.249634 263.280975,331.410156 263.577179,331.352020 
	C264.293030,330.880707 264.712646,330.467529 265.406158,329.954773 
	C266.265991,328.920898 266.851959,327.986603 267.814453,327.051147 
	C271.886200,323.446930 275.581421,319.843811 279.190308,316.146301 
	C279.103943,316.051880 279.237183,316.270386 279.528992,316.148438 
	C280.586395,315.042603 281.351990,314.058685 282.072235,313.046600 
	C282.026886,313.018433 282.079529,313.111328 282.349609,312.983337 
	C282.892639,312.338531 283.165558,311.821686 283.375000,311.264862 
	C283.311523,311.224854 283.342804,311.371613 283.592773,311.266785 
	C284.001678,310.845551 284.160614,310.529205 284.249878,310.213928 
	C284.180206,310.215027 284.292206,310.297913 284.588287,310.154083 
	C286.426788,307.840424 287.969238,305.670624 289.502197,303.468262 
	C289.492737,303.435669 289.452576,303.381012 289.728516,303.236755 
	C290.117340,302.713776 290.230225,302.335052 290.547729,301.720551 
	C291.277710,300.363831 291.803131,299.242889 292.642731,297.989807 
	C297.624634,289.527252 302.292328,281.196838 307.214050,272.599792 
	C308.266327,270.059113 309.080963,267.790619 309.860168,265.509979 
	C313.564575,254.667526 317.259277,243.821777 321.166626,232.675537 
	C322.855286,225.575089 324.334717,218.776291 325.957031,211.661743 
	C326.107422,210.888718 326.114960,210.431473 326.214172,209.855255 
	C326.305817,209.736313 326.153259,209.477631 326.397705,209.143219 
	C327.452301,203.213547 328.262451,197.618271 329.286255,191.701904 
	C329.699646,189.265884 329.899384,187.150970 330.300415,184.784027 
	C330.550446,183.681870 330.599213,182.831757 330.770325,181.621063 
	C330.899780,180.501968 330.906921,179.743454 331.035461,178.635559 
	C331.297943,176.837067 331.439056,175.387924 331.674438,173.720795 
	C331.768768,173.502808 331.705872,173.031937 331.817871,172.663254 
	C331.921997,171.526535 331.914154,170.758499 332.008972,169.751099 
	C332.082733,169.340530 332.053864,169.169327 332.114197,168.672394 
	C332.156189,167.901962 332.108948,167.457275 332.086090,166.563141 
	C332.437958,162.406921 332.765442,158.700165 333.175079,154.531876 
	C333.183777,148.698105 333.110291,143.325867 333.105225,137.579620 
	C331.945740,136.051208 330.904388,134.469482 329.449738,133.834671 
	C326.735687,132.650223 323.785492,132.002594 320.926575,131.155182 
	C300.610352,125.133339 280.292389,119.117470 259.760529,112.977493 
	C259.546082,112.855293 259.052460,112.861473 258.848694,112.648315 
	C258.073273,112.351707 257.501587,112.268265 256.732056,111.999840 
	C256.021576,111.722046 255.508926,111.629234 254.687744,111.362747 
	C253.913193,111.140129 253.447159,111.091194 252.711243,110.809509 
	C242.646240,107.820518 232.851120,105.064270 222.717285,102.231552 
	C221.921555,102.207214 221.464539,102.259346 220.582153,102.225616 
	C207.107727,105.764511 194.058624,109.389259 180.679428,112.992447 
	C179.554779,113.287621 178.760223,113.604362 177.717194,113.910667 
	C177.468704,113.900230 177.033600,114.141281 176.625549,114.148933 
	C175.725204,114.374710 175.232910,114.592834 174.628204,114.721054 
	C174.292542,114.665703 174.166168,114.795227 173.756500,115.027092 
	C171.265366,115.743790 169.154434,116.453110 166.660934,117.154320 
	C162.910263,118.263260 159.542145,119.380302 156.145966,120.506668 
	C156.117905,120.515991 156.072266,120.562805 155.710236,120.552170 
	C154.906326,120.724197 154.464447,120.906860 153.652054,121.087952 
	C150.797592,121.990540 148.313644,122.894707 145.883118,123.797630 
	C145.936523,123.796394 145.865692,123.716385 145.548126,123.713867 
	C144.828537,123.841278 144.426514,123.971207 143.737991,124.076004 
	C142.968491,124.358223 142.485458,124.665588 141.622147,124.918381 
	C139.150330,125.543678 137.058823,126.223549 134.628082,126.893433 
	C133.491837,127.224792 132.694794,127.566139 131.915588,127.899963 
	C131.933426,127.892433 131.900787,127.861015 131.520477,127.858002 
	C128.365295,128.720306 125.590454,129.585632 122.445747,130.492340 
	C120.709877,131.005219 119.343864,131.476700 117.599869,131.945587 
	C115.150032,132.633514 113.078163,133.324005 110.699860,134.010834 
	C109.903366,134.334991 109.413300,134.662796 108.783829,135.056763 
	C108.644417,135.122940 108.582756,135.425354 108.569527,135.488678 
	C108.556297,135.552002 108.593422,135.675934 108.336349,135.749161 
	C107.954895,136.145340 107.830521,136.468292 107.772568,136.900085 
	C107.838989,137.008942 107.742249,136.772995 107.534134,136.894440 
	C107.154175,137.321823 107.144279,137.632935 107.223907,138.327576 
	C107.206711,139.470398 107.261940,140.234848 107.231804,141.456818 
	C107.194374,146.308655 107.242310,150.702972 107.205460,155.543076 
	C108.933083,190.469299 114.195526,224.323883 126.549950,256.726959 
	C130.243530,266.414459 135.298080,275.583069 139.824478,285.344849 
	C143.652710,291.774780 146.742188,298.386475 151.264221,303.802032 
	C158.652359,312.649902 166.973862,320.718445 174.953766,329.095917 
	C175.005936,329.076050 174.898666,329.094788 175.025696,329.385254 
	C176.019699,330.211090 176.886688,330.746490 177.851562,331.184814 
	C177.949448,331.087738 177.724243,331.246765 177.774902,331.512390 
	C178.233276,332.103363 178.640976,332.428680 179.203308,332.880127 
	C179.357956,333.006287 179.742599,333.112885 179.912018,333.382812 
	C180.656052,333.866455 181.230682,334.080170 181.862228,334.240173 
	C181.919159,334.186432 181.768402,334.228668 181.836914,334.488770 
	C182.220016,334.900970 182.534607,335.053101 182.816956,335.173279 
	C182.784714,335.141357 182.771286,335.231110 182.864380,335.526306 
	C183.987976,336.498016 185.018494,337.174591 186.180923,338.071503 
	C186.540421,338.548187 186.768005,338.804565 187.000702,339.426331 
	C189.076401,341.921600 191.106720,344.092712 193.230942,346.167633 
	C194.808517,347.708649 196.507950,349.124847 198.153107,350.596649 
	C197.885635,351.383881 197.618149,352.171082 197.350662,352.958313 
	C183.853409,352.958313 170.356110,352.977386 156.858978,352.936981 
	C154.921463,352.931183 152.979645,352.455322 151.048615,352.509735 
	C141.632980,352.774872 132.226196,355.476715 122.793449,352.513794 
	C122.105850,352.297791 121.228378,352.710052 120.435768,352.800140 
	C118.031151,353.073486 115.622971,353.570679 113.219582,353.551575 
	C106.066269,353.494812 98.912209,353.020630 91.762825,353.100830 
	C81.035545,353.221191 70.313065,353.729004 59.585938,353.938904 
	C57.472736,353.980255 55.338421,353.116821 53.229641,353.181915 
	C35.817654,353.719788 18.409391,354.378143 1.000000,355.000000 
z"/>
<path fill="#F8F9FA" opacity="1.000000" stroke="none" 
	d="
M259.979889,334.932556 
	C256.479156,338.535431 253.028275,342.188782 249.456177,345.719452 
	C247.730957,347.424713 245.777817,348.899384 243.366409,350.957733 
	C247.878265,354.220703 252.183502,352.828430 256.232910,352.735626 
	C263.100159,352.578308 269.961182,352.167358 276.827881,351.968018 
	C286.030182,351.700897 295.235352,351.533722 304.439301,351.324036 
	C305.092285,351.309174 305.857971,351.065582 306.380890,351.319855 
	C311.610107,353.862854 316.762726,351.055969 321.940643,351.192963 
	C330.123962,351.409424 338.343994,351.401978 346.464264,352.273743 
	C349.766907,352.628326 352.816803,355.114288 356.050262,356.466522 
	C357.071533,356.893646 358.326447,356.968140 359.455688,356.898773 
	C369.115570,356.305664 378.762543,355.384888 388.430084,355.061768 
	C402.113525,354.604401 415.810852,354.494995 429.503113,354.436462 
	C431.740112,354.426880 433.981476,355.444183 436.610413,355.993439 
	C437.000000,383.313416 437.000000,410.626862 437.000000,437.939575 
	C291.666656,437.938843 146.333313,437.938843 1.000000,437.938843 
	C1.000000,410.564209 1.000000,383.250763 1.000000,355.468658 
	C18.409391,354.378143 35.817654,353.719788 53.229641,353.181915 
	C55.338421,353.116821 57.472736,353.980255 59.585938,353.938904 
	C70.313065,353.729004 81.035545,353.221191 91.762825,353.100830 
	C98.912209,353.020630 106.066269,353.494812 113.219582,353.551575 
	C115.622971,353.570679 118.031151,353.073486 120.435768,352.800140 
	C121.228378,352.710052 122.105850,352.297791 122.793449,352.513794 
	C132.226196,355.476715 141.632980,352.774872 151.048615,352.509735 
	C152.979645,352.455322 154.921463,352.931183 156.858978,352.936981 
	C170.356110,352.977386 183.853409,352.958313 197.350662,352.958313 
	C197.618149,352.171082 197.885635,351.383881 198.153107,350.596649 
	C196.507950,349.124847 194.808517,347.708649 193.230942,346.167633 
	C191.106720,344.092712 189.076401,341.921600 187.317627,339.506531 
	C188.958298,339.953278 190.287155,340.685242 191.817902,341.613770 
	C192.521759,342.054871 193.023727,342.299347 193.743134,342.794006 
	C195.975281,344.017426 197.989975,344.990662 200.352112,346.042603 
	C204.339462,347.885864 207.979370,349.650391 211.834961,351.616577 
	C212.611313,351.986786 213.171982,352.155334 213.874237,352.684082 
	C216.029190,353.240936 218.042542,353.437561 220.374649,353.703522 
	C221.122467,353.723389 221.551529,353.673889 222.355286,353.701721 
	C223.491714,353.794128 224.253494,353.809174 225.351471,353.769165 
	C231.941818,350.545441 238.195953,347.376831 244.773895,344.143311 
	C249.489029,341.168854 253.880325,338.259308 258.139343,335.211670 
	C258.007019,335.073578 258.248138,335.370575 258.543213,335.320374 
	C259.218811,335.157654 259.599365,335.045105 259.979889,334.932556 
z"/>
<path fill="#20ACF4" opacity="1.000000" stroke="none" 
	d="
M252.981140,111.042252 
	C253.447159,111.091194 253.913193,111.140129 254.742981,111.599564 
	C255.714478,112.068314 256.322174,112.126572 256.929901,112.184822 
	C257.501587,112.268265 258.073273,112.351707 258.894653,112.831512 
	C259.421204,113.185143 259.698090,113.142418 259.974976,113.099693 
	C280.292389,119.117470 300.610352,125.133339 320.926575,131.155182 
	C323.785492,132.002594 326.735687,132.650223 329.449738,133.834671 
	C330.904388,134.469482 331.945740,136.051208 332.795654,137.725739 
	C319.200378,148.447327 305.983093,158.648804 292.449860,168.953125 
	C286.593628,173.119568 281.053375,177.183167 275.152588,181.082184 
	C274.118317,179.825287 273.259247,178.805573 272.798615,177.629761 
	C265.624451,159.316559 258.473755,140.994019 251.388672,122.646194 
	C249.784058,118.490852 248.448700,114.231544 247.305084,110.149460 
	C249.407562,110.533302 251.194351,110.787773 252.981140,111.042252 
z"/>
<path fill="#22DCC2" opacity="1.000000" stroke="none" 
	d="
M122.815613,130.450958 
	C125.590454,129.585632 128.365295,128.720306 131.414169,128.226654 
	C131.777557,130.507462 131.449554,132.553757 132.024414,134.303391 
	C135.596786,145.176178 139.295029,156.009399 143.095932,166.804916 
	C150.089294,186.667892 157.082169,206.532852 164.388687,226.281021 
	C165.122910,228.265472 168.009079,229.453735 170.057953,231.364273 
	C172.987900,239.694275 175.756424,247.671509 178.224808,255.854614 
	C176.282791,257.425171 174.640915,258.789825 172.695084,260.258362 
	C170.594803,261.529968 168.798492,262.697693 166.993896,263.486328 
	C164.379807,255.794235 161.729858,248.496674 159.175919,241.165665 
	C148.930786,211.757355 138.592163,182.380539 128.576447,152.894135 
	C126.099556,145.602142 124.706757,137.941925 122.815613,130.450958 
z"/>
<path fill="#1CB3E6" opacity="1.000000" stroke="none" 
	d="
M221.007507,102.311485 
	C221.464539,102.259346 221.921555,102.207214 222.853775,102.456711 
	C223.884140,103.174225 224.439331,103.590088 225.002136,104.387802 
	C228.246552,113.039459 231.554688,121.282234 234.701782,129.586029 
	C238.505829,139.623215 242.388733,149.639130 245.832443,159.801514 
	C248.614441,168.011230 253.720581,175.593430 252.703186,184.705750 
	C250.282181,183.364853 248.171387,182.131042 245.829346,180.638107 
	C237.698715,175.699036 228.833298,174.990997 219.998337,173.864349 
	C219.995865,173.383484 219.994583,173.191132 219.996445,172.530273 
	C219.998108,163.372620 219.996613,154.683487 219.995773,145.526031 
	C219.997208,133.916519 219.926285,122.774529 220.045013,111.634560 
	C220.078171,108.523796 220.671265,105.419014 221.007507,102.311485 
z"/>
<path fill="#3CEBBC" opacity="1.000000" stroke="none" 
	d="
M139.729095,284.989410 
	C135.298080,275.583069 130.243530,266.414459 126.549950,256.726959 
	C114.195526,224.323883 108.933083,190.469299 107.431931,155.841370 
	C110.302818,165.066391 112.406830,174.593246 115.518501,183.778748 
	C121.674850,201.951965 128.346420,219.951630 134.886551,237.993484 
	C138.999191,249.338791 143.180664,260.661163 147.542450,271.911926 
	C148.174896,273.543243 149.989746,274.716156 151.067596,276.386780 
	C147.161530,279.444702 143.445312,282.217072 139.729095,284.989410 
z"/>
<path fill="#7D16D7" opacity="1.000000" stroke="none" 
	d="
M306.960052,272.866394 
	C302.292328,281.196838 297.624634,289.527252 292.230042,297.949982 
	C290.336365,296.349579 288.372894,294.758759 288.141174,292.946533 
	C287.157379,285.253815 286.569946,277.503143 286.061554,269.758942 
	C285.512726,261.398926 283.552032,252.999664 286.891724,244.698517 
	C287.554352,243.051559 286.996155,240.913452 287.035767,238.652863 
	C290.380280,234.535538 293.689972,230.767166 297.369720,226.994812 
	C300.934052,224.136185 304.206116,221.363144 307.305145,218.408539 
	C312.464905,213.489120 317.513702,208.453308 323.394226,202.698303 
	C324.712402,205.937271 325.432831,207.707443 326.153259,209.477631 
	C326.153259,209.477631 326.305817,209.736313 325.972351,209.975616 
	C325.697327,210.802444 325.755768,211.389984 325.814148,211.977509 
	C324.334717,218.776291 322.855286,225.575089 320.893677,232.419037 
	C319.196259,225.362518 318.664703,225.048218 311.681427,227.212906 
	C309.944031,227.751450 308.051971,227.976059 306.480286,228.813049 
	C304.847748,229.682449 302.845093,230.820511 302.162994,232.355881 
	C297.416138,243.040390 296.274811,254.238251 298.122559,265.773224 
	C298.861877,270.388672 299.453186,275.027863 300.111847,279.656250 
	C300.678253,279.785339 301.244690,279.914398 301.811096,280.043488 
	C302.970093,277.862640 304.077301,275.651154 305.333923,273.528076 
	C305.571259,273.127167 306.402740,273.077911 306.960052,272.866394 
z"/>
<path fill="#29E0C0" opacity="1.000000" stroke="none" 
	d="
M122.445755,130.492355 
	C124.706757,137.941925 126.099556,145.602142 128.576447,152.894135 
	C138.592163,182.380539 148.930786,211.757355 159.175919,241.165665 
	C161.729858,248.496674 164.379807,255.794235 166.696198,263.641937 
	C164.927765,265.423462 163.448761,266.670258 161.718369,268.004639 
	C161.308395,268.393127 161.149811,268.694031 160.790344,269.132996 
	C160.322723,269.472839 160.128647,269.729492 159.766251,270.059814 
	C159.525284,270.078552 159.045273,270.135498 159.032150,269.711060 
	C158.580933,267.025665 158.401672,264.676208 157.663467,262.517944 
	C152.139755,246.368271 146.497147,230.259308 140.908157,214.131927 
	C134.296371,195.053146 127.552261,176.018219 121.173096,156.861847 
	C118.683929,149.387009 117.031830,141.633392 115.283943,133.883301 
	C116.372231,133.155945 117.175041,132.552063 117.977859,131.948181 
	C119.343864,131.476700 120.709877,131.005219 122.445755,130.492355 
z"/>
<path fill="#17CAD8" opacity="1.000000" stroke="none" 
	d="
M156.174042,120.497345 
	C159.542145,119.380302 162.910263,118.263260 166.902649,117.375641 
	C168.971283,117.365349 170.546570,117.413216 171.833344,116.827370 
	C174.713257,115.516190 175.796326,117.136375 176.632111,119.360977 
	C184.139908,139.344620 191.634781,159.333145 198.983856,179.512985 
	C198.530640,180.068253 198.227020,180.430786 197.567520,180.858063 
	C193.518906,183.040817 189.826172,185.158829 185.984619,186.925812 
	C183.832825,181.321640 181.852798,176.059616 179.822479,170.817062 
	C173.968552,155.701447 168.234207,140.536163 162.070129,125.547798 
	C161.193619,123.416519 158.192062,122.159172 156.174042,120.497345 
z"/>
<path fill="#33E6BD" opacity="1.000000" stroke="none" 
	d="
M151.257416,276.101196 
	C149.989746,274.716156 148.174896,273.543243 147.542450,271.911926 
	C143.180664,260.661163 138.999191,249.338791 134.886551,237.993484 
	C128.346420,219.951630 121.674850,201.951965 115.518501,183.778748 
	C112.406830,174.593246 110.302818,165.066391 107.516724,155.395599 
	C107.242310,150.702972 107.194374,146.308655 107.586853,141.468811 
	C109.062042,142.350266 110.539436,143.523895 111.060814,145.028748 
	C114.863251,156.003860 118.431152,167.059906 122.160400,178.060806 
	C124.394730,184.651840 126.851898,191.167252 129.094604,197.755569 
	C134.866730,214.712112 140.652283,231.664825 146.276108,248.670776 
	C149.029846,256.997864 151.435699,265.440002 153.726685,273.968567 
	C152.722061,274.771790 151.989746,275.436493 151.257416,276.101196 
z"/>
<path fill="#8217D7" opacity="1.000000" stroke="none" 
	d="
M287.000916,239.001831 
	C286.996155,240.913452 287.554352,243.051559 286.891724,244.698517 
	C283.552032,252.999664 285.512726,261.398926 286.061554,269.758942 
	C286.569946,277.503143 287.157379,285.253815 288.141174,292.946533 
	C288.372894,294.758759 290.336365,296.349579 291.915863,298.082092 
	C291.803131,299.242889 291.277710,300.363831 290.253662,301.852783 
	C289.654205,302.607544 289.553375,302.994293 289.452576,303.381012 
	C289.452576,303.381012 289.492737,303.435669 289.130981,303.397217 
	C287.276855,305.671814 285.784515,307.984863 284.292206,310.297913 
	C284.292206,310.297913 284.180206,310.215027 283.953735,310.267334 
	C283.599121,310.670288 283.470978,311.020966 283.342804,311.371613 
	C283.342804,311.371613 283.311523,311.224854 283.038879,311.293640 
	C282.537323,311.945374 282.308411,312.528351 282.079529,313.111328 
	C282.079529,313.111328 282.026886,313.018433 281.707886,313.055267 
	C280.671631,314.151520 279.954407,315.210938 279.237183,316.270386 
	C279.237183,316.270386 279.103943,316.051880 278.783447,316.065613 
	C276.983826,314.382324 274.548645,312.855255 274.210968,310.955383 
	C273.321289,305.949799 273.363129,300.780823 272.997009,295.679565 
	C272.328522,286.364502 271.593628,277.053955 270.972809,267.735779 
	C270.780060,264.842712 270.192596,261.735443 270.966400,259.068817 
	C272.555878,253.591095 274.942627,248.344681 277.374756,242.997223 
	C280.832489,241.661530 283.916718,240.331680 287.000916,239.001831 
z"/>
<path fill="#1AC5E0" opacity="1.000000" stroke="none" 
	d="
M199.133453,179.320236 
	C191.634781,159.333145 184.139908,139.344620 176.632111,119.360977 
	C175.796326,117.136375 174.713257,115.516190 171.833344,116.827370 
	C170.546570,117.413216 168.971283,117.365349 167.285217,117.383743 
	C169.154434,116.453110 171.265366,115.743790 173.860809,115.002502 
	C174.345322,114.970535 174.740601,114.810959 174.740601,114.810959 
	C175.232910,114.592834 175.725204,114.374710 176.733856,114.293694 
	C177.488693,114.260902 177.727173,114.091003 177.965668,113.921097 
	C178.760223,113.604362 179.554779,113.287621 180.898727,113.243980 
	C184.298752,113.009560 187.149399,112.502045 190.006500,112.385345 
	C197.465851,133.033539 204.918732,153.290924 212.321045,173.410843 
	C215.111191,173.260986 217.552246,173.129883 219.993286,172.998779 
	C219.994583,173.191132 219.995865,173.383484 219.623810,173.997879 
	C212.544800,176.053360 205.839127,177.686798 199.133453,179.320236 
z"/>
<path fill="#15D3C9" opacity="1.000000" stroke="none" 
	d="
M142.002441,124.972946 
	C142.485458,124.665588 142.968491,124.358223 143.905640,124.290375 
	C144.861740,124.258728 145.363724,123.987556 145.865692,123.716385 
	C145.865692,123.716385 145.936523,123.796394 146.241943,123.907990 
	C148.623428,127.923409 151.112946,131.666367 152.705032,135.758484 
	C160.219421,155.072708 167.444595,174.499420 174.936295,193.822678 
	C175.471558,195.203278 177.317474,196.075714 178.406143,197.515152 
	C177.050919,200.188080 175.843521,202.530304 174.389038,205.117920 
	C172.912323,209.290283 171.682693,213.217209 170.134308,216.971497 
	C168.785995,213.707153 167.823914,210.591110 166.716232,207.527695 
	C158.328766,184.331711 149.778229,161.193100 141.633606,137.912399 
	C140.221024,133.874619 136.259735,129.087631 142.002441,124.972946 
z"/>
<path fill="#15CFCF" opacity="1.000000" stroke="none" 
	d="
M178.553986,197.184433 
	C177.317474,196.075714 175.471558,195.203278 174.936295,193.822678 
	C167.444595,174.499420 160.219421,155.072708 152.705032,135.758484 
	C151.112946,131.666367 148.623428,127.923409 146.188538,123.909225 
	C148.313644,122.894707 150.797592,121.990540 153.837433,121.311241 
	C154.952972,121.211670 155.512619,120.887238 156.072266,120.562805 
	C156.072266,120.562805 156.117905,120.515991 156.145966,120.506668 
	C158.192062,122.159172 161.193619,123.416519 162.070129,125.547798 
	C168.234207,140.536163 173.968552,155.701447 179.822479,170.817062 
	C181.852798,176.059616 183.832825,181.321640 185.973114,187.266556 
	C183.591614,191.033707 181.072800,194.109070 178.553986,197.184433 
z"/>
<path fill="#2FE4BE" opacity="1.000000" stroke="none" 
	d="
M153.999008,273.830078 
	C151.435699,265.440002 149.029846,256.997864 146.276108,248.670776 
	C140.652283,231.664825 134.866730,214.712112 129.094604,197.755569 
	C126.851898,191.167252 124.394730,184.651840 122.160400,178.060806 
	C118.431152,167.059906 114.863251,156.003860 111.060814,145.028748 
	C110.539436,143.523895 109.062042,142.350266 107.672218,141.011292 
	C107.261940,140.234848 107.206711,139.470398 107.392441,138.176392 
	C107.824806,137.374985 107.861092,137.083694 107.742249,136.772995 
	C107.742249,136.772995 107.838989,137.008942 108.061462,136.853149 
	C108.387100,136.356903 108.490265,136.016418 108.593430,135.675934 
	C108.593422,135.675934 108.556297,135.552002 108.755096,135.624710 
	C109.092514,135.668320 109.231148,135.639206 109.369766,135.610107 
	C109.220924,135.403610 109.072083,135.197113 108.923233,134.990601 
	C109.413300,134.662796 109.903366,134.334991 110.893921,134.264130 
	C112.595772,134.349640 113.797127,134.178207 114.998474,134.006760 
	C117.031830,141.633392 118.683929,149.387009 121.173096,156.861847 
	C127.552261,176.018219 134.296371,195.053146 140.908157,214.131927 
	C146.497147,230.259308 152.139755,246.368271 157.663467,262.517944 
	C158.401672,264.676208 158.580933,267.025665 158.866394,269.983154 
	C157.142166,271.729828 155.570587,272.779938 153.999008,273.830078 
z"/>
<path fill="#1AD8C5" opacity="1.000000" stroke="none" 
	d="
M141.622147,124.918381 
	C136.259735,129.087631 140.221024,133.874619 141.633606,137.912399 
	C149.778229,161.193100 158.328766,184.331711 166.716232,207.527695 
	C167.823914,210.591110 168.785995,213.707153 170.121765,217.406387 
	C170.191086,220.037781 169.954208,222.061630 169.505295,224.332764 
	C169.445755,226.020752 169.598267,227.461426 169.853790,229.245667 
	C169.936707,230.063309 169.916626,230.537415 169.896545,231.011505 
	C168.009079,229.453735 165.122910,228.265472 164.388687,226.281021 
	C157.082169,206.532852 150.089294,186.667892 143.095932,166.804916 
	C139.295029,156.009399 135.596786,145.176178 132.024414,134.303391 
	C131.449554,132.553757 131.777557,130.507462 131.794495,128.229660 
	C131.900787,127.861015 131.933426,127.892433 132.268158,127.930618 
	C133.391022,127.613670 134.179169,127.258545 134.967300,126.903419 
	C137.058823,126.223549 139.150330,125.543678 141.622147,124.918381 
z"/>
<path fill="#D048E7" opacity="1.000000" stroke="none" 
	d="
M172.999039,260.154510 
	C174.640915,258.789825 176.282791,257.425171 178.459656,256.052887 
	C180.538559,257.758392 182.082504,259.471527 183.746826,261.461548 
	C184.036682,262.103394 184.206177,262.468323 184.045990,263.027466 
	C183.185272,264.059143 182.341843,264.837677 182.171036,265.743073 
	C180.266785,275.836731 176.762634,285.760193 179.557068,296.316010 
	C181.329865,303.012665 182.293976,309.928711 184.173203,316.590546 
	C186.489502,324.801758 189.380035,332.850952 191.920502,341.081635 
	C191.818588,341.193085 191.616013,341.417175 191.616013,341.417175 
	C190.287155,340.685242 188.958298,339.953278 187.312531,339.141113 
	C186.768005,338.804565 186.540421,338.548187 186.123230,337.734436 
	C184.879517,336.528381 183.825394,335.879730 182.771286,335.231110 
	C182.771286,335.231110 182.784714,335.141357 182.752182,334.904266 
	C182.402573,334.520996 182.085480,334.374847 181.768402,334.228699 
	C181.768402,334.228668 181.919159,334.186432 181.766022,333.912903 
	C180.989456,333.463898 180.366028,333.288391 179.742599,333.112885 
	C179.742599,333.112885 179.357956,333.006287 179.161591,332.598816 
	C178.551559,331.876495 178.137909,331.561646 177.724243,331.246765 
	C177.724243,331.246765 177.949448,331.087738 177.818680,330.838989 
	C176.758163,330.091797 175.828415,329.593292 174.898666,329.094788 
	C174.898666,329.094788 175.005936,329.076050 174.988998,328.744812 
	C174.978455,327.944489 174.984863,327.475433 174.986847,326.604950 
	C173.167328,318.498474 171.154251,310.832703 169.613052,303.073242 
	C168.720627,298.580109 167.779694,293.845764 168.278854,289.378448 
	C169.373291,279.583618 171.370483,269.889648 172.999039,260.154510 
z"/>
<path fill="#8B1CD8" opacity="1.000000" stroke="none" 
	d="
M277.001221,243.003052 
	C274.942627,248.344681 272.555878,253.591095 270.966400,259.068817 
	C270.192596,261.735443 270.780060,264.842712 270.972809,267.735779 
	C271.593628,277.053955 272.328522,286.364502 272.997009,295.679565 
	C273.363129,300.780823 273.321289,305.949799 274.210968,310.955383 
	C274.548645,312.855255 276.983826,314.382324 278.869812,316.160004 
	C275.581421,319.843811 271.886200,323.446930 267.655457,326.619629 
	C266.341888,324.391510 265.089264,322.649506 264.870575,320.786133 
	C264.062103,313.898682 263.539490,306.975372 263.013306,300.057648 
	C262.260223,290.156860 261.753296,280.233887 260.778442,270.356171 
	C260.559967,268.142700 258.839142,266.077484 257.968109,263.641937 
	C264.428345,256.665131 269.608337,249.374786 271.041260,239.999557 
	C271.136719,240.023056 271.324585,240.081131 271.582092,240.017258 
	C271.949677,239.321365 272.059753,238.689362 272.201141,237.775803 
	C272.458466,236.990036 272.684448,236.485809 273.188141,236.178970 
	C274.644318,238.585266 275.822784,240.794159 277.001221,243.003052 
z"/>
<path fill="#921DD8" opacity="1.000000" stroke="none" 
	d="
M257.809937,263.944031 
	C258.839142,266.077484 260.559967,268.142700 260.778442,270.356171 
	C261.753296,280.233887 262.260223,290.156860 263.013306,300.057648 
	C263.539490,306.975372 264.062103,313.898682 264.870575,320.786133 
	C265.089264,322.649506 266.341888,324.391510 267.278931,326.620789 
	C266.851959,327.986603 266.265991,328.920898 265.071838,329.965393 
	C264.069427,330.520477 263.675201,330.965332 263.280975,331.410156 
	C263.280975,331.410156 263.240875,331.249634 263.022766,331.273621 
	C262.533264,331.766266 262.261871,332.234985 261.990448,332.703674 
	C261.990448,332.703674 261.753235,333.031281 261.189819,333.064697 
	C259.833649,333.855591 259.040894,334.613068 258.248138,335.370575 
	C258.248138,335.370575 258.007019,335.073578 257.758240,335.067810 
	C256.334076,333.456757 254.275940,331.932556 254.120056,330.233734 
	C252.567001,313.310211 251.395905,296.351990 249.929779,279.419769 
	C249.698151,276.744598 248.534256,274.150116 248.015152,271.305359 
	C248.862793,270.589386 249.496704,270.086395 250.300537,269.554138 
	C250.682724,269.401764 250.818268,269.221039 250.923462,268.990967 
	C250.969803,268.999207 250.986053,268.906464 251.298767,268.806091 
	C253.677628,267.118500 255.743774,265.531281 257.809937,263.944031 
z"/>
<path fill="#7414D7" opacity="1.000000" stroke="none" 
	d="
M307.214050,272.599792 
	C306.402740,273.077911 305.571259,273.127167 305.333923,273.528076 
	C304.077301,275.651154 302.970093,277.862640 301.811096,280.043488 
	C301.244690,279.914398 300.678253,279.785339 300.111847,279.656250 
	C299.453186,275.027863 298.861877,270.388672 298.122559,265.773224 
	C296.274811,254.238251 297.416138,243.040390 302.162994,232.355881 
	C302.845093,230.820511 304.847748,229.682449 306.480286,228.813049 
	C308.051971,227.976059 309.944031,227.751450 311.681427,227.212906 
	C318.664703,225.048218 319.196259,225.362518 320.684479,232.720703 
	C317.259277,243.821777 313.564575,254.667526 309.860168,265.509979 
	C309.080963,267.790619 308.266327,270.059113 307.214050,272.599792 
z"/>
<path fill="#22BEF0" opacity="1.000000" stroke="none" 
	d="
M190.000031,111.994522 
	C187.149399,112.502045 184.298752,113.009560 181.228821,113.265541 
	C194.058624,109.389259 207.107727,105.764511 220.582153,102.225616 
	C220.671265,105.419014 220.078171,108.523796 220.045013,111.634560 
	C219.926285,122.774529 219.997208,133.916519 219.637634,145.486633 
	C218.130508,144.229858 216.638168,142.683044 215.892166,140.834961 
	C212.246948,131.804672 208.963486,122.625023 205.162354,113.663513 
	C204.284286,111.593369 201.801086,108.680038 200.187103,108.760902 
	C196.746048,108.933296 193.390564,110.813881 190.000031,111.994522 
z"/>
<path fill="#DF61EC" opacity="1.000000" stroke="none" 
	d="
M174.991272,327.006348 
	C174.984863,327.475433 174.978455,327.944489 174.936829,328.764679 
	C166.973862,320.718445 158.652359,312.649902 151.264221,303.802032 
	C146.742188,298.386475 143.652710,291.774780 139.824478,285.344849 
	C143.445312,282.217072 147.161530,279.444702 151.067581,276.386780 
	C151.989746,275.436493 152.722061,274.771790 153.726685,273.968567 
	C155.570587,272.779938 157.142166,271.729828 158.879517,270.407593 
	C159.045273,270.135498 159.525284,270.078552 159.763885,270.498138 
	C158.862640,277.876678 157.712402,284.833923 156.585709,291.795013 
	C155.347504,299.444916 155.005493,307.020630 160.823639,313.166412 
	C165.358871,317.957031 170.255341,322.405701 174.991272,327.006348 
z"/>
<path fill="#8233DB" opacity="1.000000" stroke="none" 
	d="
M330.914062,178.984940 
	C330.906921,179.743454 330.899780,180.501968 330.469238,181.693726 
	C330.063599,183.096680 330.081390,184.066360 330.099121,185.036057 
	C329.899384,187.150970 329.699646,189.265884 328.866028,191.695679 
	C326.318298,192.348831 324.039917,192.134628 322.551025,193.116959 
	C314.262665,198.585449 306.165771,204.344070 297.669189,210.002380 
	C296.889465,210.000458 296.443939,209.999588 296.004547,209.616089 
	C298.007538,204.156250 300.004364,199.079041 302.303925,193.853577 
	C310.039612,188.488708 317.453278,183.244232 324.917572,178.072784 
	C327.107880,176.555252 329.242584,176.533188 330.914062,178.984940 
z"/>
<path fill="#7C27D9" opacity="1.000000" stroke="none" 
	d="
M298.003387,210.003448 
	C306.165771,204.344070 314.262665,198.585449 322.551025,193.116959 
	C324.039917,192.134628 326.318298,192.348831 328.652374,192.016785 
	C328.262451,197.618271 327.452301,203.213547 326.397705,209.143219 
	C325.432831,207.707443 324.712402,205.937271 323.394226,202.698303 
	C317.513702,208.453308 312.464905,213.489120 307.305145,218.408539 
	C304.206116,221.363144 300.934052,224.136185 297.412964,226.614075 
	C298.207336,220.872101 302.439423,215.682663 298.003387,210.003448 
z"/>
<path fill="#893FDD" opacity="1.000000" stroke="none" 
	d="
M331.035461,178.635559 
	C329.242584,176.533188 327.107880,176.555252 324.917572,178.072784 
	C317.453278,183.244232 310.039612,188.488708 301.866272,193.853012 
	C299.083954,194.000885 297.041992,194.001068 295.035461,193.644760 
	C296.714386,189.859055 298.357819,186.429840 300.303284,182.853119 
	C308.940155,177.197998 317.269531,171.682098 325.613312,166.188065 
	C327.972046,164.634949 330.196777,164.514496 332.061707,167.012573 
	C332.108948,167.457275 332.156189,167.901962 331.942535,168.746826 
	C331.608246,169.246048 331.451172,169.393692 331.475677,169.435898 
	C331.592133,169.636490 331.758026,169.808365 331.906311,169.990463 
	C331.914154,170.758499 331.921997,171.526535 331.692871,172.742188 
	C331.258820,173.468643 331.300232,173.718307 331.580139,173.938797 
	C331.439056,175.387924 331.297943,176.837067 331.035461,178.635559 
z"/>
<path fill="#904BDE" opacity="1.000000" stroke="none" 
	d="
M332.086060,166.563141 
	C330.196777,164.514496 327.972046,164.634949 325.613312,166.188065 
	C317.269531,171.682098 308.940155,177.197998 299.880127,182.852783 
	C296.436615,183.333099 293.718292,183.666245 291.035400,183.652313 
	C294.444000,179.838898 297.809631,176.365173 301.192780,172.908630 
	C303.783447,170.261765 306.396301,167.636627 309.357269,164.965179 
	C314.434509,162.187668 319.203766,159.528305 323.854797,156.676224 
	C326.770325,154.888397 329.621094,153.418686 333.092926,154.993393 
	C332.765442,158.700165 332.437958,162.406921 332.086060,166.563141 
z"/>
<path fill="#9658E0" opacity="1.000000" stroke="none" 
	d="
M333.175079,154.531876 
	C329.621094,153.418686 326.770325,154.888397 323.854797,156.676224 
	C319.203766,159.528305 314.434509,162.187668 308.974548,164.970459 
	C305.047455,166.232117 301.921082,167.664169 298.651215,168.588562 
	C296.811768,169.108597 294.735413,168.790695 292.765808,168.850281 
	C305.983093,158.648804 319.200378,148.447327 332.727234,138.099731 
	C333.110291,143.325867 333.183777,148.698105 333.175079,154.531876 
z"/>
<path fill="#22BEF0" opacity="1.000000" stroke="none" 
	d="
M224.994507,104.005959 
	C224.439331,103.590088 223.884140,103.174225 223.192474,102.533188 
	C232.851120,105.064270 242.646240,107.820518 252.711243,110.809509 
	C251.194351,110.787773 249.407562,110.533302 246.914307,110.134995 
	C239.136719,107.996101 232.065613,106.001030 224.994507,104.005959 
z"/>
<path fill="#8B1CD8" opacity="1.000000" stroke="none" 
	d="
M284.588287,310.154083 
	C285.784515,307.984863 287.276855,305.671814 289.140442,303.429810 
	C287.969238,305.670624 286.426788,307.840424 284.588287,310.154083 
z"/>
<path fill="#33E6BD" opacity="1.000000" stroke="none" 
	d="
M115.283951,133.883301 
	C113.797127,134.178207 112.595772,134.349640 111.200363,134.267776 
	C113.078163,133.324005 115.150032,132.633514 117.599876,131.945602 
	C117.175041,132.552063 116.372231,133.155945 115.283951,133.883301 
z"/>
<path fill="#8B1CD8" opacity="1.000000" stroke="none" 
	d="
M279.528992,316.148438 
	C279.954407,315.210938 280.671631,314.151520 281.753235,313.083435 
	C281.351990,314.058685 280.586395,315.042603 279.528992,316.148438 
z"/>
<path fill="#893FDD" opacity="1.000000" stroke="none" 
	d="
M330.300415,184.784027 
	C330.081390,184.066360 330.063599,183.096680 330.346924,182.054321 
	C330.599213,182.831757 330.550446,183.681870 330.300415,184.784027 
z"/>
<path fill="#D752E9" opacity="1.000000" stroke="none" 
	d="
M182.864380,335.526306 
	C183.825394,335.879730 184.879517,336.528381 185.991318,337.514099 
	C185.018494,337.174591 183.987976,336.498016 182.864380,335.526306 
z"/>
<path fill="#22BEF0" opacity="1.000000" stroke="none" 
	d="
M256.732056,111.999840 
	C256.322174,112.126572 255.714478,112.068314 255.051514,111.773239 
	C255.508926,111.629234 256.021576,111.722046 256.732056,111.999840 
z"/>
<path fill="#DF61EC" opacity="1.000000" stroke="none" 
	d="
M175.025696,329.385254 
	C175.828415,329.593292 176.758163,330.091797 177.720795,330.936066 
	C176.886688,330.746490 176.019699,330.211090 175.025696,329.385254 
z"/>
<path fill="#9B21D9" opacity="1.000000" stroke="none" 
	d="
M258.543213,335.320374 
	C259.040894,334.613068 259.833649,333.855591 260.994812,333.118225 
	C260.990540,333.566681 260.617889,333.994995 260.112549,334.677917 
	C259.599365,335.045105 259.218811,335.157654 258.543213,335.320374 
z"/>
<path fill="#22DCC2" opacity="1.000000" stroke="none" 
	d="
M134.628082,126.893433 
	C134.179169,127.258545 133.391022,127.613670 132.250320,127.938141 
	C132.694794,127.566139 133.491837,127.224792 134.628082,126.893433 
z"/>
<path fill="#D752E9" opacity="1.000000" stroke="none" 
	d="
M179.912018,333.382812 
	C180.366028,333.288391 180.989456,333.463898 181.709091,333.966644 
	C181.230682,334.080170 180.656052,333.866455 179.912018,333.382812 
z"/>
<path fill="#9B21D9" opacity="1.000000" stroke="none" 
	d="
M262.240265,332.623779 
	C262.261871,332.234985 262.533264,331.766266 263.098328,331.307312 
	C263.091339,331.726013 262.790710,332.134949 262.240265,332.623779 
z"/>
<path fill="#DF61EC" opacity="1.000000" stroke="none" 
	d="
M177.774902,331.512390 
	C178.137909,331.561646 178.551559,331.876495 179.006958,332.472687 
	C178.640976,332.428680 178.233276,332.103363 177.774902,331.512390 
z"/>
<path fill="#9B21D9" opacity="1.000000" stroke="none" 
	d="
M263.577179,331.352020 
	C263.675201,330.965332 264.069427,330.520477 264.797974,330.065002 
	C264.712646,330.467529 264.293030,330.880707 263.577179,331.352020 
z"/>
<path fill="#7C27D9" opacity="1.000000" stroke="none" 
	d="
M325.957031,211.661743 
	C325.755768,211.389984 325.697327,210.802444 325.880707,210.094574 
	C326.114960,210.431473 326.107422,210.888718 325.957031,211.661743 
z"/>
<path fill="#8B1CD8" opacity="1.000000" stroke="none" 
	d="
M282.349609,312.983337 
	C282.308411,312.528351 282.537323,311.945374 283.102356,311.333618 
	C283.165558,311.821686 282.892639,312.338531 282.349609,312.983337 
z"/>
<path fill="#17CAD8" opacity="1.000000" stroke="none" 
	d="
M155.710236,120.552170 
	C155.512619,120.887238 154.952972,121.211670 154.207947,121.312813 
	C154.464447,120.906860 154.906326,120.724197 155.710236,120.552170 
z"/>
<path fill="#15CFCF" opacity="1.000000" stroke="none" 
	d="
M145.548126,123.713867 
	C145.363724,123.987556 144.861740,124.258728 144.192123,124.315521 
	C144.426514,123.971207 144.828537,123.841278 145.548126,123.713867 
z"/>
<path fill="#3CEBBC" opacity="1.000000" stroke="none" 
	d="
M108.336349,135.749161 
	C108.490265,136.016418 108.387100,136.356903 107.995041,136.744308 
	C107.830521,136.468292 107.954895,136.145340 108.336349,135.749161 
z"/>
<path fill="#904BDE" opacity="1.000000" stroke="none" 
	d="
M331.674438,173.720795 
	C331.300232,173.718307 331.258820,173.468643 331.580872,173.110870 
	C331.705872,173.031937 331.768768,173.502808 331.674438,173.720795 
z"/>
<path fill="#D752E9" opacity="1.000000" stroke="none" 
	d="
M181.836899,334.488770 
	C182.085480,334.374847 182.402573,334.520996 182.784424,334.936188 
	C182.534607,335.053101 182.220016,334.900970 181.836899,334.488770 
z"/>
<path fill="#904BDE" opacity="1.000000" stroke="none" 
	d="
M332.008972,169.751099 
	C331.758026,169.808365 331.592133,169.636490 331.475677,169.435898 
	C331.451172,169.393692 331.608246,169.246048 331.853302,169.072540 
	C332.053864,169.169327 332.082733,169.340530 332.008972,169.751099 
z"/>
<path fill="#3CEBBC" opacity="1.000000" stroke="none" 
	d="
M107.534134,136.894440 
	C107.861092,137.083694 107.824806,137.374985 107.464867,137.798035 
	C107.144279,137.632935 107.154175,137.321823 107.534134,136.894440 
z"/>
<path fill="#22BEF0" opacity="1.000000" stroke="none" 
	d="
M259.760529,112.977493 
	C259.698090,113.142418 259.421204,113.185143 259.098389,113.044670 
	C259.052460,112.861473 259.546082,112.855293 259.760529,112.977493 
z"/>
<path fill="#3CEBBC" opacity="1.000000" stroke="none" 
	d="
M108.783829,135.056763 
	C109.072083,135.197113 109.220924,135.403610 109.369766,135.610107 
	C109.231148,135.639206 109.092514,135.668320 108.768326,135.561386 
	C108.582756,135.425354 108.644417,135.122940 108.783829,135.056763 
z"/>
<path fill="#8B1CD8" opacity="1.000000" stroke="none" 
	d="
M283.592773,311.266785 
	C283.470978,311.020966 283.599121,310.670288 284.023376,310.266235 
	C284.160614,310.529205 284.001678,310.845551 283.592773,311.266785 
z"/>
<path fill="#22BEF0" opacity="1.000000" stroke="none" 
	d="
M177.717194,113.910660 
	C177.727173,114.091003 177.488693,114.260902 177.141907,114.286041 
	C177.033600,114.141281 177.468704,113.900230 177.717194,113.910660 
z"/>
<path fill="#8B1CD8" opacity="1.000000" stroke="none" 
	d="
M289.728516,303.236755 
	C289.553375,302.994293 289.654205,302.607544 290.049072,302.088562 
	C290.230225,302.335052 290.117340,302.713776 289.728516,303.236755 
z"/>
<path fill="#22BEF0" opacity="1.000000" stroke="none" 
	d="
M174.628204,114.721054 
	C174.740601,114.810959 174.345322,114.970535 174.241028,114.995117 
	C174.166168,114.795227 174.292542,114.665703 174.628204,114.721054 
z"/>
<path fill="#A524DA" opacity="1.000000" stroke="none" 
	d="
M221.980606,353.624390 
	C221.551529,353.673889 221.122467,353.723389 220.370087,353.430756 
	C220.033112,352.724945 220.019409,352.361267 220.004974,351.529175 
	C220.002594,328.766907 220.025436,306.472931 219.955719,284.179230 
	C219.949722,282.263062 219.329849,280.348785 219.444138,278.348877 
	C222.925003,278.046661 225.956894,277.829224 229.383575,277.679932 
	C230.840210,277.791382 231.902069,277.834656 233.019958,278.295135 
	C233.716217,283.283966 234.600494,287.836914 234.951660,292.430603 
	C236.082138,307.218353 236.909866,322.029694 238.100601,336.812103 
	C238.396378,340.483917 238.781708,344.810913 244.450073,344.208221 
	C238.195953,347.376831 231.941818,350.545441 225.293701,353.460907 
	C223.926666,353.346649 222.953644,353.485535 221.980606,353.624390 
z"/>
<path fill="#9B21D9" opacity="1.000000" stroke="none" 
	d="
M244.773895,344.143311 
	C238.781708,344.810913 238.396378,340.483917 238.100601,336.812103 
	C236.909866,322.029694 236.082138,307.218353 234.951660,292.430603 
	C234.600494,287.836914 233.716217,283.283966 233.206757,277.988342 
	C238.158798,275.348969 242.980103,273.433655 247.801407,271.518341 
	C248.534256,274.150116 249.698151,276.744598 249.929779,279.419769 
	C251.395905,296.351990 252.567001,313.310211 254.120056,330.233734 
	C254.275940,331.932556 256.334076,333.456757 257.890533,335.205872 
	C253.880325,338.259308 249.489029,341.168854 244.773895,344.143311 
z"/>
<path fill="#C033E4" opacity="1.000000" stroke="none" 
	d="
M211.619293,351.414917 
	C207.979370,349.650391 204.339462,347.885864 200.328888,345.748962 
	C199.639832,344.915680 199.321442,344.454773 199.002380,343.572144 
	C196.641388,332.166046 194.073685,321.220978 191.983887,310.185425 
	C190.191650,300.721222 186.189392,291.547028 187.975113,281.553711 
	C188.787201,277.009064 189.354660,272.420715 190.290222,267.943726 
	C191.033386,268.268524 191.519379,268.501770 192.260529,268.981689 
	C196.009109,271.181396 199.502548,273.134460 202.996307,275.490570 
	C202.330658,279.433807 200.946152,283.015442 201.147476,286.505585 
	C201.574173,293.902740 202.503494,301.310303 203.811203,308.608856 
	C206.346558,322.759003 209.285400,336.836792 211.946350,351.061005 
	C211.835663,351.177429 211.619293,351.414917 211.619293,351.414917 
z"/>
<path fill="#C033E4" opacity="1.000000" stroke="none" 
	d="
M220.005722,351.997559 
	C220.019409,352.361267 220.033112,352.724945 220.051361,353.361420 
	C218.042542,353.437561 216.029190,353.240936 213.953369,352.584564 
	C213.890915,352.124817 214.049637,351.926086 214.473389,351.949799 
	C216.599991,351.981537 218.302856,351.989563 220.005722,351.997559 
z"/>
<path fill="#D048E7" opacity="1.000000" stroke="none" 
	d="
M199.003052,343.993896 
	C199.321442,344.454773 199.639832,344.915680 199.981445,345.670227 
	C197.989975,344.990662 195.975281,344.017426 193.866562,342.655426 
	C193.772537,342.266663 194.012054,341.983215 194.349854,342.020020 
	C196.126099,342.702515 197.564575,343.348206 199.003052,343.993896 
z"/>
<path fill="#B629E3" opacity="1.000000" stroke="none" 
	d="
M222.355286,353.701752 
	C222.953644,353.485535 223.926666,353.346649 224.957489,353.515991 
	C224.253494,353.809174 223.491714,353.794128 222.355286,353.701752 
z"/>
<path fill="#D048E7" opacity="1.000000" stroke="none" 
	d="
M193.649109,342.405212 
	C193.023727,342.299347 192.521759,342.054871 191.817902,341.613770 
	C191.616013,341.417175 191.818588,341.193085 192.214813,341.112244 
	C193.078033,341.348694 193.545044,341.665955 194.012054,341.983215 
	C194.012054,341.983215 193.772537,342.266663 193.649109,342.405212 
z"/>
<path fill="#C033E4" opacity="1.000000" stroke="none" 
	d="
M213.811798,352.224365 
	C213.171982,352.155334 212.611313,351.986786 211.834961,351.616577 
	C211.619293,351.414917 211.835663,351.177429 212.234253,351.099121 
	C213.105118,351.322571 213.577377,351.624329 214.049637,351.926086 
	C214.049637,351.926086 213.890915,352.124817 213.811798,352.224365 
z"/>
<path fill="#1EAFEE" opacity="1.000000" stroke="none" 
	d="
M225.002136,104.387802 
	C232.065613,106.001030 239.136719,107.996101 246.598602,110.005630 
	C248.448700,114.231544 249.784058,118.490852 251.388672,122.646194 
	C258.473755,140.994019 265.624451,159.316559 272.798615,177.629761 
	C273.259247,178.805573 274.118317,179.825287 274.903656,181.344772 
	C270.823975,184.894257 266.632690,188.016602 262.029541,191.099945 
	C261.071472,191.048340 260.525330,191.035736 259.989563,191.011566 
	C260.000000,191.000000 259.981659,191.022949 259.880554,190.797958 
	C259.581787,190.291473 259.316833,190.106003 258.992310,190.008270 
	C259.000000,190.000000 258.983429,190.015381 258.881104,189.791809 
	C258.580017,189.288986 258.315002,189.105240 257.991882,189.008514 
	C258.000000,189.000000 257.983002,189.016403 257.880676,188.792557 
	C257.579407,188.289139 257.314056,188.105377 256.991180,188.008698 
	C257.000000,188.000000 256.982941,188.017853 256.866455,187.786484 
	C256.457336,187.383652 256.164703,187.212173 255.586029,186.935349 
	C254.537811,186.157593 253.775620,185.485214 253.013412,184.812836 
	C253.720581,175.593430 248.614441,168.011230 245.832443,159.801514 
	C242.388733,149.639130 238.505829,139.623215 234.701782,129.586029 
	C231.554688,121.282234 228.246552,113.039459 225.002136,104.387802 
z"/>
<path fill="#9B4EDE" opacity="1.000000" stroke="none" 
	d="
M262.441406,191.138947 
	C266.632690,188.016602 270.823975,184.894257 275.264191,181.509338 
	C281.053375,177.183167 286.593628,173.119568 292.449860,168.953125 
	C294.735413,168.790695 296.811768,169.108597 298.651215,168.588562 
	C301.921082,167.664169 305.047455,166.232117 308.616577,165.007126 
	C306.396301,167.636627 303.783447,170.261765 301.192780,172.908630 
	C297.809631,176.365173 294.444000,179.838898 290.685547,183.688522 
	C285.796387,187.280914 281.345276,190.567764 276.770813,193.672897 
	C273.506134,195.888977 270.075745,197.860962 266.470398,199.751434 
	C264.503052,197.167999 262.784576,194.775009 261.329926,192.216034 
	C261.876312,191.746353 262.158875,191.442657 262.441406,191.138947 
z"/>
<path fill="#F7E1F8" opacity="1.000000" stroke="none" 
	d="
M183.626434,261.184631 
	C182.082504,259.471527 180.538559,257.758392 178.759796,255.847015 
	C175.756424,247.671509 172.987900,239.694275 170.057953,231.364273 
	C169.916626,230.537415 169.936707,230.063309 169.978180,229.121582 
	C170.090027,228.437180 170.154480,228.212952 170.702469,227.990463 
	C173.695419,228.002518 176.210144,228.254333 178.654648,227.947250 
	C181.961853,227.531830 185.215195,226.687408 188.697678,226.310089 
	C192.268814,229.444382 195.633926,232.295670 199.251907,235.408554 
	C201.669922,236.281982 203.835068,236.893814 205.989624,237.846191 
	C204.092270,240.518509 202.393295,243.038452 200.282104,245.145355 
	C194.827332,250.589081 189.190536,255.850433 183.626434,261.184631 
z"/>
<path fill="#D752E9" opacity="1.000000" stroke="none" 
	d="
M174.986847,326.604950 
	C170.255341,322.405701 165.358871,317.957031 160.823639,313.166412 
	C155.005493,307.020630 155.347504,299.444916 156.585709,291.795013 
	C157.712402,284.833923 158.862640,277.876678 160.004852,270.479431 
	C160.128647,269.729492 160.322723,269.472839 161.014587,269.015717 
	C161.616394,268.479248 161.793076,268.198120 161.969757,267.917023 
	C163.448761,266.670258 164.927765,265.423462 166.704468,264.021057 
	C168.798492,262.697693 170.594803,261.529968 172.695084,260.258362 
	C171.370483,269.889648 169.373291,279.583618 168.278854,289.378448 
	C167.779694,293.845764 168.720627,298.580109 169.613052,303.073242 
	C171.154251,310.832703 173.167328,318.498474 174.986847,326.604950 
z"/>
<path fill="#1AC0E7" opacity="1.000000" stroke="none" 
	d="
M190.006500,112.385345 
	C193.390564,110.813881 196.746048,108.933296 200.187103,108.760902 
	C201.801086,108.680038 204.284286,111.593369 205.162354,113.663513 
	C208.963486,122.625023 212.246948,131.804672 215.892166,140.834961 
	C216.638168,142.683044 218.130508,144.229858 219.636963,145.954941 
	C219.996613,154.683487 219.998108,163.372620 219.996445,172.530273 
	C217.552246,173.129883 215.111191,173.260986 212.321045,173.410843 
	C204.918732,153.290924 197.465851,133.033539 190.006500,112.385345 
z"/>
<path fill="#EEE8D0" opacity="1.000000" stroke="none" 
	d="
M198.983856,179.512985 
	C205.839127,177.686798 212.544800,176.053360 219.625000,174.286407 
	C228.833298,174.990997 237.698715,175.699036 245.668915,181.001434 
	C244.747437,184.891266 244.250977,188.426834 242.659195,191.369995 
	C239.386627,197.420822 235.528046,203.154709 231.695312,208.754410 
	C230.455612,206.290100 229.431290,204.090393 228.280853,201.563232 
	C224.793381,198.434814 221.432022,195.633850 217.800812,192.569794 
	C214.025375,191.709702 210.519821,191.112701 207.004486,190.176453 
	C206.823563,189.390442 206.607346,188.541351 206.487732,188.554749 
	C200.670029,189.206451 199.550629,184.722443 197.923370,180.793304 
	C198.227020,180.430786 198.530640,180.068253 198.983856,179.512985 
z"/>
<path fill="#E3EAD1" opacity="1.000000" stroke="none" 
	d="
M231.910660,209.019028 
	C235.528046,203.154709 239.386627,197.420822 242.659195,191.369995 
	C244.250977,188.426834 244.747437,184.891266 245.900177,181.260559 
	C248.171387,182.131042 250.282181,183.364853 252.703186,184.705750 
	C253.775620,185.485214 254.537811,186.157593 255.705200,187.164673 
	C256.401245,187.672180 256.692108,187.845016 256.982941,188.017853 
	C256.982941,188.017853 257.000000,188.000000 257.079224,188.243423 
	C257.433289,188.663361 257.708130,188.839874 257.983002,189.016403 
	C257.983002,189.016403 258.000000,189.000000 258.079712,189.243103 
	C258.434082,189.662613 258.708771,189.838989 258.983429,190.015381 
	C258.983429,190.015381 259.000000,190.000000 259.079803,190.243317 
	C259.433624,190.665405 259.707642,190.844177 259.981659,191.022949 
	C259.981659,191.022949 260.000000,191.000000 260.097504,191.287842 
	C260.485382,191.844467 260.775757,192.113251 261.066101,192.382019 
	C262.784576,194.775009 264.503052,197.167999 266.550446,200.127350 
	C267.239227,202.132645 267.599060,203.571579 267.581543,205.012085 
	C259.317047,208.413589 251.445831,211.851120 243.536057,215.197510 
	C239.640427,216.845627 235.673462,218.325165 231.737686,219.430283 
	C231.794617,215.659393 231.852646,212.339218 231.910660,209.019028 
z"/>
<path fill="#8524D9" opacity="1.000000" stroke="none" 
	d="
M297.669189,210.002396 
	C302.439423,215.682663 298.207336,220.872101 297.042908,226.618042 
	C293.689972,230.767166 290.380280,234.535538 287.035736,238.652878 
	C283.916718,240.331680 280.832489,241.661530 277.374756,242.997223 
	C275.822784,240.794159 274.644318,238.585266 273.161194,235.750381 
	C272.907257,233.413071 272.958038,231.701752 273.138245,229.936066 
	C273.267670,229.881699 273.519684,229.757584 273.912720,229.816193 
	C275.101227,229.751450 276.185516,229.919647 276.648743,229.460831 
	C283.148193,223.023529 289.562988,216.500732 295.998383,209.998718 
	C296.443939,209.999588 296.889465,210.000458 297.669189,210.002396 
z"/>
<path fill="#DF61EC" opacity="1.000000" stroke="none" 
	d="
M161.718369,268.004639 
	C161.793076,268.198120 161.616394,268.479248 161.215485,268.877625 
	C161.149811,268.694031 161.308395,268.393127 161.718369,268.004639 
z"/>
<path fill="#EACEC3" opacity="1.000000" stroke="none" 
	d="
M197.567505,180.858063 
	C199.550629,184.722443 200.670029,189.206451 206.487732,188.554749 
	C206.607346,188.541351 206.823563,189.390442 206.609070,190.298645 
	C195.584015,192.065201 189.248810,198.441101 185.392532,208.210220 
	C180.338669,210.924911 177.962250,206.445435 174.636124,204.872513 
	C175.843521,202.530304 177.050919,200.188080 178.406143,197.515152 
	C181.072800,194.109070 183.591614,191.033707 186.121933,187.617584 
	C189.826172,185.158829 193.518906,183.040817 197.567505,180.858063 
z"/>
<path fill="#F0D5DC" opacity="1.000000" stroke="none" 
	d="
M174.389038,205.117920 
	C177.962250,206.445435 180.338669,210.924911 185.345261,208.654846 
	C184.876633,214.403290 184.818771,219.661072 188.061768,224.694763 
	C188.237213,225.323303 188.364426,225.675186 188.491653,226.027069 
	C185.215195,226.687408 181.961853,227.531830 178.654648,227.947250 
	C176.210144,228.254333 173.695419,228.002518 170.638672,227.669128 
	C169.949356,226.254211 169.833344,225.169830 169.717331,224.085464 
	C169.954208,222.061630 170.191086,220.037781 170.440521,217.579041 
	C171.682693,213.217209 172.912323,209.290283 174.389038,205.117920 
z"/>
<path fill="#22DCC2" opacity="1.000000" stroke="none" 
	d="
M169.505295,224.332764 
	C169.833344,225.169830 169.949356,226.254211 170.129150,227.659912 
	C170.154480,228.212952 170.090027,228.437180 169.875153,228.778015 
	C169.598267,227.461426 169.445755,226.020752 169.505295,224.332764 
z"/>
<path fill="#C93DE5" opacity="1.000000" stroke="none" 
	d="
M194.349854,342.020020 
	C193.545044,341.665955 193.078033,341.348694 192.316711,341.000793 
	C189.380035,332.850952 186.489502,324.801758 184.173203,316.590546 
	C182.293976,309.928711 181.329865,303.012665 179.557068,296.316010 
	C176.762634,285.760193 180.266785,275.836731 182.171036,265.743073 
	C182.341843,264.837677 183.185272,264.059143 184.305878,263.196899 
	C186.607971,264.732147 188.320526,266.292145 190.033081,267.852173 
	C189.354660,272.420715 188.787201,277.009064 187.975113,281.553711 
	C186.189392,291.547028 190.191650,300.721222 191.983887,310.185425 
	C194.073685,321.220978 196.641388,332.166046 199.002380,343.572144 
	C197.564575,343.348206 196.126099,342.702515 194.349854,342.020020 
z"/>
<path fill="#EDE0F7" opacity="1.000000" stroke="none" 
	d="
M190.290222,267.943726 
	C188.320526,266.292145 186.607971,264.732147 184.635544,263.002686 
	C184.206177,262.468323 184.036682,262.103394 183.746826,261.461548 
	C189.190536,255.850433 194.827332,250.589081 200.282104,245.145355 
	C202.393295,243.038452 204.092270,240.518509 206.417343,237.746521 
	C209.187119,237.318863 211.518570,237.331406 213.859528,237.513550 
	C213.869019,237.683136 213.928589,238.017868 213.631943,238.172394 
	C206.225327,248.462952 199.115356,258.598999 192.005386,268.735016 
	C191.519379,268.501770 191.033386,268.268524 190.290222,267.943726 
z"/>
<path fill="#BEE9EE" opacity="1.000000" stroke="none" 
	d="
M257.968109,263.641937 
	C255.743774,265.531281 253.677628,267.118500 251.295685,268.436707 
	C249.624329,264.840851 248.268768,261.514069 247.316055,258.141785 
	C249.150192,257.975494 250.581482,257.854614 251.885040,257.744537 
	C253.358643,251.354813 251.849670,246.474548 246.930527,242.363190 
	C243.259399,239.294907 240.189590,235.507141 237.239502,232.023605 
	C242.367554,232.982849 247.140152,233.826050 251.840790,234.966003 
	C258.237915,236.517349 264.580078,238.295273 270.945801,239.976059 
	C269.608337,249.374786 264.428345,256.665131 257.968109,263.641937 
z"/>
<path fill="#CAEFEB" opacity="1.000000" stroke="none" 
	d="
M271.041260,239.999557 
	C264.580078,238.295273 258.237915,236.517349 251.840790,234.966003 
	C247.140152,233.826050 242.367554,232.982849 236.991302,231.932419 
	C235.924240,231.569214 235.492905,231.280991 234.933731,230.706573 
	C234.132889,229.625534 233.459869,228.830704 233.166962,227.969818 
	C235.953201,227.522629 238.399673,226.650620 240.758530,226.844543 
	C251.522079,227.729492 262.261017,228.913757 273.008820,229.990433 
	C272.958038,231.701752 272.907257,233.413071 272.883423,235.552979 
	C272.684448,236.485809 272.458466,236.990036 271.884796,237.870392 
	C271.466278,238.858063 271.395447,239.469604 271.324585,240.081131 
	C271.324585,240.081131 271.136719,240.023056 271.041260,239.999557 
z"/>
<path fill="#8524D9" opacity="1.000000" stroke="none" 
	d="
M271.582123,240.017258 
	C271.395447,239.469604 271.466278,238.858063 271.853455,238.151947 
	C272.059753,238.689362 271.949677,239.321365 271.582123,240.017258 
z"/>
<path fill="#C0DBE8" opacity="1.000000" stroke="none" 
	d="
M246.913208,258.187256 
	C248.268768,261.514069 249.624329,264.840851 250.982971,268.537048 
	C250.986053,268.906464 250.969803,268.999207 250.783020,269.071167 
	C250.411560,269.258698 250.256348,269.405457 250.130600,269.583374 
	C249.496704,270.086395 248.862793,270.589386 248.015152,271.305359 
	C242.980103,273.433655 238.158798,275.348969 233.150696,277.571106 
	C231.902069,277.834656 230.840210,277.791382 229.387207,277.256683 
	C228.769180,274.009003 228.579147,271.249115 228.308212,268.497192 
	C227.623413,261.541718 226.902252,254.589783 226.466156,247.894684 
	C228.207016,248.693115 229.807983,249.023651 231.109726,249.834534 
	C232.325577,250.591919 234.127548,251.876938 234.107574,252.899139 
	C234.013840,257.693726 236.754318,258.253326 240.507370,258.034058 
	C242.632416,257.909912 244.777283,258.124969 246.913208,258.187256 
z"/>
<path fill="#BEE9EE" opacity="1.000000" stroke="none" 
	d="
M250.300537,269.554138 
	C250.256348,269.405457 250.411560,269.258698 250.736664,269.062897 
	C250.818268,269.221039 250.682724,269.401764 250.300537,269.554138 
z"/>
<path fill="#8C32DA" opacity="1.000000" stroke="none" 
	d="
M296.004547,209.616089 
	C289.562988,216.500732 283.148193,223.023529 276.648743,229.460831 
	C276.185516,229.919647 275.101227,229.751450 273.905182,229.383972 
	C273.002533,223.595413 272.500397,218.297684 272.350708,212.965210 
	C274.695831,211.559753 276.846710,210.369217 278.651733,208.784698 
	C284.172546,203.938217 289.560425,198.940292 295.000000,194.001251 
	C297.041992,194.001068 299.083954,194.000885 301.563599,194.001266 
	C300.004364,199.079041 298.007538,204.156250 296.004547,209.616089 
z"/>
<path fill="#943FDC" opacity="1.000000" stroke="none" 
	d="
M295.035492,193.644775 
	C289.560425,198.940292 284.172546,203.938217 278.651733,208.784698 
	C276.846710,210.369217 274.695831,211.559753 272.127655,212.700989 
	C270.354431,209.984497 269.156647,207.497513 267.958893,205.010529 
	C267.599060,203.571579 267.239227,202.132645 266.799316,200.317780 
	C270.075745,197.860962 273.506134,195.888977 276.770813,193.672897 
	C281.345276,190.567764 285.796387,187.280914 290.650146,184.035599 
	C293.718292,183.666245 296.436615,183.333099 299.578064,183.000275 
	C298.357819,186.429840 296.714386,189.859055 295.035492,193.644775 
z"/>
<path fill="#B629E3" opacity="1.000000" stroke="none" 
	d="
M214.473389,351.949799 
	C213.577377,351.624329 213.105118,351.322571 212.344955,350.982727 
	C209.285400,336.836792 206.346558,322.759003 203.811203,308.608856 
	C202.503494,301.310303 201.574173,293.902740 201.147476,286.505585 
	C200.946152,283.015442 202.330658,279.433807 203.245636,275.457642 
	C203.660599,274.998108 203.826538,274.974579 204.313110,275.166382 
	C208.080856,276.064148 211.527969,276.746521 215.282074,277.595459 
	C216.724411,277.985870 217.859787,278.209747 218.995148,278.433624 
	C219.329849,280.348785 219.949722,282.263062 219.955719,284.179230 
	C220.025436,306.472931 220.002594,328.766907 220.004974,351.529175 
	C218.302856,351.989563 216.599991,351.981537 214.473389,351.949799 
z"/>
<path fill="#CADBF1" opacity="1.000000" stroke="none" 
	d="
M219.444138,278.348877 
	C217.859787,278.209747 216.724411,277.985870 215.299606,277.137024 
	C216.340637,265.007202 217.671112,253.502396 219.400055,241.852234 
	C221.199463,241.781952 222.600372,241.857025 224.041992,242.262726 
	C224.736557,243.062637 225.390442,243.531952 226.154465,244.353638 
	C226.241638,245.682800 226.218658,246.659622 226.195679,247.636429 
	C226.902252,254.589783 227.623413,261.541718 228.308212,268.497192 
	C228.579147,271.249115 228.769180,274.009003 228.992416,277.188507 
	C225.956894,277.829224 222.925003,278.046661 219.444138,278.348877 
z"/>
<path fill="#E0E1F9" opacity="1.000000" stroke="none" 
	d="
M203.992493,274.951019 
	C203.826538,274.974579 203.660599,274.998108 203.245331,275.054565 
	C199.502548,273.134460 196.009109,271.181396 192.260529,268.981689 
	C199.115356,258.598999 206.225327,248.462952 213.916809,238.218964 
	C215.168228,238.776688 215.838135,239.442383 216.359985,240.543457 
	C214.795242,244.681290 213.306335,248.358032 211.977066,252.091614 
	C209.269958,259.695190 206.648972,267.329437 203.992493,274.951019 
z"/>
<path fill="#1CB3E6" opacity="1.000000" stroke="none" 
	d="
M261.329926,192.216034 
	C260.775757,192.113251 260.485382,191.844467 260.087097,191.299408 
	C260.525330,191.035736 261.071472,191.048340 262.029541,191.099945 
	C262.158875,191.442657 261.876312,191.746353 261.329926,192.216034 
z"/>
<path fill="#1CB3E6" opacity="1.000000" stroke="none" 
	d="
M259.880554,190.797958 
	C259.707642,190.844177 259.433624,190.665405 259.072144,190.251587 
	C259.316833,190.106003 259.581787,190.291473 259.880554,190.797958 
z"/>
<path fill="#1CB3E6" opacity="1.000000" stroke="none" 
	d="
M258.881104,189.791809 
	C258.708771,189.838989 258.434082,189.662613 258.071594,189.251617 
	C258.315002,189.105240 258.580017,189.288986 258.881104,189.791809 
z"/>
<path fill="#1CB3E6" opacity="1.000000" stroke="none" 
	d="
M257.880676,188.792557 
	C257.708130,188.839874 257.433289,188.663361 257.070374,188.252136 
	C257.314056,188.105377 257.579407,188.289139 257.880676,188.792557 
z"/>
<path fill="#1CB3E6" opacity="1.000000" stroke="none" 
	d="
M256.866455,187.786484 
	C256.692108,187.845016 256.401245,187.672180 255.991226,187.270020 
	C256.164703,187.212173 256.457336,187.383652 256.866455,187.786484 
z"/>
<path fill="#FE6E02" opacity="1.000000" stroke="none" 
	d="
M188.697678,226.310089 
	C188.364426,225.675186 188.237213,225.323303 188.459534,224.553162 
	C192.551285,219.723572 196.293503,215.312256 200.426804,210.928040 
	C205.203186,211.006088 207.710815,209.049255 207.908600,204.115204 
	C210.714188,199.498718 212.164032,194.125122 218.070679,192.832886 
	C221.432022,195.633850 224.793381,198.434814 227.883942,201.594574 
	C226.199997,202.678543 224.425049,203.077682 223.431168,204.180649 
	C215.729218,212.728043 208.112808,221.355789 200.653870,230.115295 
	C199.594101,231.359818 199.526077,233.448807 198.999023,235.146957 
	C195.633926,232.295670 192.268814,229.444382 188.697678,226.310089 
z"/>
<path fill="#FE7F02" opacity="1.000000" stroke="none" 
	d="
M199.251892,235.408554 
	C199.526077,233.448807 199.594101,231.359818 200.653870,230.115295 
	C208.112808,221.355789 215.729218,212.728043 223.431168,204.180649 
	C224.425049,203.077682 226.199997,202.678543 228.010071,201.922043 
	C229.431290,204.090393 230.455612,206.290100 231.695312,208.754410 
	C231.852646,212.339218 231.794617,215.659393 231.577484,219.470032 
	C231.418381,219.960480 231.099442,220.046951 230.825226,219.874329 
	C229.769806,219.310486 228.468262,218.411850 228.282990,218.601822 
	C222.745346,224.280334 216.199387,229.212891 213.850037,237.343948 
	C211.518570,237.331406 209.187119,237.318863 206.427933,237.405975 
	C203.835068,236.893814 201.669922,236.281982 199.251892,235.408554 
z"/>
<path fill="#FE6206" opacity="1.000000" stroke="none" 
	d="
M200.035706,210.900925 
	C196.293503,215.312256 192.551285,219.723572 188.411285,224.276489 
	C184.818771,219.661072 184.876633,214.403290 185.692749,208.591461 
	C189.248810,198.441101 195.584015,192.065201 206.618835,190.637909 
	C210.519821,191.112701 214.025375,191.709702 217.800812,192.569794 
	C212.164032,194.125122 210.714188,199.498718 207.644135,203.862915 
	C203.063385,199.828552 198.769165,200.083923 197.916290,204.769470 
	C197.578857,206.623276 199.268845,208.846115 200.035706,210.900925 
z"/>
<path fill="#DFF1DE" opacity="1.000000" stroke="none" 
	d="
M231.099442,220.046951 
	C231.099442,220.046951 231.418381,219.960480 231.578583,219.920731 
	C235.673462,218.325165 239.640427,216.845627 243.536057,215.197510 
	C251.445831,211.851120 259.317047,208.413589 267.581543,205.012085 
	C269.156647,207.497513 270.354431,209.984497 271.775208,212.735718 
	C272.500397,218.297684 273.002533,223.595413 273.512146,229.325378 
	C273.519684,229.757584 273.267670,229.881699 273.138245,229.936066 
	C262.261017,228.913757 251.522079,227.729492 240.758530,226.844543 
	C238.399673,226.650620 235.953201,227.522629 232.864548,227.820312 
	C228.742828,225.606934 231.094803,222.661713 231.099442,220.046951 
z"/>
<path fill="#FE9103" opacity="1.000000" stroke="none" 
	d="
M230.825226,219.874329 
	C231.094803,222.661713 228.742828,225.606934 232.484436,227.886383 
	C233.459869,228.830704 234.132889,229.625534 234.627411,230.847412 
	C231.597672,234.949219 228.746445,238.623978 225.584839,242.197800 
	C224.850082,242.041931 224.425690,241.987030 224.001297,241.932114 
	C222.600372,241.857025 221.199463,241.781952 219.408630,241.746277 
	C219.018707,241.785690 219.014343,241.573166 218.897400,241.444138 
	C218.602280,241.160294 218.399948,241.049622 217.914795,240.796768 
	C217.273438,240.442993 216.890732,240.275543 216.508026,240.108078 
	C215.838135,239.442383 215.168228,238.776688 214.213470,238.064423 
	C213.928589,238.017868 213.869019,237.683136 213.859528,237.513550 
	C216.199387,229.212891 222.745346,224.280334 228.282990,218.601822 
	C228.468262,218.411850 229.769806,219.310486 230.825226,219.874329 
z"/>
<path fill="#FDAF06" opacity="1.000000" stroke="none" 
	d="
M225.895203,242.298752 
	C228.746445,238.623978 231.597672,234.949219 234.755249,231.133606 
	C235.492905,231.280991 235.924240,231.569214 236.603790,231.948608 
	C240.189590,235.507141 243.259399,239.294907 246.930527,242.363190 
	C251.849670,246.474548 253.358643,251.354813 251.885040,257.744537 
	C250.581482,257.854614 249.150192,257.975494 247.316071,258.141785 
	C244.777283,258.124969 242.632416,257.909912 240.507370,258.034058 
	C236.754318,258.253326 234.013840,257.693726 234.107574,252.899139 
	C234.127548,251.876938 232.325577,250.591919 231.109726,249.834534 
	C229.807983,249.023651 228.207016,248.693115 226.466156,247.894684 
	C226.218658,246.659622 226.241638,245.682800 226.185333,244.067169 
	C226.035767,243.051804 225.965485,242.675278 225.895203,242.298752 
z"/>
<path fill="#D4DFF6" opacity="1.000000" stroke="none" 
	d="
M216.359985,240.543457 
	C216.890732,240.275543 217.273438,240.442993 217.916962,241.043304 
	C218.177795,241.476181 218.566437,241.779770 218.566437,241.779770 
	C218.566437,241.779770 219.014343,241.573166 219.014343,241.573166 
	C219.014343,241.573166 219.018707,241.785690 219.010147,241.891632 
	C217.671112,253.502396 216.340637,265.007202 214.992615,276.970459 
	C211.527969,276.746521 208.080856,276.064148 204.313126,275.166382 
	C206.648972,267.329437 209.269958,259.695190 211.977066,252.091614 
	C213.306335,248.358032 214.795242,244.681290 216.359985,240.543457 
z"/>
<path fill="#C0DBE8" opacity="1.000000" stroke="none" 
	d="
M225.584839,242.197800 
	C225.965485,242.675278 226.035767,243.051804 226.075165,243.714798 
	C225.390442,243.531952 224.736557,243.062637 224.041992,242.262726 
	C224.425690,241.987030 224.850082,242.041931 225.584839,242.197800 
z"/>
<path fill="#EACEC3" opacity="1.000000" stroke="none" 
	d="
M200.426804,210.928040 
	C199.268845,208.846115 197.578857,206.623276 197.916290,204.769470 
	C198.769165,200.083923 203.063385,199.828552 207.495193,204.210953 
	C207.710815,209.049255 205.203186,211.006088 200.426804,210.928040 
z"/>
<path fill="#FDAF06" opacity="1.000000" stroke="none" 
	d="
M218.897400,241.444138 
	C219.014343,241.573166 218.566437,241.779770 218.566437,241.779770 
	C218.566437,241.779770 218.177795,241.476181 218.175629,241.229645 
	C218.399948,241.049622 218.602280,241.160294 218.897400,241.444138 
z"/>
</svg>