<?xml version="1.0" encoding="utf-8"?>
<!-- Generator: Adobe Illustrator 16.0.0, SVG Export Plug-In . SVG Version: 6.00 Build 0)  -->
<!DOCTYPE svg PUBLIC "-//W3C//DTD SVG 1.1//EN" "http://www.w3.org/Graphics/SVG/1.1/DTD/svg11.dtd">
<svg version="1.1" id="Layer_1" xmlns="http://www.w3.org/2000/svg" xmlns:xlink="http://www.w3.org/1999/xlink" x="0px" y="0px"
	 width="128px" height="128px" viewBox="0 0 128 128" enable-background="new 0 0 128 128" xml:space="preserve">
<g>
	<g>
		<g>
			<path fill="none" stroke="currentColor" stroke-width="4" d="M70.375,70.436"/>
		</g>
	</g>
	<g>
		<g>
			<path fill="currentColor" d="M44.538,88.691C20.36,88.689,0.68,68.802,0.668,44.357C0.665,32.569,5.209,21.456,13.465,13.065
				C21.76,4.64,32.791,0,44.526,0c11.743,0,22.759,4.617,31.058,12.999c8.291,8.372,12.861,19.501,12.867,31.338
				c0,11.794-4.541,22.902-12.787,31.279c-8.313,8.432-19.358,13.075-31.1,13.075H44.538z M44.563,4
				c-10.691,0-20.71,4.216-28.247,11.871C8.801,23.508,4.665,33.625,4.668,44.355c0.011,22.239,17.896,40.334,39.87,40.336l0,2
				l0.025-2c10.664,0,20.697-4.22,28.251-11.883c7.504-7.622,11.637-17.734,11.637-28.471c-0.006-10.775-4.164-20.906-11.709-28.524
				C65.199,8.195,55.193,4,44.563,4z"/>
		</g>
		<g>
			<path fill="currentColor" d="M11.821,44.354c-0.003-8.789,3.385-17.076,9.542-23.335c6.193-6.285,14.423-9.746,23.174-9.746
				c0.009,0,0.016,0,0.024,0c8.731,0,16.95,3.442,23.142,9.695l-2.842,2.814c-5.435-5.487-12.645-8.509-20.302-8.509
				c-0.006,0-0.013,0.001-0.021,0c-7.673,0-14.891,3.037-20.326,8.552c-5.414,5.504-8.395,12.795-8.392,20.528L11.821,44.354z"/>
		</g>
		<g>
			<g>
				<path fill="currentColor" d="M44.559,54.883c-7.59,0-13.765-6.234-13.765-13.897c0-7.665,6.175-13.901,13.765-13.901
					c7.594,0,13.773,6.236,13.773,13.901C58.332,48.648,52.153,54.883,44.559,54.883z M44.559,31.085
					c-5.384,0-9.765,4.441-9.765,9.901c0,5.457,4.381,9.897,9.765,9.897c5.389,0,9.773-4.44,9.773-9.897
					C54.332,35.526,49.947,31.085,44.559,31.085z"/>
			</g>
			<g>
				<path fill="currentColor" d="M44.559,77.361c-8.183,0-15.988-3.139-21.977-8.837l-0.622-0.592v-1.825
					c0-7.664,6.179-13.899,13.775-13.899h17.652c7.593,0,13.772,6.235,13.772,13.899v1.825l-0.621,0.592
					C60.55,74.223,52.744,77.361,44.559,77.361z M25.96,66.2c5.154,4.624,11.726,7.161,18.598,7.161
					c6.875,0,13.447-2.537,18.602-7.161v-0.093c-0.001-5.458-4.385-9.899-9.773-9.899H35.735c-5.39,0-9.775,4.441-9.775,9.899V66.2z
					"/>
			</g>
		</g>
	</g>
	<g>
		<path fill="currentColor" d="M108.541,127.717l-36.988-37.4l18.488-18.686l36.992,37.395L108.541,127.717z M77.18,90.316l31.361,31.713
			l12.865-13.004L90.041,77.318L77.18,90.316z"/>
	</g>
	<g>
		
			<rect x="91.322" y="97.598" transform="matrix(0.7033 0.7109 -0.7109 0.7033 101.8921 -44.9403)" fill="currentColor" width="26.926" height="4"/>
	</g>
	<g>
		<path fill="currentColor" d="M82.074,97.347l-8.732-8.839L88.25,73.436l8.738,8.834L82.074,97.347z M78.967,88.51l3.109,3.147
			l9.285-9.388l-3.111-3.146L78.967,88.51z"/>
	</g>
	<g>
		<path fill="currentColor" d="M112.398,128l-4.879-4.938l14.906-15.069l4.906,4.955v0.821c0,7.845-6.324,14.229-14.098,14.23H112.398z
			 M113.143,123.065l0.893,0.902c4.938-0.397,8.887-4.404,9.266-9.407l-0.873-0.882L113.143,123.065z"/>
	</g>
	<g>
		<g>
			
				<rect x="73.206" y="81.272" transform="matrix(0.7032 0.711 -0.711 0.7032 81.9973 -29.8961)" fill="currentColor" width="7.207" height="4"/>
		</g>
		<g>
			
				<rect x="75.876" y="72.38" transform="matrix(0.7031 0.7111 -0.7111 0.7031 76.8001 -35.1864)" fill="currentColor" width="9.325" height="4"/>
		</g>
	</g>
</g>
</svg>
