<?xml version="1.0" standalone="no"?>
<!DOCTYPE svg PUBLIC "-//W3C//DTD SVG 20010904//EN"
 "http://www.w3.org/TR/2001/REC-SVG-20010904/DTD/svg10.dtd">
<svg version="1.0" xmlns="http://www.w3.org/2000/svg"
 width="386.000000pt" height="456.000000pt" viewBox="0 0 386.000000 456.000000"
 preserveAspectRatio="xMidYMid meet">

<g transform="translate(0.000000,456.000000) scale(0.100000,-0.100000)"
fill="#000000" stroke="none">
<path d="M1429 4289 c-8 -5 -38 -9 -67 -9 -29 0 -51 -3 -49 -7 3 -5 -23 -8
-56 -8 -79 0 -369 -44 -382 -57 -7 -8 -5 -9 8 -5 9 4 17 3 17 -2 0 -13 -39
-20 -43 -8 -10 32 -371 -92 -432 -149 -12 -10 -14 -14 -5 -9 13 9 13 8 2 -7
-8 -9 -19 -15 -26 -12 -16 6 -83 -68 -102 -112 -7 -17 -11 -42 -8 -55 4 -21 3
-22 -5 -4 -9 20 -9 20 -17 1 -4 -11 -3 -21 2 -23 5 -2 7 -365 4 -935 -3 -513
-3 -937 -1 -942 3 -5 8 -1 12 10 5 13 7 6 7 -23 0 -32 7 -51 33 -84 41 -51
142 -119 178 -119 14 -1 44 -9 66 -20 22 -11 52 -19 67 -20 15 0 29 -4 33 -10
3 -5 12 -7 20 -4 7 3 22 1 32 -4 12 -7 25 -7 37 0 12 7 17 7 12 0 -3 -5 1 -16
10 -23 12 -10 14 -23 9 -56 -3 -24 -1 -68 5 -98 9 -45 19 -61 52 -90 23 -19
57 -37 77 -40 57 -10 135 -26 151 -32 8 -4 44 -14 80 -24 159 -42 186 -50 205
-59 11 -5 46 -14 79 -20 32 -5 64 -14 70 -19 6 -5 38 -15 71 -22 33 -7 65 -16
70 -20 6 -4 46 -15 90 -24 44 -10 86 -22 93 -28 6 -5 32 -10 56 -11 24 0 43
-5 43 -11 -1 -5 8 -9 21 -8 12 2 22 -1 22 -6 0 -5 27 -14 60 -20 51 -10 69 -9
123 5 34 10 64 21 67 25 3 3 23 10 45 13 48 8 146 41 141 47 -2 2 14 5 36 6
23 0 50 6 62 12 19 9 124 38 224 62 23 6 42 14 42 18 0 4 34 13 75 20 41 8 75
18 75 23 0 6 7 8 15 4 8 -3 20 1 27 8 7 7 18 11 25 9 6 -2 14 0 17 6 3 5 16 7
28 3 14 -3 19 -1 14 6 -5 8 1 12 16 11 21 -1 48 6 188 45 31 9 67 28 82 44
l28 27 0 872 0 873 -22 35 c-13 19 -27 33 -33 31 -5 -1 -14 3 -20 9 -14 16
-122 48 -140 42 -8 -4 -14 1 -14 11 -1 9 -4 96 -7 192 -7 212 -20 385 -30 402
-31 50 -97 119 -109 114 -7 -2 -15 3 -18 13 -2 9 -35 31 -73 49 -38 18 -77 37
-86 42 -9 5 -35 13 -57 16 -23 4 -38 10 -36 14 3 4 -2 11 -11 14 -18 7 -45
-10 -41 -26 1 -6 -5 -13 -13 -15 -13 -4 -13 -3 0 6 8 6 11 11 6 11 -5 0 -3 7
4 15 10 12 7 15 -17 20 -15 4 -39 11 -53 15 -31 11 -117 27 -190 35 -30 4 -71
10 -90 15 -19 5 -82 11 -139 15 -58 3 -112 10 -120 14 -22 12 -604 11 -622 0z
m-194 -49 c3 -5 2 -10 -4 -10 -5 0 -13 5 -16 10 -3 6 -2 10 4 10 5 0 13 -4 16
-10z m-95 -10 c0 -5 -5 -10 -11 -10 -5 0 -7 5 -4 10 3 6 8 10 11 10 2 0 4 -4
4 -10z m1186 -12 c-10 -6 -20 -7 -24 -3 -9 8 20 25 31 18 5 -3 2 -10 -7 -15z
m-146 -17 c138 -13 257 -33 405 -67 267 -61 408 -141 453 -256 18 -47 21 -80
25 -276 l3 -223 -24 6 c-13 3 -37 8 -52 11 l-27 6 -6 141 c-4 78 -7 175 -7
216 0 64 -4 79 -25 107 -14 19 -45 45 -69 59 -48 28 -216 88 -225 80 -2 -3 9
-10 25 -16 l29 -12 2 -171 c1 -94 4 -192 6 -219 5 -53 -1 -61 -47 -59 -32 1
-333 100 -469 154 -83 32 -124 33 -184 4 -46 -23 -76 -36 -108 -45 -16 -5 -95
-33 -175 -61 -80 -29 -167 -59 -195 -67 -27 -8 -54 -18 -60 -21 -9 -5 -169
-62 -469 -165 -125 -43 -175 -78 -192 -135 -4 -15 -10 -352 -13 -749 l-6 -721
-93 24 c-183 47 -287 108 -323 188 -18 39 -19 87 -19 964 0 919 0 922 21 967
74 157 392 276 869 326 52 5 129 14 170 19 100 11 635 5 780 -9z m-1226 -16
c-4 -8 -8 -15 -10 -15 -2 0 -4 7 -4 15 0 8 4 15 10 15 5 0 7 -7 4 -15z m1449
8 c-7 -2 -19 -2 -25 0 -7 3 -2 5 12 5 14 0 19 -2 13 -5z m-1376 -9 c-3 -3 -12
-4 -19 -1 -8 3 -5 6 6 6 11 1 17 -2 13 -5z m1498 -4 c3 -5 1 -10 -4 -10 -6 0
-11 5 -11 10 0 6 2 10 4 10 3 0 8 -4 11 -10z m90 -10 c3 -5 2 -10 -4 -10 -5 0
-13 5 -16 10 -3 6 -2 10 4 10 5 0 13 -4 16 -10z m-1782 -27 c-7 -2 -19 -2 -25
0 -7 3 -2 5 12 5 14 0 19 -2 13 -5z m1918 -6 c-7 -7 -14 -8 -21 -1 -6 6 -2 10
12 11 16 2 18 -1 9 -10z m-2106 -45 c-3 -3 -11 0 -18 7 -9 10 -8 11 6 5 10 -3
15 -9 12 -12z m2276 -29 c13 -16 12 -17 -3 -4 -10 7 -18 15 -18 17 0 8 8 3 21
-13z m85 -84 c19 -22 19 -22 -3 -8 -13 8 -23 17 -23 21 0 12 6 9 26 -13z
m-2591 2 c3 -5 2 -12 -3 -15 -5 -3 -9 1 -9 9 0 17 3 19 12 6z m-31 -40 c-8 -8
-34 -10 -38 -2 -3 4 6 7 19 7 14 0 22 -2 19 -5z m2683 -73 c-3 -8 -6 -5 -6 6
-1 11 2 17 5 13 3 -3 4 -12 1 -19z m-2760 -1140 c-1 -194 -2 -38 -2 347 0 385
1 544 2 353 2 -190 2 -505 0 -700z m1719 905 c-4 -4 -12 -1 -19 7 -9 10 -9 11
1 6 7 -4 12 -2 13 6 0 11 2 11 6 0 3 -7 2 -16 -1 -19z m127 12 c-3 -9 -8 -14
-10 -11 -3 3 -2 9 2 15 9 16 15 13 8 -4z m-183 1 c0 -11 -19 -15 -25 -6 -3 5
1 10 9 10 9 0 16 -2 16 -4z m148 -25 c9 -5 53 -22 97 -36 44 -15 89 -31 100
-35 11 -5 94 -34 185 -64 91 -31 210 -71 265 -90 55 -19 188 -65 295 -102 126
-43 204 -75 220 -90 l25 -24 3 -849 c2 -811 2 -848 -16 -864 -10 -9 -68 -31
-128 -47 -206 -58 -249 -71 -314 -90 -36 -10 -98 -28 -137 -39 -68 -20 -106
-31 -280 -80 -38 -11 -111 -32 -163 -46 -52 -15 -114 -33 -137 -41 -37 -12
-49 -11 -105 5 -35 11 -130 38 -213 61 -161 44 -245 68 -352 100 -38 11 -84
23 -103 26 -19 4 -39 10 -45 14 -5 4 -35 13 -65 19 -30 7 -66 16 -80 21 -14 5
-78 23 -143 41 -97 27 -123 38 -143 62 l-24 29 2 834 3 834 25 25 c25 25 108
56 555 209 22 8 99 35 170 61 72 25 175 62 230 80 55 19 127 46 160 59 67 27
87 30 113 17z m-258 -31 c-20 -13 -33 -13 -25 0 3 6 14 10 23 10 15 0 15 -2 2
-10z m-40 -4 c0 -2 -9 -6 -20 -9 -11 -3 -18 -1 -14 4 5 9 34 13 34 5z m-55
-16 c-3 -5 -12 -10 -18 -10 -7 0 -6 4 3 10 19 12 23 12 15 0z m-40 -10 c-9
-14 -45 -32 -45 -23 0 7 24 22 48 32 2 0 0 -3 -3 -9z m1002 -76 c-3 -3 -12 -4
-19 -1 -8 3 -5 6 6 6 11 1 17 -2 13 -5z m-1230 -26 c2 -17 0 -19 -7 -8 -5 8
-6 18 -4 22 8 12 10 10 11 -14z m1130 16 c-3 -3 -12 -4 -19 -1 -8 3 -5 6 6 6
11 1 17 -2 13 -5z m173 -19 c0 -10 -5 -11 -25 -2 -32 15 -32 26 0 19 14 -2 25
-10 25 -17z m-1365 -23 c-8 -8 -25 10 -19 20 4 6 9 5 15 -3 4 -7 6 -15 4 -17z
m1287 19 c2 7 9 5 17 -5 12 -14 11 -16 -10 -12 -13 3 -30 5 -36 5 -7 1 -13 6
-13 11 0 7 6 7 19 0 14 -7 20 -7 23 1z m164 -17 c61 -17 87 -41 33 -29 -19 4
-40 12 -48 19 -8 6 -16 10 -17 9 -2 -1 -14 2 -26 7 -38 15 0 11 58 -6z m84
-74 c0 -5 -8 -10 -17 -10 -15 0 -16 2 -3 10 19 12 20 12 20 0z m-1822 -29 c10
-6 7 -10 -13 -15 -15 -4 -30 -5 -33 -1 -3 3 2 5 12 5 9 0 14 5 11 10 -8 12 5
13 23 1z m1887 -1 c3 -5 1 -10 -4 -10 -6 0 -11 5 -11 10 0 6 2 10 4 10 3 0 8
-4 11 -10z m280 -90 c3 -5 1 -10 -4 -10 -6 0 -11 5 -11 10 0 6 2 10 4 10 3 0
8 -4 11 -10z m-2444 -17 c13 -16 12 -17 -3 -4 -10 7 -18 15 -18 17 0 8 8 3 21
-13z m-51 -88 c0 -8 -4 -15 -10 -15 -5 0 -10 7 -10 15 0 8 5 15 10 15 6 0 10
-7 10 -15z m17 -67 c-3 -8 -6 -5 -6 6 -1 11 2 17 5 13 3 -3 4 -12 1 -19z
m-510 -1120 c-3 -8 -6 -5 -6 6 -1 11 2 17 5 13 3 -3 4 -12 1 -19z m33 -99 c0
-6 -4 -7 -10 -4 -5 3 -10 11 -10 16 0 6 5 7 10 4 6 -3 10 -11 10 -16z m25 11
c3 -5 1 -10 -4 -10 -6 0 -11 5 -11 10 0 6 2 10 4 10 3 0 8 -4 11 -10z m452
-12 c-3 -8 -6 -5 -6 6 -1 11 2 17 5 13 3 -3 4 -12 1 -19z m-412 -26 c-3 -3
-11 0 -18 7 -9 10 -8 11 6 5 10 -3 15 -9 12 -12z m382 -39 c-3 -10 -5 -4 -5
12 0 17 2 24 5 18 2 -7 2 -21 0 -30z m33 -31 c0 -11 -7 -18 -20 -18 -11 0 -20
6 -20 14 0 7 4 11 9 7 5 -3 12 -1 16 5 9 15 15 12 15 -8z m-180 -22 c12 -8 11
-10 -7 -10 -13 0 -23 5 -23 10 0 13 11 13 30 0z m-43 -16 c-3 -3 -12 -4 -19
-1 -8 3 -5 6 6 6 11 1 17 -2 13 -5z m222 -46 c0 -31 -3 -37 -8 -24 -7 18 -3
66 5 66 2 0 4 -19 3 -42z m1 -129 c0 -17 -4 -28 -10 -24 -5 3 -10 1 -10 -6 0
-7 -2 -10 -5 -7 -8 8 6 68 16 68 5 0 9 -14 9 -31z m2503 -49 c3 -11 1 -18 -4
-14 -5 3 -9 0 -9 -7 0 -7 -2 -10 -5 -8 -4 5 5 49 10 49 1 0 5 -9 8 -20z m-43
-71 c0 -6 -4 -7 -10 -4 -5 3 -10 11 -10 16 0 6 5 7 10 4 6 -3 10 -11 10 -16z
m-2365 -9 c3 -5 -1 -10 -9 -10 -9 0 -16 5 -16 10 0 6 4 10 9 10 6 0 13 -4 16
-10z m165 -60 c0 -5 -5 -10 -11 -10 -5 0 -7 5 -4 10 3 6 8 10 11 10 2 0 4 -4
4 -10z m1887 -6 c-3 -3 -12 -4 -19 -1 -8 3 -5 6 6 6 11 1 17 -2 13 -5z m-1544
-71 c-7 -2 -19 -2 -25 0 -7 3 -2 5 12 5 14 0 19 -2 13 -5z m1304 1 c-3 -3 -12
-4 -19 -1 -8 3 -5 6 6 6 11 1 17 -2 13 -5z m-1267 -13 c0 -5 -7 -12 -16 -15
-14 -5 -15 -4 -4 9 14 17 20 19 20 6z m60 -15 c0 -3 -4 -8 -10 -11 -5 -3 -10
-1 -10 4 0 6 5 11 10 11 6 0 10 -2 10 -4z m137 -42 c-3 -3 -12 -4 -19 -1 -8 3
-5 6 6 6 11 1 17 -2 13 -5z m40 -10 c-3 -3 -12 -4 -19 -1 -8 3 -5 6 6 6 11 1
17 -2 13 -5z m-7 -18 c0 -3 -4 -8 -10 -11 -5 -3 -10 -1 -10 4 0 6 5 11 10 11
6 0 10 -2 10 -4z m35 -24 c-3 -3 -11 0 -18 7 -9 10 -8 11 6 5 10 -3 15 -9 12
-12z m592 0 c7 -4 -9 -8 -35 -9 -40 0 -43 1 -17 7 17 4 32 8 35 9 3 0 10 -3
17 -7z m-140 -38 c-3 -3 -12 -4 -19 -1 -8 3 -5 6 6 6 11 1 17 -2 13 -5z"/>
<path d="M2077 3513 c-5 -4 -134 -50 -402 -143 -60 -21 -195 -68 -300 -105
-104 -37 -239 -84 -300 -105 l-110 -38 -3 -790 -2 -789 152 -42 c84 -23 189
-53 233 -66 44 -12 145 -41 225 -63 80 -22 217 -61 305 -86 227 -64 217 -64
380 -16 77 22 259 74 405 116 146 41 285 81 310 88 25 8 89 27 143 42 l97 28
-2 794 -3 794 -245 84 c-135 46 -317 109 -405 139 -88 30 -231 79 -317 108
-86 30 -159 53 -161 50z m-132 -398 l0 -188 -51 -13 c-28 -7 -89 -20 -135 -28
-87 -16 -211 -40 -384 -75 -55 -10 -102 -16 -105 -13 -3 4 -4 75 -2 157 l3
150 242 74 c133 41 280 86 327 102 47 15 90 26 95 25 6 -2 10 -74 10 -191z
m545 105 c96 -30 178 -59 182 -65 9 -11 11 -299 3 -307 -3 -2 -101 15 -218 39
-116 23 -215 43 -219 43 -5 0 -8 83 -8 185 l0 184 43 -13 c23 -7 121 -37 217
-66z m395 -121 c55 -17 123 -39 150 -49 l50 -18 3 -128 c1 -70 -1 -131 -5
-135 -4 -4 -78 7 -163 24 l-155 32 -3 153 c-2 115 0 152 10 152 7 0 57 -14
113 -31z m-1668 -164 c1 -95 -2 -147 -9 -151 -6 -4 -40 -12 -75 -19 l-64 -12
3 145 3 145 50 18 c95 33 91 39 92 -126z m1134 -160 c46 -8 131 -21 189 -30
58 -8 113 -18 123 -21 15 -5 17 -21 17 -159 0 -85 -3 -156 -7 -158 -7 -4 -200
6 -370 19 l-73 6 0 179 c0 206 -14 188 121 164z m-495 -182 c25 -82 55 -174
65 -205 30 -89 27 -98 -26 -98 l-45 0 1 -157 c0 -213 -31 -328 -117 -422 -58
-66 -84 -75 -182 -67 l-85 6 5 -55 c3 -36 1 -55 -6 -54 -11 0 -187 208 -194
227 -3 11 181 166 194 163 5 -1 7 -32 5 -70 l-3 -68 32 -7 c18 -3 54 -6 81 -6
63 0 105 36 145 122 26 59 28 73 32 226 l4 164 -43 -3 c-34 -2 -44 0 -43 11 2
17 79 293 100 358 8 23 14 52 14 62 0 52 23 7 66 -127z m1094 86 c69 -11 129
-24 133 -28 4 -4 6 -66 5 -137 l-3 -129 -95 3 c-52 1 -125 5 -162 8 l-68 6 0
154 0 155 33 -6 c17 -3 88 -14 157 -26z m-1731 -548 c1 -292 -3 -532 -7 -535
-5 -3 -38 3 -73 12 l-64 17 -3 512 -2 512 32 4 c18 2 52 5 75 5 l42 2 0 -529z
m1396 150 l60 -6 0 -155 0 -155 -155 -16 c-85 -9 -185 -19 -222 -22 l-68 -5 0
184 0 184 163 -1 c89 -1 189 -4 222 -8z m470 -141 l0 -135 -80 -11 c-44 -6
-117 -14 -162 -18 l-83 -6 0 155 0 155 163 -2 162 -3 0 -135z m3 -374 c1 -71
-1 -133 -5 -137 -9 -9 -283 -79 -308 -79 -13 0 -15 21 -13 153 l3 152 50 8
c150 22 242 34 255 33 12 -1 16 -24 18 -130z m-410 -83 l-3 -157 -85 -22
c-133 -33 -346 -84 -353 -84 -4 0 -7 82 -7 183 l0 183 108 13 c59 7 148 19
197 26 50 7 102 13 118 14 l28 1 -3 -157z"/>
<path d="M3121 3884 c0 -11 3 -14 6 -6 3 7 2 16 -1 19 -3 4 -6 -2 -5 -13z"/>
<path d="M3131 3793 c-1 -34 4 -65 9 -68 12 -8 12 81 0 110 -6 14 -9 2 -9 -42z"/>
<path d="M3142 3470 c2 -94 6 -124 17 -128 9 -3 11 0 6 8 -4 7 -10 62 -12 124
-2 61 -6 113 -9 115 -3 3 -3 -51 -2 -119z"/>
<path d="M3190 3330 c0 -5 5 -10 10 -10 6 0 10 5 10 10 0 6 -4 10 -10 10 -5 0
-10 -4 -10 -10z"/>
<path d="M3381 2317 c-1 -570 2 -856 9 -852 12 7 13 1597 1 1665 -5 25 -9
-341 -10 -813z"/>
<path d="M3363 1438 c-23 -30 -24 -41 -2 -21 12 12 20 25 17 28 -3 3 -10 0
-15 -7z"/>
<path d="M3306 1385 c-11 -8 -15 -15 -9 -15 6 0 16 7 23 15 16 19 11 19 -14 0z"/>
<path d="M3208 1353 c7 -3 16 -2 19 1 4 3 -2 6 -13 5 -11 0 -14 -3 -6 -6z"/>
<path d="M2745 1220 c-3 -6 1 -7 9 -4 18 7 21 14 7 14 -6 0 -13 -4 -16 -10z"/>
<path d="M2518 1153 c7 -3 16 -2 19 1 4 3 -2 6 -13 5 -11 0 -14 -3 -6 -6z"/>
<path d="M2326 1101 c-4 -5 3 -7 14 -4 23 6 26 13 6 13 -8 0 -17 -4 -20 -9z"/>
<path d="M2285 1090 c-3 -5 -1 -10 4 -10 6 0 11 5 11 10 0 6 -2 10 -4 10 -3 0
-8 -4 -11 -10z"/>
<path d="M894 837 c-2 -7 -3 -73 -2 -147 3 -119 5 -135 21 -138 15 -3 17 5 17
56 l0 59 46 6 c58 6 94 38 94 83 0 46 -9 63 -41 79 -35 19 -128 20 -135 2z
m126 -37 c43 -43 7 -100 -64 -100 -25 0 -26 2 -26 60 l0 60 35 0 c22 0 43 -8
55 -20z"/>
<path d="M2313 835 c-47 -20 -73 -68 -73 -135 0 -78 24 -121 77 -139 31 -11
51 -12 80 -5 34 8 43 6 82 -18 53 -33 61 -34 61 -9 0 11 -12 23 -30 31 -40 17
-42 22 -25 64 19 46 19 119 -1 161 -27 58 -103 80 -171 50z m100 -26 c34 -16
51 -51 51 -109 0 -90 -67 -141 -139 -107 -26 13 -37 26 -45 58 -30 110 44 198
133 158z"/>
<path d="M1184 761 c-36 -16 -54 -51 -54 -106 0 -82 51 -120 131 -96 50 15 73
56 66 119 -3 25 -13 53 -24 64 -23 22 -87 32 -119 19z m86 -39 c17 -14 23 -29
23 -62 0 -49 -27 -80 -69 -80 -63 0 -89 99 -38 139 33 26 55 26 84 3z"/>
<path d="M1370 758 c0 -7 15 -56 32 -110 28 -85 35 -98 53 -96 16 2 24 19 40
76 11 39 22 72 26 72 3 0 16 -34 29 -76 19 -65 25 -75 43 -72 17 2 27 22 54
108 18 58 33 106 33 108 1 9 -31 0 -35 -10 -2 -7 -14 -46 -25 -85 -12 -40 -25
-73 -29 -73 -3 0 -17 38 -30 85 -31 112 -46 111 -77 -4 -13 -46 -25 -85 -27
-88 -4 -3 -19 43 -53 160 -6 19 -34 24 -34 5z"/>
<path d="M1749 741 c-25 -25 -29 -37 -29 -81 0 -44 4 -56 29 -81 20 -19 40
-29 60 -29 42 0 81 17 81 35 0 11 -5 13 -26 5 -40 -15 -72 -12 -94 10 -39 39
-27 50 55 50 l75 0 0 29 c0 43 -9 60 -41 76 -43 23 -77 18 -110 -14z m105 -17
c32 -32 20 -44 -44 -44 -33 0 -60 3 -60 8 0 4 7 18 16 30 18 26 65 30 88 6z"/>
<path d="M1970 660 c0 -91 3 -110 15 -110 12 0 15 15 15 73 0 65 3 76 24 96
17 16 31 21 45 16 15 -5 21 -2 21 10 0 24 -29 30 -61 11 -26 -15 -29 -15 -29
-2 0 9 -7 16 -15 16 -12 0 -15 -19 -15 -110z"/>
<path d="M2570 682 c0 -80 2 -91 23 -110 27 -25 52 -27 87 -7 32 18 40 18 40
0 0 -8 5 -15 10 -15 6 0 10 43 10 110 0 91 -3 110 -15 110 -12 0 -15 -16 -15
-80 l0 -80 -35 -17 c-33 -16 -36 -15 -55 2 -17 15 -20 31 -20 97 0 63 -3 78
-15 78 -12 0 -15 -16 -15 -88z"/>
<path d="M2839 741 c-25 -25 -29 -37 -29 -81 0 -44 4 -56 29 -81 20 -19 40
-29 60 -29 42 0 81 17 81 35 0 11 -5 13 -26 5 -40 -15 -72 -12 -94 10 -39 39
-27 50 55 50 l75 0 0 29 c0 43 -9 60 -41 76 -43 23 -77 18 -110 -14z m105 -17
c32 -32 20 -44 -44 -44 -33 0 -60 3 -60 8 0 4 7 18 16 30 18 26 65 30 88 6z"/>
<path d="M3060 660 c0 -91 3 -110 15 -110 12 0 15 15 15 73 0 65 3 76 24 96
17 16 31 21 45 16 15 -5 21 -2 21 10 0 24 -29 30 -61 11 -26 -15 -29 -15 -29
-2 0 9 -7 16 -15 16 -12 0 -15 -19 -15 -110z"/>
<path d="M3205 753 c68 -174 78 -207 66 -238 -14 -40 -14 -45 3 -45 20 0 128
281 114 295 -14 14 -27 -8 -53 -85 -15 -44 -30 -80 -33 -80 -4 0 -21 38 -37
85 -23 66 -33 85 -48 85 -14 0 -17 -5 -12 -17z"/>
</g>
</svg>
