<?xml version="1.0" encoding="utf-8"?>
<!-- Svg Vector Icons : http://www.onlinewebfonts.com/icon -->
<!DOCTYPE svg PUBLIC "-//W3C//DTD SVG 1.1//EN" "http://www.w3.org/Graphics/SVG/1.1/DTD/svg11.dtd">
<svg version="1.1" xmlns="http://www.w3.org/2000/svg" xmlns:xlink="http://www.w3.org/1999/xlink" x="0px" y="0px" viewBox="0 0 256 256" enable-background="new 0 0 256 256" xml:space="preserve">
<metadata> Svg Vector Icons : http://www.onlinewebfonts.com/icon </metadata>
<g><g><g><path fill="#000000" d="M44.2,10.6c-6.6,1.3-8.5,2.3-8.5,4.6c0,1.2,1.6,3,11.5,13c11.1,11.2,11.5,11.7,11.5,13.4s-0.4,2.2-7.7,9.5c-7.3,7.4-7.8,7.7-9.5,7.7s-2.2-0.4-13.4-11.5c-10-9.9-11.8-11.5-13-11.5c-0.7,0-1.7,0.4-2.1,0.8c-1.2,1.3-2.7,7.7-3,13C9,69.8,23.8,87.9,44.2,91.5c6.4,1.2,16.5,0.1,21.7-2.2c1.2-0.6,2.4-1,2.7-1c0.6,0,36.8,36,36.8,36.7c0,0.2-16.3,16.7-36.2,36.7c-19.9,19.9-37,37.4-38,38.7C28.9,203.8,9.8,244,10,245c0.1,0.5,0.5,0.9,1,1c0.7,0.1,28.1-12.6,40.7-19l4.6-2.3l37.1-37c20.4-20.4,37.4-37.1,37.6-37.1c0.3,0,8.7,8.2,18.7,18.2l18.2,18.2l-0.6,1.5c-2.4,5.9-3,8.8-3,16c0,8.2,0.6,11.2,3.5,17.4c2.3,4.9,5,8.8,9,12.6c5.3,5,11.2,8.4,17.7,10.2c5.1,1.4,15.4,1.4,20.5,0c4.2-1.2,5.3-2,5.3-3.9c0-1.2-1.6-3-11.5-13c-11.1-11.2-11.5-11.7-11.5-13.4c0-1.7,0.4-2.2,7.7-9.5c7.3-7.4,7.8-7.7,9.5-7.7c1.7,0,2.2,0.4,13.4,11.5c10,9.9,11.8,11.5,13,11.5c1.9,0,2.8-1.2,3.8-5.3c2.1-7.8,1.6-17.6-1.2-24.6c-3.6-9.1-11.4-17.7-20-22c-10.7-5.4-23.5-5.8-35-1.1l-1.5,0.6l-18.2-18.2c-10-10-18.2-18.4-18.2-18.7c0-0.2,15.9-16.4,35.4-35.8l35.4-35.4l-12.6-12.5l-12.5-12.6l-35.4,35.4c-19.5,19.5-35.6,35.4-35.8,35.4c-0.6,0-36.7-36.1-36.7-36.7c0-0.3,0.4-1.5,1-2.7c2.3-5.3,3.4-15.4,2.2-21.7c-1.5-8.8-5.7-16.6-12.2-22.8c-5.4-5.1-11-8.3-17.5-10.1C57,10.1,48.8,9.7,44.2,10.6z"/><path fill="#000000" d="M220.9,10.8c-1.1,0.6-5,4.1-10,9.1l-8.2,8.2l12.6,12.6l12.5,12.5l8.4-8.4c5.3-5.3,8.7-9.1,9.1-10.1c0.9-2.2,0.9-4.6,0-6.7c-1-2.3-14.6-16-17.1-17.2C225.9,9.7,223.3,9.7,220.9,10.8z"/></g></g></g>
</svg>