<svg width="242" height="47" viewBox="0 0 242 47" fill="none" xmlns="http://www.w3.org/2000/svg">
<g clip-path="url(#clip0_649_20617)">
<rect x="0.5" width="8.4" height="42" fill="#1C64F2"/>
<rect x="0.5" width="8.4" height="42" stroke="#1C64F2"/>
<rect x="34.0996" width="8.4" height="42" fill="#1C64F2"/>
<rect x="34.0996" width="8.4" height="42" stroke="#1C64F2"/>
<rect x="0.5" y="8.40625" width="8.4" height="42" transform="rotate(-90 0.5 8.40625)" fill="#1C64F2"/>
<rect x="0.5" y="8.40625" width="8.4" height="42" transform="rotate(-90 0.5 8.40625)" stroke="#1C64F2"/>
<rect x="0.5" y="42" width="8.4" height="42" transform="rotate(-90 0.5 42)" fill="#1C64F2"/>
<rect x="0.5" y="42" width="8.4" height="42" transform="rotate(-90 0.5 42)" stroke="#1C64F2"/>
<rect x="25.7012" y="42" width="8.4" height="16.8" transform="rotate(180 25.7012 42)" fill="#1C64F2"/>
<rect x="25.7012" y="42" width="8.4" height="16.8" transform="rotate(180 25.7012 42)" stroke="#1C64F2"/>
<rect x="25.7012" y="16.8203" width="8.4" height="16.8" transform="rotate(180 25.7012 16.8203)" fill="#1C64F2"/>
<rect x="25.7012" y="16.8203" width="8.4" height="16.8" transform="rotate(180 25.7012 16.8203)" stroke="#1C64F2"/>
</g>
<path d="M57.668 5.49219H63.608V18.0762H76.852V5.49219H82.792V36.9962H76.852V23.7082H63.608V36.9962H57.668V5.49219Z" fill="black"/>
<path d="M101.061 34.7082H100.709C100.034 35.5295 99.2126 36.2335 98.2446 36.8202C97.3059 37.4069 96.0886 37.7002 94.5926 37.7002C93.4779 37.7002 92.4219 37.5095 91.4246 37.1282C90.4566 36.7762 89.6059 36.2775 88.8726 35.6322C88.1392 34.9869 87.5672 34.2095 87.1566 33.3002C86.7459 32.3909 86.5406 31.3935 86.5406 30.3082C86.5406 29.1935 86.7606 28.1962 87.2006 27.3162C87.6406 26.4069 88.2566 25.6295 89.0486 24.9842C89.8406 24.3389 90.7646 23.8549 91.8206 23.5322C92.9059 23.1802 94.0792 23.0042 95.3406 23.0042C96.7486 23.0042 97.9072 23.1215 98.8166 23.3562C99.7259 23.5615 100.474 23.7815 101.061 24.0162V23.3562C101.061 22.2122 100.606 21.2735 99.6966 20.5402C98.7872 19.7775 97.6579 19.3962 96.3086 19.3962C94.3139 19.3962 92.6272 20.2322 91.2486 21.9042L87.0686 19.0442C89.3566 16.1695 92.4806 14.7322 96.4406 14.7322C99.7846 14.7322 102.337 15.5242 104.097 17.1082C105.857 18.6629 106.737 20.9802 106.737 24.0602V36.9962H101.061V34.7082ZM101.061 28.2402C100.386 27.9175 99.6819 27.6682 98.9486 27.4922C98.2446 27.2869 97.4672 27.1842 96.6166 27.1842C95.2379 27.1842 94.1672 27.4922 93.4046 28.1082C92.6712 28.6949 92.3046 29.4282 92.3046 30.3082C92.3046 31.1882 92.6566 31.8922 93.3606 32.4202C94.0939 32.9482 94.9299 33.2122 95.8686 33.2122C96.6312 33.2122 97.3352 33.0802 97.9806 32.8162C98.6259 32.5229 99.1686 32.1562 99.6086 31.7162C100.078 31.2469 100.43 30.7189 100.665 30.1322C100.929 29.5162 101.061 28.8855 101.061 28.2402Z" fill="black"/>
<path d="M117.666 35.9402L108.602 15.4362H115.158L120.614 28.5042H120.922L126.158 15.4362H132.582L119.074 46.5002H112.87L117.666 35.9402Z" fill="black"/>
<path d="M143.316 37.7002C141.908 37.7002 140.647 37.5242 139.532 37.1722C138.447 36.8202 137.494 36.3655 136.672 35.8082C135.88 35.2215 135.206 34.5615 134.648 33.8282C134.091 33.0655 133.666 32.3029 133.372 31.5402L138.52 29.3402C139.019 30.4549 139.679 31.2909 140.5 31.8482C141.351 32.3762 142.29 32.6402 143.316 32.6402C144.372 32.6402 145.208 32.4495 145.824 32.0682C146.44 31.6869 146.748 31.2322 146.748 30.7042C146.748 30.1175 146.484 29.6482 145.956 29.2962C145.458 28.9149 144.578 28.5775 143.316 28.2842L140.28 27.6242C139.606 27.4775 138.902 27.2429 138.168 26.9202C137.464 26.5975 136.819 26.1869 136.232 25.6882C135.646 25.1895 135.162 24.5882 134.78 23.8842C134.399 23.1802 134.208 22.3589 134.208 21.4202C134.208 20.3642 134.428 19.4255 134.868 18.6042C135.338 17.7829 135.968 17.0935 136.76 16.5362C137.552 15.9495 138.476 15.5095 139.532 15.2162C140.618 14.8935 141.776 14.7322 143.008 14.7322C145.062 14.7322 146.895 15.1429 148.508 15.9642C150.122 16.7562 151.31 18.0322 152.072 19.7922L147.1 21.8162C146.69 20.9655 146.088 20.3495 145.296 19.9682C144.504 19.5869 143.712 19.3962 142.92 19.3962C142.099 19.3962 141.38 19.5722 140.764 19.9242C140.148 20.2469 139.84 20.6722 139.84 21.2002C139.84 21.6989 140.09 22.0949 140.588 22.3882C141.116 22.6815 141.82 22.9455 142.7 23.1802L146 23.9722C148.2 24.5002 149.828 25.3509 150.884 26.5242C151.97 27.6682 152.512 29.0322 152.512 30.6162C152.512 31.5549 152.292 32.4495 151.852 33.3002C151.412 34.1509 150.782 34.9135 149.96 35.5882C149.168 36.2335 148.2 36.7469 147.056 37.1282C145.942 37.5095 144.695 37.7002 143.316 37.7002Z" fill="black"/>
<path d="M158.211 20.3642H154.427V15.4362H158.211V8.83619H163.975V15.4362H169.255V20.3642H163.975V28.7242C163.975 29.2229 164.019 29.6922 164.107 30.1322C164.224 30.5429 164.43 30.8949 164.723 31.1882C165.134 31.6575 165.72 31.8922 166.483 31.8922C166.982 31.8922 167.378 31.8482 167.671 31.7602C167.964 31.6429 168.243 31.4962 168.507 31.3202L170.135 36.3802C169.46 36.7029 168.727 36.9375 167.935 37.0842C167.172 37.2602 166.322 37.3482 165.383 37.3482C164.298 37.3482 163.315 37.1869 162.435 36.8642C161.584 36.5122 160.866 36.0429 160.279 35.4562C158.9 34.1362 158.211 32.2589 158.211 29.8242V20.3642Z" fill="black"/>
<path d="M186.354 34.7082H186.002C185.327 35.5295 184.506 36.2335 183.538 36.8202C182.599 37.4069 181.382 37.7002 179.886 37.7002C178.771 37.7002 177.715 37.5095 176.718 37.1282C175.75 36.7762 174.899 36.2775 174.166 35.6322C173.432 34.9869 172.86 34.2095 172.45 33.3002C172.039 32.3909 171.834 31.3935 171.834 30.3082C171.834 29.1935 172.054 28.1962 172.494 27.3162C172.934 26.4069 173.55 25.6295 174.342 24.9842C175.134 24.3389 176.058 23.8549 177.114 23.5322C178.199 23.1802 179.372 23.0042 180.634 23.0042C182.042 23.0042 183.2 23.1215 184.11 23.3562C185.019 23.5615 185.767 23.7815 186.354 24.0162V23.3562C186.354 22.2122 185.899 21.2735 184.99 20.5402C184.08 19.7775 182.951 19.3962 181.602 19.3962C179.607 19.3962 177.92 20.2322 176.542 21.9042L172.362 19.0442C174.65 16.1695 177.774 14.7322 181.734 14.7322C185.078 14.7322 187.63 15.5242 189.39 17.1082C191.15 18.6629 192.03 20.9802 192.03 24.0602V36.9962H186.354V34.7082ZM186.354 28.2402C185.679 27.9175 184.975 27.6682 184.242 27.4922C183.538 27.2869 182.76 27.1842 181.91 27.1842C180.531 27.1842 179.46 27.4922 178.698 28.1082C177.964 28.6949 177.598 29.4282 177.598 30.3082C177.598 31.1882 177.95 31.8922 178.654 32.4202C179.387 32.9482 180.223 33.2122 181.162 33.2122C181.924 33.2122 182.628 33.0802 183.274 32.8162C183.919 32.5229 184.462 32.1562 184.902 31.7162C185.371 31.2469 185.723 30.7189 185.958 30.1322C186.222 29.5162 186.354 28.8855 186.354 28.2402Z" fill="black"/>
<path d="M216.858 31.4962C215.919 33.3149 214.599 34.8109 212.898 35.9842C211.226 37.1282 209.128 37.7002 206.606 37.7002C204.934 37.7002 203.394 37.4215 201.986 36.8642C200.607 36.2775 199.404 35.4709 198.378 34.4442C197.38 33.4175 196.588 32.2149 196.002 30.8362C195.444 29.4282 195.166 27.8882 195.166 26.2162C195.166 24.5442 195.444 23.0042 196.002 21.5962C196.588 20.1882 197.38 18.9855 198.378 17.9882C199.404 16.9615 200.607 16.1695 201.986 15.6122C203.394 15.0255 204.934 14.7322 206.606 14.7322C209.099 14.7322 211.196 15.3042 212.898 16.4482C214.599 17.5922 215.846 19.0735 216.638 20.8922L211.358 23.0922C210.859 22.0949 210.214 21.3469 209.422 20.8482C208.659 20.3202 207.691 20.0562 206.518 20.0562C205.755 20.0562 205.036 20.2029 204.362 20.4962C203.687 20.7895 203.086 21.2002 202.558 21.7282C202.059 22.2562 201.663 22.9015 201.37 23.6642C201.076 24.4269 200.93 25.2775 200.93 26.2162C200.93 27.1549 201.076 28.0055 201.37 28.7682C201.663 29.5309 202.059 30.1762 202.558 30.7042C203.086 31.2322 203.687 31.6429 204.362 31.9362C205.036 32.2295 205.755 32.3762 206.518 32.3762C207.72 32.3762 208.732 32.1122 209.554 31.5842C210.404 31.0269 211.079 30.2349 211.578 29.2082L216.858 31.4962Z" fill="black"/>
<path d="M220.374 5.49219H226.138V22.6522H226.402L233.618 15.4362H240.746V15.7882L232.738 23.5762L241.406 36.6442V36.9962H234.586L228.69 27.5362L226.138 30.0442V36.9962H220.374V5.49219Z" fill="black"/>
<defs>
<clipPath id="clip0_649_20617">
<rect x="0.5" width="42" height="42" rx="4.30769" fill="white"/>
</clipPath>
</defs>
</svg>
