<svg class="plasmic-default__svg ρd__all ρd__svg ρs0Pgt" fill="none" height="1em" role="img" viewBox="0 0 1139 250" xmlns="http://www.w3.org/2000/svg"><path clip-rule="evenodd" d="M61.135 74.395c11.427-2.442 18.637-9.1 20.745-16.966 2.288-8.574 8.96-14.872 18.638-17.661 9.486-2.623 20.913-1.401 31.466 2.969 9.666 4.023 20.385 4.897 28.47 1.568 10.72-4.55 13.188-15.566 6.157-26.054C157.807 5.14 138.115-2.546 123.526.77c-7.738 1.928-12.661 6.465-13.882 12.417-1.401 6.992-7.905 12.416-17.044 14.871l-.707.18c-9.319 2.442-20.912 1.568-31.105-2.802-8.792-3.843-19.165-5.077-28.471-2.97-18.278 4.371-26.363 20.81-14.936 36.376C26.52 71.08 45.325 77.724 61.148 74.408l-.013-.013zm164.346 52.996c-9.666 2.969-14.936 10.668-15.116 20.115-.347 10.849-5.797 20.116-15.643 24.833l-.707.348c-10.193 4.897-23.381 4.37-36.209-1.054-11.606-4.898-24.601-5.078-35.154 1.054-14.409 8.393-20.219 27.982-11.607 46.864 11.607 25.54 41.312 37.596 62.044 26.054 10.373-5.951 15.823-16.44 16.17-28.162.347-13.111 6.851-23.265 17.044-28.33 9.846-5.077 22.494-5.077 34.808.527 10.719 4.898 21.799 5.425 30.051.874 15.296-8.573 13.355-31.131-2.815-48.098-12.301-12.416-30.231-18.882-42.892-15.038l.026.013zm-19.692-79.744c-9.139 1.928-14.062 8.226-14.062 16.093 0 6.992-3.509 12.763-10.9 15.385l-1.928.694c-7.378 2.623-17.224 1.748-26.195-2.622-9.486-4.55-20.386-5.95-29.525-2.969-9.319 2.97-14.936 9.975-16.17 18.368-1.054 8.213-6.851 15.039-15.99 18.188l-2.455.874c-9.319 3.316-20.385 1.928-30.411-2.802-11.427-5.425-25.489-6.466-37.79-1.221C4.54 114.46-4.07 131.247 1.905 147.853c8.265 22.738 36.556 34.101 59.063 24.834 11.953-4.898 19.164-14.512 20.745-25.181 1.401-9.794 7.905-17.493 17.224-21.157l1.234-.527c9.139-3.496 20.386-2.622 30.412 2.455 10.54 5.245 22.673 6.466 32.339 2.455 9.486-3.843 14.242-11.722 14.242-20.81 0-8.213 4.396-14.691 11.954-17.493l.874-.347c7.378-2.802 17.044-1.748 26.195 2.622 9.666 4.55 20.039 5.951 27.777 2.622 13.715-5.591 13.355-22.558-.707-36.208-10.193-10.142-26.016-15.746-37.442-13.471h-.026z" fill="currentColor" fill-rule="evenodd"></path><path d="M418.644 44.895h-29.961v154.809h100.862v-26.645h-70.901V44.896zm116.479 48.447h-29.28v106.363h29.28V93.342zm-14.537-50.22c-4.692 0-8.586 1.607-11.671 4.859-3.085 3.226-4.627 7.12-4.627 11.67s1.542 8.625 4.627 11.775c3.085 3.149 6.967 4.73 11.671 4.73s8.779-1.581 11.787-4.73c3.007-3.15 4.511-7.083 4.511-11.774 0-4.692-1.504-8.445-4.511-11.671-3.008-3.24-6.941-4.859-11.787-4.859zm119.037 53.856c-6.105-3.894-13.11-5.848-21.028-5.848-7.918 0-15.309 1.76-21.697 5.283-3.458 1.915-6.504 4.229-9.139 6.941V93.328h-28.856V199.69h28.856v-61.003c0-4.1.913-7.815 2.751-11.105 1.838-3.317 4.37-5.849 7.596-7.597 3.226-1.774 6.903-2.648 11.016-2.648 6.169 0 11.234 1.993 15.193 5.952 3.971 3.958 5.951 9.1 5.951 15.411v61.003h29.075v-67.597c0-7.057-1.761-13.689-5.283-19.923-3.522-6.26-8.329-11.311-14.422-15.193l-.013-.013zm117.263.772c-7.93-4.55-16.876-6.825-26.863-6.825-10.579 0-20.116 2.416-28.625 7.262-8.509 4.859-15.232 11.453-20.155 19.82-4.923 8.368-7.378 17.828-7.378 28.407 0 10.578 2.494 20.27 7.494 28.637 4.987 8.368 11.851 14.962 20.578 19.821 8.741 4.833 18.69 7.262 29.846 7.262 8.664 0 16.672-1.542 24.011-4.627 7.339-3.085 13.728-7.712 19.165-13.869l-17.173-17.173c-3.226 3.818-7.044 6.594-11.452 8.355-4.396 1.774-9.319 2.648-14.756 2.648-6.016 0-11.311-1.26-15.862-3.74-4.55-2.494-8.033-6.132-10.462-10.9-.964-1.89-1.723-3.921-2.301-6.08l77.725-.193c.592-2.352.964-4.511 1.106-6.504.141-1.992.218-3.92.218-5.848 0-10.27-2.21-19.448-6.606-27.532-4.409-8.06-10.579-14.371-18.51-18.92zm-42.056 21.131c4.254-2.493 9.241-3.74 14.974-3.74 5.424 0 9.987 1.105 13.65 3.316 3.664 2.211 6.53 5.424 8.587 9.679.989 2.056 1.748 4.344 2.3 6.864l-51.401.154a30.212 30.212 0 012.082-5.591c2.275-4.628 5.553-8.175 9.808-10.682zm158.561-15.489c-2.943-3.046-6.388-5.604-10.347-7.635-6.015-3.085-12.776-4.627-20.257-4.627-9.833 0-18.612 2.416-26.324 7.275-7.712 4.833-13.766 11.44-18.175 19.807-4.396 8.368-6.607 17.854-6.607 28.42 0 10.565 2.198 19.82 6.607 28.175 4.409 8.367 10.463 14.987 18.175 19.82 7.712 4.859 16.401 7.275 26.093 7.275 7.635 0 14.498-1.542 20.591-4.627 3.933-1.993 7.352-4.499 10.244-7.507v9.936h29.075V93.341h-29.075v10.051zm-5.719 63.715c-4.988 5.45-11.53 8.15-19.602 8.15-5.142 0-9.769-1.234-13.882-3.741-4.113-2.493-7.301-5.861-9.576-10.128-2.275-4.268-3.419-9.242-3.419-14.988 0-5.745 1.144-10.488 3.419-14.756 2.275-4.241 5.424-7.635 9.473-10.128 4.036-2.494 8.702-3.741 13.985-3.741 5.283 0 10.128 1.196 14.087 3.638 3.972 2.416 7.121 5.823 9.473 10.231 2.353 4.409 3.522 9.396 3.522 14.988 0 8.213-2.493 15.038-7.48 20.463v.012zm128.484-73.445c-4.036-1.684-8.689-2.532-13.985-2.532-11.89 0-20.99 3.779-27.314 11.35-.077.09-.141.192-.218.282v-9.421h-28.857v106.363h28.857v-58.587c0-8.059 1.94-14.01 5.835-17.827 3.895-3.818 8.92-5.72 15.09-5.72 2.931 0 5.54.398 7.815 1.195 2.275.797 4.216 2.172 5.836 4.075l18.055-20.913c-3.39-3.818-7.08-6.555-11.127-8.265h.013zm132.464 34.807c-4.02-4.73-9.12-8.586-15.29-11.619 4.31-2.507 7.92-5.463 10.78-8.869 5.36-6.376 8.04-13.985 8.04-22.802 0-7.186-1.8-13.83-5.4-19.923-3.6-6.093-8.86-11.003-15.76-14.756-6.9-3.754-15.41-5.605-25.54-5.605h-62.78v154.809h63.65c10.86 0 20.16-2.031 27.86-6.054 7.71-4.036 13.61-9.396 17.72-16.08 4.12-6.684 6.17-14.126 6.17-22.352 0-10.424-3.15-19.332-9.46-26.761l.01.012zm-46.9-59.126c6.02 0 10.9 1.542 14.64 4.627s5.62 7.777 5.62 14.088c0 6.31-1.84 10.784-5.51 13.869-3.67 3.085-8.66 4.627-14.98 4.627h-29.07V69.343h29.3zm20.16 99.307c-4.04 4.409-9.59 6.619-16.64 6.619h-32.81v-44.486h32.38c4.84 0 9.03 1.016 12.55 3.085 3.53 2.057 6.17 4.73 7.92 8.033 1.76 3.317 2.65 7.031 2.65 11.132 0 6.015-2.02 11.234-6.05 15.63v-.013z" fill="currentColor"></path></svg>