<?xml version="1.0" encoding="UTF-8" standalone="no"?>
<!-- Created with Inkscape (http://www.inkscape.org/) -->
<svg
   xmlns:dc="http://purl.org/dc/elements/1.1/"
   xmlns:cc="http://web.resource.org/cc/"
   xmlns:rdf="http://www.w3.org/1999/02/22-rdf-syntax-ns#"
   xmlns:svg="http://www.w3.org/2000/svg"
   xmlns="http://www.w3.org/2000/svg"
   xmlns:xlink="http://www.w3.org/1999/xlink"
   xmlns:sodipodi="http://sodipodi.sourceforge.net/DTD/sodipodi-0.dtd"
   xmlns:inkscape="http://www.inkscape.org/namespaces/inkscape"
   width="21"
   height="7"
   id="svg2"
   sodipodi:version="0.32"
   inkscape:version="0.45.1"
   version="1.0"
   sodipodi:docbase="C:\Users\Simon\Pictures\TV-loggor"
   sodipodi:docname="Sleuth.svg"
   inkscape:output_extension="org.inkscape.output.svg.inkscape">
  <defs
     id="defs4">

  </defs>
  <sodipodi:namedview
     id="base"
     pagecolor="#ffffff"
     bordercolor="#666666"
     borderopacity="1.0"
     gridtolerance="10000"
     guidetolerance="10"
     objecttolerance="10"
     inkscape:pageopacity="0.0"
     inkscape:pageshadow="2"
     inkscape:zoom="15.201797"
     inkscape:cx="8.6259823"
     inkscape:cy="5.9303628"
     inkscape:document-units="px"
     inkscape:current-layer="layer1"
     showguides="true"
     inkscape:guide-bbox="true"
     width="21px"
     height="7px"
     inkscape:window-width="784"
     inkscape:window-height="575"
     inkscape:window-x="-25"
     inkscape:window-y="-9" />
  <metadata
     id="metadata7">
    <rdf:RDF>
      <cc:Work
         rdf:about="">
        <dc:format>image/svg+xml</dc:format>
        <dc:type
           rdf:resource="http://purl.org/dc/dcmitype/StillImage" />
      </cc:Work>
    </rdf:RDF>
  </metadata>
  <g
     inkscape:label="Layer 1"
     inkscape:groupmode="layer"
     id="layer1"
     transform="translate(-4.5443,-1041.0981)">
    <path
       id="path104348"
       d="M 20.41877,1047.0307 L 19.96177,1047.0427 C 19.95977,1046.6687 19.54677,1046.6677 19.44677,1046.4547 C 19.39577,1046.3547 19.37177,1046.2917 19.37177,1046.0777 L 19.37177,1045.3497 C 19.37177,1045.1357 19.35877,1045.0607 19.42177,1044.9227 C 19.53477,1044.6707 20.02877,1044.7087 20.02877,1044.4077 C 20.02877,1044.1057 19.57677,1044.0987 19.45877,1043.9547 C 19.39577,1043.8547 19.37177,1043.7287 19.37177,1043.6037 C 19.37177,1043.5097 19.36077,1043.3827 19.28277,1043.2847 L 20.42577,1043.4217 C 20.41977,1043.4547 20.41777,1043.4877 20.41777,1043.5237 L 20.41777,1046.9787 C 20.41777,1046.9967 20.41777,1047.0147 20.41877,1047.0307 M 21.27177,1043.5217 L 24.81877,1043.9487 L 23.83277,1046.9417 L 23.24377,1046.9577 L 23.24377,1045.3077 C 23.24377,1044.5537 22.91777,1044.1767 22.27677,1044.1767 C 21.88777,1044.1767 21.77477,1044.3157 21.57377,1044.3157 C 21.22177,1044.3157 21.27177,1043.9267 21.27177,1043.5247 L 21.27177,1043.5217 z M 12.20177,1045.1047 C 12.20177,1044.8787 12.52777,1044.7027 12.77877,1044.7027 C 13.08077,1044.7027 13.34477,1044.9287 13.34477,1045.1297 C 13.34477,1045.3057 13.13077,1045.3937 12.71677,1045.3937 C 12.37677,1045.3937 12.20177,1045.2927 12.20177,1045.1047 M 5.00477,1047.4327 L 5.92277,1044.8857 C 6.09277,1045.3487 6.58477,1045.5397 6.89177,1045.6217 C 7.48277,1045.7727 8.49977,1045.7227 8.49977,1046.3127 C 8.49977,1046.6517 8.11077,1046.9027 7.50777,1046.9027 C 6.95477,1046.9027 6.59077,1046.4887 6.30177,1046.4887 C 6.10077,1046.4887 5.79877,1046.6897 5.79877,1046.8657 C 5.79877,1047.0097 6.05077,1047.2317 6.44377,1047.3957 L 5.00477,1047.4327 z M 17.56377,1047.1057 C 17.56577,1047.0887 17.56777,1047.0707 17.56777,1047.0517 L 17.56777,1044.5647 C 17.56777,1044.3007 17.45477,1044.1747 17.21577,1044.1747 L 17.07677,1044.1747 C 16.81377,1044.1747 16.68777,1044.2877 16.68777,1044.5267 L 16.68777,1045.8457 C 16.68777,1046.4487 16.48677,1046.7497 16.09777,1046.7497 C 15.72077,1046.7497 15.59477,1046.4867 15.59477,1045.9467 L 15.59477,1044.5267 C 15.59477,1044.2877 15.43177,1044.1747 15.24277,1044.1747 L 15.04277,1044.1747 C 14.86677,1044.1747 14.71577,1044.3007 14.71577,1044.5267 L 14.71577,1046.5617 C 14.71577,1046.8117 14.77677,1047.0197 14.89677,1047.1747 L 13.75377,1047.2047 C 14.04377,1047.0267 14.18577,1046.7997 14.18577,1046.6877 C 14.18577,1046.5367 13.95977,1046.3607 13.75877,1046.3607 C 13.43277,1046.3607 13.34477,1046.8007 12.80477,1046.8007 C 12.47777,1046.8007 12.15077,1046.4987 12.15077,1046.2227 C 12.15077,1046.0087 12.30177,1045.8957 12.59077,1045.8957 L 13.60877,1045.8957 L 13.89677,1045.8957 C 14.19877,1045.8957 14.32477,1045.8207 14.32477,1045.5317 C 14.32477,1045.2807 14.14877,1044.0497 12.77877,1044.0497 C 11.96277,1044.0497 11.18377,1044.5387 11.18377,1045.8207 C 11.18377,1046.5177 11.47877,1047.0007 11.93877,1047.2517 L 10.76777,1047.2827 C 10.77677,1047.2447 10.78077,1047.2037 10.78077,1047.1587 L 10.78077,1043.4667 C 10.78077,1043.1527 10.64277,1043.0027 10.37977,1043.0027 L 10.17777,1043.0027 C 9.95177,1043.0027 9.80177,1043.1777 9.80177,1043.4037 L 9.80177,1047.0957 C 9.80177,1047.1777 9.80977,1047.2477 9.82877,1047.3077 L 8.76677,1047.3347 C 9.18777,1047.0967 9.41677,1046.7057 9.41677,1046.1747 C 9.41677,1045.5457 9.03977,1045.2077 8.27377,1045.0437 L 7.35677,1044.8557 C 7.00477,1044.7797 6.82877,1044.5787 6.82877,1044.3527 C 6.82877,1044.0767 7.14277,1043.8257 7.57077,1043.8257 C 8.18577,1043.8257 8.42477,1044.2277 8.73877,1044.2277 C 8.93977,1044.2277 9.22877,1044.0137 9.22877,1043.8377 C 9.22877,1043.5487 8.41177,1043.1217 7.55777,1043.1217 C 7.10377,1043.1217 6.73577,1043.2197 6.46077,1043.3917 L 7.02677,1041.8217 L 18.59977,1043.2037 C 18.42277,1043.3027 18.40377,1043.4917 18.40377,1043.5907 C 18.40377,1043.7287 18.42077,1043.8007 18.34077,1043.9297 C 18.25577,1044.0687 17.78977,1044.0987 17.80677,1044.3947 C 17.81877,1044.6077 18.19077,1044.6967 18.29077,1044.8217 C 18.39177,1044.9477 18.42877,1045.1357 18.41677,1045.3877 L 18.41677,1046.5177 C 18.41677,1046.7467 18.46477,1046.9347 18.56177,1047.0797 L 17.56377,1047.1057 z M 21.27177,1047.0087 L 21.27177,1045.7227 C 21.27177,1045.2197 21.49777,1044.8807 21.84977,1044.8807 C 22.15077,1044.8807 22.38977,1045.1817 22.38977,1045.7597 L 22.38977,1046.9797 L 21.27177,1047.0087 z "
       style="fill:#003d71;fill-rule:evenodd;stroke:none" />
  </g>
</svg>
