<?xml version="1.0" encoding="UTF-8" standalone="no"?>
<!-- Created with Inkscape (http://www.inkscape.org/) -->

<svg
   version="1.1"
   id="svg1"
   width="356.64001"
   height="339.65332"
   viewBox="0 0 356.64001 339.65332"
   sodipodi:docname="microsoft-visio-seeklogo.eps"
   xmlns:inkscape="http://www.inkscape.org/namespaces/inkscape"
   xmlns:sodipodi="http://sodipodi.sourceforge.net/DTD/sodipodi-0.dtd"
   xmlns="http://www.w3.org/2000/svg"
   xmlns:svg="http://www.w3.org/2000/svg">
  <defs
     id="defs1">
    <linearGradient
       x1="0"
       y1="0"
       x2="1"
       y2="0"
       gradientUnits="userSpaceOnUse"
       gradientTransform="matrix(914.308,-1583.54,-1583.54,-914.308,243.398,2001.79)"
       spreadMethod="pad"
       id="linearGradient22">
      <stop
         style="stop-opacity:1;stop-color:#277eca"
         offset="0"
         id="stop20" />
      <stop
         style="stop-opacity:1;stop-color:#2976c5"
         offset="0.5"
         id="stop21" />
      <stop
         style="stop-opacity:1;stop-color:#2965b8"
         offset="1"
         id="stop22" />
    </linearGradient>
    <clipPath
       clipPathUnits="userSpaceOnUse"
       id="clipPath22">
      <path
         d="M 116.738,1910.57 H 1284.37 c 64.48,0 116.74,-52.26 116.74,-116.73 V 626.211 c 0,-64.473 -52.26,-116.75 -116.74,-116.75 H 116.738 C 52.2656,509.461 0,561.738 0,626.211 V 1793.84 c 0,64.47 52.2656,116.73 116.738,116.73 z"
         transform="translate(0,-2.5000001e-5)"
         id="path22" />
    </clipPath>
  </defs>
  <sodipodi:namedview
     id="namedview1"
     pagecolor="#ffffff"
     bordercolor="#000000"
     borderopacity="0.25"
     inkscape:showpageshadow="2"
     inkscape:pageopacity="0.0"
     inkscape:pagecheckerboard="0"
     inkscape:deskcolor="#d1d1d1">
    <inkscape:page
       x="0"
       y="0"
       inkscape:label="1"
       id="page1"
       width="356.64001"
       height="339.65332"
       margin="0"
       bleed="0" />
  </sodipodi:namedview>
  <g
     id="g1"
     inkscape:groupmode="layer"
     inkscape:label="1">
    <g
       id="group-R5">
      <path
         id="path2"
         d="M 1453.97,1910.57 H 2558.3 c 64.37,0 116.54,-52.17 116.54,-116.54 V 753.379 c 0,-64.367 -52.17,-116.551 -116.54,-116.551 H 1453.97 c -64.37,0 -116.54,52.184 -116.54,116.551 V 1794.03 c 0,64.37 52.17,116.54 116.54,116.54"
         style="fill:#318dd4;fill-opacity:1;fill-rule:nonzero;stroke:none"
         transform="matrix(0.13333333,0,0,-0.13333333,0,339.65333)" />
      <path
         id="path3"
         d="m 2037.97,1910.57 c 0.14,-30.9 -12.28,-60.55 -34.38,-82.15 l -475.1,-475.11 -45.23,-45.21 c -5.85,-5.64 -12.02,-10.95 -18.47,-15.92 -19.05,-12.04 -41.13,-18.44 -63.68,-18.48 -30.91,-0.11 -60.55,12.29 -82.16,34.4 l -520.317,520.32 c -39.27,38.72 -45.672,99.81 -15.285,145.85 4.55,6.58 9.66,12.76 15.285,18.46 l 520.317,520.32 c 44.72,45.38 117.74,45.91 163.12,1.21 l 1.19,-1.21 520.33,-520.32 c 22.1,-21.6 34.52,-51.24 34.38,-82.16"
         style="fill:#3bafe8;fill-opacity:1;fill-rule:nonzero;stroke:none"
         transform="matrix(0.13333333,0,0,-0.13333333,0,339.65333)" />
      <path
         id="path4"
         d="M 2037.97,636.828 C 2037.97,285.109 1752.8,-0.0117188 1401.08,0 1173.57,0.0195313 963.352,121.391 849.59,318.422 c -12.266,20.359 -22.91,41.637 -31.856,63.68 -9.382,20.687 -17.461,41.968 -24.199,63.687 -105.515,335.531 80.945,693.071 416.485,798.591 61.83,19.44 126.27,29.33 191.09,29.33 21.64,0 42.67,-1.28 63.68,-3.18 21.42,-1.84 42.68,-5.04 63.7,-9.55 296.33,-60.91 509.13,-321.609 509.48,-624.152"
         style="fill:#2960ae;fill-opacity:1;fill-rule:nonzero;stroke:none"
         transform="matrix(0.13333333,0,0,-0.13333333,0,339.65333)" />
      <path
         id="path5"
         d="m 1528.49,1260.98 v 0 c -21.02,4.51 -42.28,7.71 -63.7,9.55 v 21.65 c 6.45,4.97 12.62,10.28 18.47,15.92 l 45.23,45.21 v -92.33"
         style="fill:#2c84cb;fill-opacity:1;fill-rule:nonzero;stroke:none"
         transform="matrix(0.13333333,0,0,-0.13333333,0,339.65333)" />
      <path
         id="path6"
         d="m 1464.79,1292.18 v 501.85 c -0.07,29.43 -11.47,57.71 -31.82,78.97 -21.52,23.92 -52.17,37.57 -84.32,37.57 -0.13,0 -0.27,0 -0.4,0 H 764.246 c 0,-0.18 0,-0.36 0,-0.54 v 0 c 0,-0.46 0.004,-0.91 0.008,-1.36 -0.012,0.65 -0.016,1.3 -0.016,1.96 -0.011,22.01 6.262,44.17 19.11,63.64 h 628.592 c 43.59,-0.27 83.39,-24.83 103.17,-63.7 8.95,-16.16 13.56,-34.37 13.38,-52.86 v -504.4 l -45.23,-45.21 c -5.85,-5.64 -12.02,-10.95 -18.47,-15.92"
         style="fill:#39a2e0;fill-opacity:1;fill-rule:nonzero;stroke:none"
         transform="matrix(0.13333333,0,0,-0.13333333,0,339.65333)" />
      <path
         id="path7"
         d="m 1455.88,391 c 5.88,13.922 8.91,28.859 8.91,43.961 v 127.367 0 708.202 c 21.42,-1.84 42.68,-5.04 63.7,-9.55 v 0 -762.339 C 1528.16,451.41 1499.56,408.988 1455.88,391"
         style="fill:#295ba0;fill-opacity:1;fill-rule:nonzero;stroke:none"
         transform="matrix(0.13333333,0,0,-0.13333333,0,339.65333)" />
      <path
         id="path8"
         d="M 1348.25,318.422 H 849.59 v 0 c -12.266,20.359 -22.91,41.637 -31.856,63.68 h 594.206 c 15.1,0 30.03,3.039 43.94,8.898 v 0 0 c -17.97,-43.66 -60.41,-72.281 -107.63,-72.578"
         style="fill:#285591;fill-opacity:1;fill-rule:nonzero;stroke:none"
         transform="matrix(0.13333333,0,0,-0.13333333,0,339.65333)" />
      <path
         id="path9"
         d="M 1411.94,382.102 H 817.734 v 0 c -9.382,20.687 -17.461,41.968 -24.199,63.687 h 491.035 v 0 h 63.68 c 64.16,0.473 116.07,52.371 116.54,116.539 V 434.961 c 0,-15.102 -3.03,-30.039 -8.91,-43.961 v 0 c -13.91,-5.859 -28.84,-8.898 -43.94,-8.898"
         style="fill:#275085;fill-opacity:1;fill-rule:nonzero;stroke:none"
         transform="matrix(0.13333333,0,0,-0.13333333,0,339.65333)" />
      <path
         id="path10"
         d="m 1211.47,1244.84 c 0.23,0.07 0.47,0.14 0.7,0.22 -0.23,-0.08 -0.47,-0.15 -0.7,-0.22 m 0.72,0.22 c 0.41,0.13 0.81,0.25 1.22,0.38 -0.41,-0.13 -0.81,-0.25 -1.22,-0.38 m 2.18,0.67 c 59.92,18.37 122.25,27.8 184.95,27.98 0.36,-0.01 0.72,-0.01 1.07,-0.01 -63.06,-0.06 -125.76,-9.49 -186.02,-27.97"
         style="fill:#275085;fill-opacity:1;fill-rule:nonzero;stroke:none"
         transform="matrix(0.13333333,0,0,-0.13333333,0,339.65333)" />
      <path
         id="path11"
         d="m 1464.79,1270.53 v 0 c -20.62,1.86 -41.25,3.13 -62.46,3.18 22.13,0.27 43.76,6.65 62.46,18.47 v 0 -21.65"
         style="fill:#2a6497;fill-opacity:1;fill-rule:nonzero;stroke:none"
         transform="matrix(0.13333333,0,0,-0.13333333,0,339.65333)" />
      <path
         id="path12"
         d="m 1402.33,1273.71 c -0.4,0 -0.81,0 -1.22,0 v 520.32 c -0.24,64.27 -52.27,116.3 -116.54,116.54 H 764.246 c 0,-0.18 0,-0.36 0,-0.54 v 0 c 0,0.18 0,0.36 0,0.54 h 584.004 c 0.13,0 0.27,0 0.4,0 32.15,0 62.8,-13.65 84.32,-37.57 20.35,-21.26 31.75,-49.54 31.82,-78.97 v -501.85 0 c -18.7,-11.82 -40.33,-18.2 -62.46,-18.47"
         style="fill:#2d78a7;fill-opacity:1;fill-rule:nonzero;stroke:none"
         transform="matrix(0.13333333,0,0,-0.13333333,0,339.65333)" />
      <path
         id="path13"
         d="m 1348.25,445.789 h -63.68 c 64.16,0.473 116.06,52.371 116.54,116.539 v 711.372 0 0 c 0.41,0.01 0.82,0.01 1.22,0.01 21.21,-0.05 41.84,-1.32 62.46,-3.18 v 0 -708.202 c -0.47,-64.168 -52.38,-116.066 -116.54,-116.539"
         style="fill:#23456f;fill-opacity:1;fill-rule:nonzero;stroke:none"
         transform="matrix(0.13333333,0,0,-0.13333333,0,339.65333)" />
      <path
         id="path14"
         d="m 1399.32,1273.71 c -29.6,0.35 -57.92,12.18 -78.97,32.98 21.3,-21.04 50.03,-32.9 80,-32.98 -0.34,0 -0.68,0 -1.03,0"
         style="fill:#2c83b7;fill-opacity:1;fill-rule:nonzero;stroke:none"
         transform="matrix(0.13333333,0,0,-0.13333333,0,339.65333)" />
      <path
         id="path15"
         d="m 1318.95,1308.1 v 0 0 l -520.317,520.32 c -21.653,21.15 -34.004,50.03 -34.379,80.25 0.512,-29.4 12.207,-58.39 34.379,-80.25 L 1318.95,1308.1 v 0"
         style="fill:#878e94;fill-opacity:1;fill-rule:nonzero;stroke:none"
         transform="matrix(0.13333333,0,0,-0.13333333,0,339.65333)" />
      <path
         id="path16"
         d="m 1400.35,1273.71 c -29.97,0.08 -58.7,11.94 -80,32.98 -0.01,0.02 -0.03,0.04 -0.05,0.05 -0.07,0.07 -0.14,0.14 -0.2,0.21 -0.02,0.01 -0.03,0.02 -0.04,0.04 -0.08,0.07 -0.15,0.14 -0.22,0.21 -0.3,0.3 -0.59,0.6 -0.89,0.9 l -520.317,520.32 c -22.172,21.86 -33.867,50.85 -34.379,80.25 -0.004,0.45 -0.008,0.9 -0.008,1.36 0,0.18 0,0.36 0,0.54 h 520.324 c 64.27,-0.24 116.3,-52.27 116.54,-116.54 V 1273.7 c 0,0.01 0,0.01 0,0.01 -0.25,0 -0.5,0 -0.76,0"
         style="fill:#2c668b;fill-opacity:1;fill-rule:nonzero;stroke:none"
         transform="matrix(0.13333333,0,0,-0.13333333,0,339.65333)" />
      <path
         id="path17"
         d="m 1400.39,1273.7 v 0 0 c -0.35,0 -0.71,0 -1.07,0.01 0.35,0 0.69,0 1.03,0 v 0 0 0 c 0.26,0 0.51,0 0.76,0 v 0 -0.01 0 c -0.03,0 -0.06,0 -0.1,0 -0.2,0 -0.41,0 -0.62,0"
         style="fill:#203b5b;fill-opacity:1;fill-rule:nonzero;stroke:none"
         transform="matrix(0.13333333,0,0,-0.13333333,0,339.65333)" />
      <path
         id="path18"
         d="M 1284.57,445.789 H 793.535 v 0 c -19.992,63.57 -29.5,127.922 -29.504,191.211 -0.011,270.75 174.02,521.85 445.989,607.38 v 0 c 0.48,0.16 0.97,0.31 1.45,0.46 0.23,0.07 0.47,0.14 0.7,0.22 0.01,0 0.02,0 0.02,0 0.41,0.13 0.81,0.25 1.22,0.38 0.32,0.1 0.64,0.2 0.96,0.29 60.26,18.48 122.96,27.91 186.02,27.97 0.11,0 0.2,0 0.31,0 0.13,0 0.28,0 0.41,0 v 0 -711.372 c -0.48,-64.168 -52.38,-116.066 -116.54,-116.539"
         style="fill:#203b5b;fill-opacity:1;fill-rule:nonzero;stroke:none"
         transform="matrix(0.13333333,0,0,-0.13333333,0,339.65333)" />
      <path
         id="path19"
         d="m 1400.7,1273.7 c -0.11,0 -0.2,0 -0.31,0 0.21,0 0.42,0 0.62,0 0.04,0 0.07,0 0.1,0 -0.13,0 -0.28,0 -0.41,0"
         style="fill:#1d314c;fill-opacity:1;fill-rule:nonzero;stroke:none"
         transform="matrix(0.13333333,0,0,-0.13333333,0,339.65333)" />
      <path
         id="path20"
         d="M 116.738,1910.57 H 1284.37 c 64.48,0 116.74,-52.26 116.74,-116.73 V 626.211 c 0,-64.473 -52.26,-116.75 -116.74,-116.75 H 116.738 C 52.2656,509.461 0,561.738 0,626.211 V 1793.84 c 0,64.47 52.2656,116.73 116.738,116.73"
         style="fill:url(#linearGradient22);fill-opacity:1;fill-rule:nonzero;stroke:none"
         transform="matrix(0.13333333,0,0,-0.13333333,0,339.65333)"
         clip-path="url(#clipPath22)" />
      <path
         id="path23"
         d="m 662.344,1087.23 c 21.433,-63.18 34.179,-103.031 38.215,-119.601 h 2.617 c 3.855,16.57 17.637,59.251 41.328,128.071 l 169.844,493.84 H 1070.52 L 782.336,830.578 H 615.09 L 331.184,1589.54 h 160.601 l 170.559,-502.31"
         style="fill:#ffffff;fill-opacity:1;fill-rule:nonzero;stroke:none"
         transform="matrix(0.13333333,0,0,-0.13333333,0,339.65333)" />
    </g>
  </g>
</svg>
